<svg xmlns="http://www.w3.org/2000/svg" preserveAspectRatio="xMidYMid" width="49" height="49" viewBox="0 0 49 49"><defs><style>.cls-2 { fill: #fefefe; }</style></defs><path d="M24.5 49C10.99 49 0 38.01 0 24.5S10.99 0 24.5 0 49 10.99 49 24.5 38.01 49 24.5 49zm0-47.02C12.085 1.98 1.98 12.084 1.98 24.5S12.085 47.02 24.5 47.02c12.417 0 22.52-10.103 22.52-22.52S36.916 1.98 24.5 1.98zm10.334 34.194c-.253 0-.507-.097-.7-.29l-8.756-8.755c-1.515 1.21-3.432 1.94-5.518 1.94-4.886 0-8.86-3.975-8.86-8.86s3.974-8.86 8.86-8.86c4.885 0 8.86 3.975 8.86 8.86 0 2.086-.73 4.003-1.94 5.518l8.754 8.755c.387.387.387 1.014 0 1.4-.193.194-.447.29-.7.29zM19.86 13.33c-3.794 0-6.88 3.087-6.88 6.88 0 3.793 3.086 6.878 6.88 6.878 3.793 0 6.88-3.085 6.88-6.878s-3.087-6.88-6.88-6.88z" id="path-1" class="cls-2" fill-rule="evenodd"/></svg>