<svg xmlns="http://www.w3.org/2000/svg" preserveAspectRatio="xMidYMid" width="133" height="76" viewBox="0 0 133 76"><defs><style>.cls-2 { fill: #ffffff; }</style></defs><path d="M131.655 74.057c.19.068.357.192.477.36.32.446.22 1.073-.228 1.395-.176.127-.38.188-.58.188-.31 0-.617-.145-.81-.416-.254-.353-.245-.816-.01-1.154H107.15V74h23.85l1.746-1.26.25.348-1.343.97zm-.333.373h-.183l-.15.107c-.254.183-.312.54-.13.796.184.255.54.313.794.13.254-.184.313-.54.13-.796-.107-.15-.28-.237-.462-.237zm-15.19-12.043l1.867-.19V51.504h-.248l-5.518 12.066h-2.005l-5.575-12.065h-.247v10.69l1.895.192v1.184h-5.272v-1.183l1.813-.193V51.257l-1.812-.276v-1.183h4.614L111.272 62l5.6-12.203h4.532v1.212l-1.812.247v10.937l1.812.193v1.184h-5.27v-1.183zm-14.246 10.818h-1.67v.77h1.48v.466h-1.48v.797h1.69v.466h-2.21V72.74h2.19v.465zm-5.205 2.498l-.733-1.033h-.64v1.033h-.52V72.74h1.316c.693 0 1.098.372 1.098.943 0 .487-.29.78-.704.898l.797 1.123h-.612zm-.007-2c0-.316-.228-.49-.612-.49h-.754v.995h.76c.37 0 .607-.195.607-.504zm-5.728 2.046c-.768 0-1.257-.445-1.257-1.305V72.74h.52v1.684c0 .55.28.847.746.847.46 0 .742-.278.742-.825V72.74h.52v1.68c0 .885-.498 1.33-1.27 1.33zm-2.562-59.645c-.405.396-.865.714-1.367.945-.5.233-1.046.376-1.62.425-.066.006-.13.01-.195.013.037.46.006.906-.092 1.327-.135.584-.405 1.155-.78 1.653-.347.46-.785.874-1.302 1.228-.466.318-.992.588-1.565.8-.988.367-2.07.552-3.21.552-.07 0-.142 0-.213-.002-1.177-.028-2.33-.25-3.427-.657-.517-.192-1.026-.428-1.52-.706.078.215.16.428.243.64.247.62.478 1.115.725 1.555.138.245.29.482.45.702l.062.08.2.255c.088.107.18.215.274.32.398.44.82.804 1.26 1.084.472.304.976.515 1.496.63.258.056.525.092.818.108.124.008.247.01.377.014h.06c.07.003.14.004.22.01l.087.006c.032.003.064.007.1.014.076.014.153.03.262.088.14.04.334.334.296.542v.092c-.004.097-.012.186-.02.272-.023.182-.06.36-.108.524-.098.335-.255.657-.47.958-.376.515-.91.946-1.585 1.278-.554.272-1.163.466-1.86.59-.613.112-1.267.154-1.92.14-.66-.018-1.306-.102-1.917-.25-.7-.17-1.302-.402-1.84-.713l-.068-.04c-.406.452-.875.81-1.395 1.066-.322.158-.654.275-.988.348-.232.05-.467.083-.713.096l-.078 10.778c0 .105-.087 1.302-.193 1.302h-.003c-.104-.003-.19-1.2-.19-1.303l-.077-10.78c-.637-.04-1.258-.217-1.804-.516-.304-.165-.592-.367-.857-.6-.132-.117-.26-.247-.386-.385-.12.072-.244.14-.37.204-.573.286-1.2.495-1.92.635-.59.113-1.202.17-1.82.17h-.166c-.692-.012-1.36-.096-1.987-.25-.738-.182-1.358-.44-1.896-.79-.31-.202-.586-.437-.82-.698-.257-.29-.457-.606-.593-.945-.14-.337-.217-.706-.232-1.095v-.048c-.002-.028-.002-.055 0-.117-.008-.075.057-.315.17-.415.085-.1.19-.153.27-.188.08-.032.145-.05.203-.06.103-.022.192-.03.277-.04l.26-.018c.285-.02.588-.043.893-.098.285-.05.565-.127.83-.226.52-.194 1.02-.49 1.483-.88.435-.367.84-.808 1.203-1.31.298-.42.574-.92.867-1.577.15-.338.297-.704.454-1.13-.28.154-.562.295-.845.42-1.22.544-2.508.85-3.83.908-1.378.06-2.712-.155-3.9-.637-.658-.27-1.247-.614-1.747-1.024-.572-.47-1.015-1.012-1.316-1.617-.32-.632-.476-1.35-.45-2.075.004-.075.01-.15.016-.225-.197-.01-.39-.03-.573-.06-.686-.11-1.35-.375-1.92-.766-.555-.38-1.047-.89-1.42-1.475-.366-.572-.623-1.203-.762-1.878-.143-.695-.148-1.382-.016-2.042.14-.696.44-1.34.87-1.862-.107-.15-.2-.3-.28-.45-.295-.548-.487-1.18-.572-1.88-.072-.6-.063-1.233.026-1.883.09-.635.247-1.24.47-1.802.13-.326.268-.61.424-.865.097-.157.194-.295.298-.42.134-.164.266-.292.415-.405.146-.108.374-.254.694-.297.155-.02.322-.01.472.034.075.022.148.05.214.084l.084.044c.277.153.512.276.758.404 2.053 1.058 4.084 1.8 6.036 2.203 1.005.21 2.053.344 3.115.395.42.02.862.03 1.39.03h.182c.174 0 .35 0 .526-.003.356-.003.716-.006 1.084.002.34.008.603.027.856.06.36.048.654.123.924.236.336.14.642.36.863.624.202.234.364.518.494.868.21.588.278 1.163.32 1.696.02.248.032.513.037.81l.007.776c.015.52.07.99.166 1.39.112.48.28.876.5 1.178.116.16.25.29.384.378.067.043.135.076.202.098.034.01.066.02.1.025l.044.005.008-.018.082.012c.044-.01.07-.02.097-.03.062-.027.132-.068.207-.123.142-.107.29-.25.436-.425.14-.166.276-.354.417-.573-.03-.11-.065-.22-.102-.323l-.205-.558c-.3-.826-.548-1.594-.755-2.35-.25-.903-.422-1.723-.526-2.506l-.038-.326c-.008-.075-.014-.15-.02-.227l-.033-.694V4.49c.003-.514.033-.945.094-1.354.073-.503.187-.952.348-1.37.096-.243.203-.462.33-.667.15-.242.312-.444.495-.613.175-.16.42-.356.775-.448.04-.012.087-.02.146-.028.098-.014.12-.01.153-.01.058 0 .083.003.122.008.048.006.094.013.137.024.148.034.294.094.442.18.228.138.435.32.63.56.16.2.303.424.423.666.21.423.36.892.465 1.43.046.237.083.483.107.734.01.102.018.206.025.31l.004.055c.007.122.013.25.016.37.014.464-.003.958-.053 1.467-.047.47-.12.96-.217 1.457-.193.978-.47 1.94-.825 2.863-.198.514-.403.97-.624 1.395-.13.247-.254.462-.377.66.03.215.052.426.06.628.012.19.01.38.01.56l-.046 8.143-.06 9.632c.172-.013.34-.036.5-.072.263-.058.523-.15.775-.275.38-.186.74-.456 1.048-.783-.274-.255-.498-.534-.666-.83-.18-.314-.307-.67-.364-1.03-.027-.173-.04-.352-.038-.546.004-.21.03-.4.083-.584.065-.224.165-.42.3-.583.15-.188.36-.334.585-.41.22-.08.472-.095.71-.043.22.048.432.15.612.292.316.252.54.63.63 1.06.042.192.06.38.053.58l-.016.264c-.01.097-.023.184-.04.273-.088.462-.263.916-.52 1.352.446.254.972.456 1.565.6.547.13 1.126.205 1.72.222.59.013 1.174-.026 1.727-.125.6-.11 1.14-.28 1.61-.51.528-.26.953-.6 1.227-.983.15-.21.26-.435.33-.667.03-.103.05-.21.065-.316h-.01c-.15-.003-.307-.006-.467-.015-.338-.02-.665-.062-.97-.13-.623-.135-1.25-.395-1.81-.753-.51-.325-1-.745-1.456-1.248-.108-.117-.21-.236-.31-.358l-.217-.276c-.02-.024-.05-.064-.075-.1-.18-.243-.353-.512-.515-.796-.27-.48-.52-1.012-.785-1.673-.195-.49-.385-1.013-.614-1.696l-.063-.193-.03-.025c-.058-.044-.115-.087-.17-.132-.453-.368-.887-.78-1.29-1.228-.2-.22-.392-.45-.575-.684l-.265-.356c-.088-.123-.177-.25-.258-.375-.273-.423-.612-.995-.812-1.684-.05-.178-.084-.342-.103-.5-.025-.22-.023-.393.003-.567.04-.26.13-.473.28-.647.098-.114.225-.206.357-.26.117-.05.25-.077.383-.077.318.01.536.117.675.197.155.09.298.202.44.34.22.216.413.47.608.797.153.262.29.55.41.858.118.29.21.597.292.87l.094.306c.253.838.508 1.676.777 2.51.744.542 1.55.973 2.397 1.28 1.002.368 2.042.56 3.092.577h.12c1.043 0 2.022-.17 2.91-.507.49-.188.937-.42 1.325-.69.417-.29.766-.622 1.038-.99.284-.384.478-.802.574-1.242.08-.365.093-.75.04-1.146-.108-.017-.215-.036-.32-.06-.965-.205-1.925-.63-2.936-1.3l-.343-.244c-.135-.106-.244-.203-.347-.306-.26-.263-.442-.535-.56-.832-.15-.375-.17-.798-.054-1.158.12-.386.41-.73.78-.92.323-.17.72-.236 1.094-.19.32.04.64.15.952.33.25.145.49.335.732.577l.284.31c.092.104.182.21.268.318.382.47.688.928.936 1.4.15.286.28.578.38.87.118 0 .236-.005.353-.017.428-.04.83-.15 1.19-.323.72-.338 1.332-.942 1.723-1.7.386-.74.548-1.575.46-2.352-.046-.395-.155-.764-.325-1.094-.066-.127-.14-.25-.227-.365-.306.222-.647.403-1.012.54-.427.162-.897.272-1.395.325-.225.024-.452.038-.7.04l-.086.002h-.1c-.02 0-.063-.003-.103-.006-.038-.002-.07-.005-.104-.01-.17-.017-.317-.047-.457-.092-.238-.074-.58-.23-.855-.544-.25-.28-.4-.658-.41-1.032-.013-.366.11-.75.334-1.05.195-.264.473-.478.8-.618.262-.112.547-.176.872-.196.074-.005.135-.006.215-.006l.54.022c.532.04 1.03.143 1.487.306.3.104.59.24.86.405.194-.31.34-.665.43-1.057.148-.633.167-1.333.058-2.082-.106-.722-.315-1.39-.607-1.932-.078-.145-.16-.27-.24-.374-.08-.105-.165-.193-.23-.236 0 0-.002 0-.003-.002l-.27.147c-1.338.71-2.653 1.292-3.91 1.73-1.266.443-2.558.77-3.843.97-1.08.167-2.186.25-3.382.25l-.212-.002c-.333 0-.66-.008-.978-.015-.22-.005-.434-.01-.645-.013l-.312-.002c-.32 0-.736.008-1.09.073-.203.035-.375.09-.514.165-.14.074-.25.168-.344.29-.173.222-.302.547-.395.994-.068.335-.114.703-.144 1.158-.012.192-.02.382-.026.567l-.016.567c-.038.807-.164 1.516-.375 2.11-.23.645-.57 1.17-.985 1.518-.216.182-.458.318-.7.392-.058.02-.12.034-.182.046l-.225.027h-.132c-.05-.002-.1-.007-.15-.012-.19-.02-.378-.078-.533-.16-.14-.07-.237-.144-.307-.198-.07-.056-.126-.103-.156-.13l-.044-.038c-.168-.15-.184-.407-.038-.575.137-.157.387-.183.55-.056l.05.035.123.09c.05.03.114.073.186.103.076.033.152.05.247.055h.1l.003.014v-.014.015l.053-.018.08-.016c.032-.008.06-.015.09-.026.128-.047.257-.13.376-.238.27-.246.5-.65.648-1.135.16-.505.243-1.117.25-1.818l-.004-.553c-.002-.2 0-.4.008-.61.013-.35.04-.816.127-1.32.05-.273.108-.504.184-.726.103-.297.23-.546.387-.762.183-.256.435-.483.71-.637.246-.14.528-.242.86-.31.56-.113 1.1-.12 1.625-.128h.853c.257 0 .516 0 .777-.006 1.243-.018 2.35-.113 3.384-.29 1.175-.197 2.385-.516 3.596-.95 1.215-.435 2.46-.995 3.708-1.664l.292-.16c.023-.01.07-.037.086-.044.007-.008.112-.05.14-.06.052-.017.1-.033.154-.043.186-.04.413-.035.613.024.156.045.303.115.448.215.254.176.423.37.553.54.13.166.248.35.364.564.192.352.35.737.488 1.174.123.4.216.814.277 1.232.132.927.105 1.806-.08 2.612-.112.474-.282.915-.503 1.31-.07.126-.148.247-.228.36.184.228.34.472.468.726.242.476.395 1.003.454 1.563.11 1.06-.106 2.14-.627 3.12-.262.492-.59.932-.977 1.308zm-25.027 11.84c.002.06.008.12.015.178.046.367.174.744.374 1.107.107-.107.202-.218.283-.333.154-.215.265-.448.33-.694.032-.127.053-.255.062-.38l.004-.19c0-.065-.004-.125-.013-.183-.026-.22-.112-.396-.23-.474-.057-.04-.124-.06-.196-.06-.07 0-.143.018-.212.055-.155.08-.282.242-.35.446-.034.102-.056.218-.064.338l-.004.097.002.096zm2.714-14.47c-.146.11-.287.195-.433.26-.1.043-.186.072-.27.092-.047.012-.095.024-.16.03-.066.01-.102.01-.132.013l-.058.002-.096-.004c-.04-.002-.076-.006-.11-.01l-.037-.005c-.092-.015-.182-.035-.27-.062-.16-.05-.32-.124-.473-.22-.26-.166-.497-.388-.7-.66-.32-.432-.553-.952-.714-1.593-.065-.258-.114-.526-.15-.823-.036-.288-.058-.558-.066-.826l-.014-.773c-.008-.247-.02-.494-.04-.74-.05-.58-.133-1.014-.262-1.36-.077-.205-.17-.37-.275-.486-.11-.126-.238-.215-.41-.286-.36-.15-.873-.178-1.327-.186-.346-.007-.704 0-1.066.005l-.51.007c-.142.002-.285.002-.43.002-.44 0-.836-.007-1.208-.024-1.132-.047-2.25-.18-3.32-.4-2.067-.42-4.214-1.193-6.378-2.3-.252-.128-.513-.265-.758-.4l-.024-.01-.04.027c-.114.085-.254.255-.377.457-.116.19-.225.41-.323.66-.183.462-.313.965-.385 1.492-.074.534-.082 1.052-.023 1.54.064.532.206 1.004.42 1.403.04.07.08.138.123.205.226-.14.462-.26.703-.354.586-.232 1.24-.363 1.945-.388.063-.003.128-.004.193-.005H48.792c.046.002.1.004.145.008.21.016.398.05.573.103.207.06.4.15.575.267.194.13.364.296.49.483.142.205.235.44.27.68.038.248.016.505-.064.744-.075.232-.208.448-.384.625-.158.162-.35.292-.568.387-.184.08-.38.133-.603.16-.1.012-.198.02-.293.02h-.236c-.342-.01-.657-.04-.965-.09-.71-.118-1.34-.354-1.87-.7-.063-.042-.125-.084-.185-.13-.257.34-.438.748-.53 1.19-.1.484-.1 1.014.005 1.532.206 1.046.82 2.01 1.642 2.576.422.292.912.49 1.42.577.204.035.42.053.637.054.063-.187.14-.375.224-.56.257-.56.604-1.11 1.064-1.683.102-.128.208-.252.315-.375l.05-.057c.094-.103.186-.205.297-.312.297-.284.6-.493.924-.638.406-.18.825-.245 1.226-.18.483.07.918.353 1.16.754.127.206.205.448.224.698.017.226-.014.464-.09.686-.122.36-.34.687-.666.998-.13.122-.266.235-.422.344l-.2.137-.136.087-.07.045c-.29.183-.566.34-.846.483-.63.318-1.255.544-1.86.673-.108.024-.218.044-.328.06-.017.117-.028.227-.032.336-.025.537.086 1.068.32 1.538.225.464.568.89 1.02 1.265.414.342.906.634 1.465.866 1.027.425 2.236.62 3.445.58 1.168-.044 2.362-.322 3.454-.804.624-.274 1.233-.625 1.807-1.043.09-.276.177-.552.264-.83l.7-2.274c.046-.15.103-.322.162-.478.13-.348.274-.655.437-.936.21-.363.423-.638.666-.868.162-.152.328-.27.507-.36.122-.058.235-.096.35-.12.135-.025.293-.028.435 0 .16.034.316.11.438.218.11.095.2.215.266.357.12.258.136.498.138.678-.006.443-.123.82-.224 1.102-.11.3-.255.606-.443.934-.158.277-.337.553-.546.84l-.182.245c-.037.048-.074.097-.115.148-.105.132-.208.258-.316.384-.215.25-.442.495-.674.724-.322.318-.667.62-1.028.898-.07.212-.142.424-.216.634-.25.72-.476 1.296-.706 1.814-.22.494-.532 1.138-.973 1.755-.413.568-.874 1.068-1.37 1.486-.552.465-1.15.818-1.775 1.048-.32.12-.657.212-1.003.272-.357.064-.72.092-.998.11l-.058.003c-.067.004-.134.01-.195.015.02.217.07.42.145.607.182.455.542.866 1.04 1.19.438.286.975.51 1.595.664.556.138 1.153.214 1.77.225l.162.002c.554 0 1.1-.052 1.625-.152.623-.12 1.186-.306 1.67-.547.078-.04.154-.08.23-.123-.297-.503-.482-1.023-.55-1.548-.013-.11-.022-.195-.024-.28v-.04c-.002-.032-.003-.064-.003-.103 0-.036.002-.083.005-.138.014-.21.05-.403.114-.588.142-.433.438-.793.81-.988.204-.107.43-.165.654-.165.28.005.53.085.734.225.19.13.35.314.462.534.09.18.152.384.183.606.013.1.02.196.02.292.002.038 0 .078 0 .11 0 .054-.002.092-.004.13l-.003.036c-.013.187-.043.373-.09.558-.093.356-.257.706-.476 1.012-.14.198-.302.382-.494.56.08.086.164.168.248.243.21.185.44.346.68.478.415.226.867.36 1.346.402l-.106-17.73c0-.105 0-.207-.003-.307-.135.144-.268.265-.41.373zM46.78 9.438c.347.19.734.318 1.17.392.126.02.253.037.383.05.127.01.262.02.388.022l.183.003c.073 0 .118-.005.162-.01.09-.01.172-.032.237-.06.118-.05.2-.127.228-.217.03-.084.014-.175-.04-.257-.068-.1-.197-.183-.358-.23-.085-.027-.183-.044-.294-.054l-.145-.005v-.137l-.02.14h-.064c-.047 0-.092 0-.138.002-.564.02-1.074.116-1.516.29-.058.02-.117.046-.175.072zm3.368 6.62c.398-.11.805-.267 1.216-.47.24-.12.492-.26.748-.42l.277-.178.08-.056c.11-.077.21-.155.293-.233.177-.163.305-.343.36-.505.052-.15.046-.286-.018-.392-.063-.108-.19-.187-.343-.21-.04-.008-.083-.01-.127-.01-.14 0-.294.033-.445.1-.194.082-.397.223-.59.405-.083.078-.172.177-.26.272l-.03.032c-.096.108-.19.218-.283.33-.374.46-.663.897-.88 1.335zm12.505 2.796c.106-.112.208-.226.307-.34.098-.115.196-.232.287-.347.04-.05.08-.103.12-.157l.156-.208c.4-.55.682-1.05.86-1.525.104-.28.16-.54.162-.75 0-.118-.02-.205-.038-.243v-.015c-.02 0-.07.007-.13.037-.084.042-.175.108-.26.188-.17.158-.332.372-.486.637-.133.23-.256.494-.365.784-.054.14-.098.27-.146.425l-.467 1.513zm4.513-9.128c.345-.86.617-1.76.81-2.672.208-.99.302-1.87.29-2.698-.01-.48-.048-.916-.12-1.3-.08-.448-.2-.846-.363-1.185-.086-.18-.188-.345-.3-.49-.116-.147-.243-.266-.368-.34-.06-.038-.12-.065-.173-.078l-.002-.05-.02.032-.004-.03-.008.04h-.022l-.038.003c-.124.028-.26.11-.384.222-.234.212-.443.534-.605.932-.14.345-.244.736-.31 1.163-.06.36-.093.76-.1 1.227l-.003.078.024.648c.005.062.008.123.014.186l.03.276c.09.776.245 1.56.473 2.425.19.73.42 1.48.705 2.294l.075.213c.14-.283.273-.584.4-.898zm3.23 17.82c-.047-.22-.15-.404-.295-.518-.09-.075-.203-.117-.308-.117-.04 0-.08.006-.113.02-.13.043-.233.174-.286.358-.028.102-.044.218-.046.336-.002.135.007.262.026.38.04.25.124.49.25.71.105.18.242.357.41.525.174-.317.293-.637.352-.956.013-.065.022-.132.03-.193l.01-.197c.004-.118-.007-.242-.03-.348zm.464-9.588l-.106-.345c-.08-.26-.16-.53-.266-.792-.104-.264-.22-.506-.346-.72-.145-.243-.295-.44-.445-.587-.082-.08-.167-.146-.246-.192-.077-.045-.144-.062-.17-.062-.012.007-.038.06-.048.134-.025.164.002.393.074.647.124.425.35.885.69 1.407.075.113.15.222.23.333l.25.33c.166.213.344.423.526.623l.143.154-.285-.93zm12.676-2.067c-.215-.398-.484-.79-.822-1.2-.08-.094-.16-.187-.24-.276l-.247-.266c-.163-.16-.327-.288-.486-.377-.168-.096-.34-.155-.498-.17-.033-.005-.066-.007-.096-.007-.114 0-.22.024-.305.07-.202.113-.258.314-.155.565.055.137.156.28.295.417.07.067.148.135.225.195l.276.19c.73.474 1.444.81 2.13 1l-.074-.14zm2.002-6.767l-.452-.016h-.01c-.03 0-.073 0-.107.003-.158.01-.3.042-.41.09-.183.078-.295.21-.29.34.006.126.11.23.29.284.05.017.11.028.178.035.043.004.092.006.15.006h.084c.202-.004.387-.016.568-.036.508-.056.975-.19 1.368-.393-.403-.173-.864-.278-1.37-.314zM57.74 56.63c0 5.95-5.134 6.94-7.688 6.94h-7.276v-1.184l1.812-.192v-11.02l-1.812-.192v-1.185h7.276c2.444 0 7.688.88 7.688 6.832zm-11.532 5.51h4.147c1.95 0 5.71-.844 5.71-5.51 0-4.668-3.953-5.4-6.013-5.4h-3.844v10.91zm-.937 12.08c0 .835-.64 1.483-1.57 1.483h-1.1V72.74h1.1c.93 0 1.57.638 1.57 1.48zm-2.15 1.01h.58c.62 0 1.027-.42 1.027-1.01 0-.58-.406-1.007-1.026-1.007h-.58v2.016zm-5.206-2.49h2.19v.465h-1.67v.77h1.48v.466h-1.48v.797h1.69v.466h-2.21V72.74zm-3.867 2.984l-.726-2.13-.725 2.13h-.447l-1.03-2.985h.56l.706 2.197.726-2.207h.44l.725 2.207.705-2.198h.544l-1.03 2.984h-.447zM12.374 62.386l1.812-.193v-11.02l-1.812-.19v-1.186h13.674v3.692H24.73l-.247-2.26h-8.677v4.214h8.457v1.433h-8.457v5.26h9.034l.247-2.257h1.318v3.69h-14.03v-1.184zm13.47 11.626v.43H1.993l-1.747 1.26-.25-.348 1.343-.97c-.19-.067-.357-.19-.476-.358-.32-.448-.22-1.074.227-1.396.177-.127.38-.188.582-.188.31 0 .616.144.81.416.254.353.244.816.01 1.154h23.35zm-23.71-.903c-.182-.256-.538-.315-.793-.13-.253.183-.31.54-.128.795.106.15.28.237.46.237h.184l.15-.107c.254-.184.312-.54.13-.796zm48.295 1.11c0 .835-.643 1.483-1.57 1.483h-1.102V72.74h1.1c.93 0 1.57.638 1.57 1.48zm-2.153 1.01h.582c.62 0 1.025-.42 1.025-1.01 0-.58-.406-1.007-1.026-1.007h-.583v2.016zm5.187.473h-.52V72.74h.52v2.963zm4.71-.915v-2.05h.51v2.965h-.433l-1.63-2.11v2.11h-.51V72.74h.482l1.583 2.048zm4.52-2.1c.516 0 .833.144 1.137.402l-.328.394c-.228-.195-.452-.317-.828-.317-.544 0-.958.478-.958 1.054 0 .61.4 1.06 1.005 1.06.28 0 .533-.09.714-.225V74.5h-.755v-.452h1.256v1.244c-.29.25-.71.462-1.232.462-.924 0-1.532-.66-1.532-1.533 0-.83.633-1.532 1.523-1.532zm8.454 0c.545 0 .874.19 1.157.462l-.334.385c-.235-.22-.488-.368-.826-.368-.566 0-.975.465-.975 1.054 0 .58.408 1.055.974 1.055.363 0 .595-.148.848-.385l.334.34c-.308.32-.646.524-1.2.524-.86 0-1.5-.674-1.5-1.533 0-.842.628-1.532 1.522-1.532zm4.913 0c.91 0 1.542.69 1.542 1.533 0 .835-.642 1.534-1.55 1.534-.906 0-1.54-.69-1.54-1.533 0-.833.642-1.532 1.55-1.532zm0 2.587c.588 0 .998-.47.998-1.054 0-.575-.418-1.053-1.005-1.053s-.996.47-.996 1.054c0 .577.418 1.055 1.004 1.055zm4.502-.85c0 .55.282.846.746.846.46 0 .743-.278.743-.825V72.74h.52v1.68c0 .885-.497 1.33-1.27 1.33-.768 0-1.258-.445-1.258-1.305V72.74h.52v1.684zm3.64-12.287l.246-2.258h1.318v3.69h-14.03v-1.184l1.81-.193v-11.02l-1.81-.19v-1.186h13.673v3.692h-1.32l-.246-2.26h-8.677v4.214h8.457v1.433h-8.457v5.26H84.2zm3.126 11.084h-.937v2.48h-.523v-2.48h-.936v-.483h2.398v.482z" id="path-1" class="cls-2" fill-rule="evenodd"/></svg>