<svg xmlns="http://www.w3.org/2000/svg" preserveAspectRatio="xMidYMid" width="65" height="62" viewBox="0 0 65 62"><defs><style>.cls-2 { fill: #ffffff; }</style></defs><path d="M64.963 16.387c-.082-.787-.298-1.525-.638-2.195-.18-.356-.4-.698-.658-1.017.112-.16.22-.33.32-.506.312-.557.55-1.175.707-1.84.26-1.132.3-2.365.114-3.666-.087-.588-.217-1.17-.39-1.73-.193-.613-.417-1.153-.686-1.65-.164-.298-.33-.558-.512-.792-.184-.235-.42-.51-.778-.756-.204-.14-.41-.24-.63-.304-.282-.082-.6-.09-.862-.034-.075.015-.145.037-.217.06-.04.015-.187.074-.197.085-.02.01-.09.046-.12.063l-.41.224c-1.755.94-3.51 1.725-5.217 2.337-1.704.607-3.406 1.055-5.06 1.332-1.455.248-3.01.38-4.76.406-.367.006-.73.008-1.09.008h-1.202c-.738.01-1.5.022-2.285.178-.468.097-.864.24-1.21.435-.387.217-.742.535-1 .894-.22.305-.398.655-.544 1.07-.108.313-.19.637-.26 1.022-.124.706-.16 1.36-.18 1.853-.008.293-.012.574-.01.854l.006.775c-.01.985-.128 1.843-.352 2.553-.21.68-.532 1.247-.912 1.592-.167.154-.348.268-.53.334-.04.016-.08.026-.125.037l-.114.023-.074.025v-.02.02l-.004-.02H34.943c-.133-.008-.24-.032-.346-.078-.102-.042-.19-.1-.26-.146-.08-.053-.133-.092-.175-.125l-.067-.052c-.232-.177-.583-.14-.775.08-.207.235-.183.597.052.804l.062.056c.042.036.12.102.22.18.1.077.236.18.432.28.218.114.484.194.75.224.07.006.142.013.212.016h.184l.316-.038c.086-.017.175-.037.257-.064.34-.105.68-.295.984-.55.583-.49 1.062-1.226 1.383-2.132.297-.833.474-1.828.528-2.96l.023-.797c.01-.26.02-.526.037-.795.042-.64.106-1.156.203-1.625.13-.628.313-1.084.557-1.397.13-.17.288-.302.482-.406.195-.104.438-.182.72-.232.5-.09 1.084-.102 1.536-.102.144 0 .29 0 .44.003.296.004.598.01.906.017.448.01.907.02 1.375.023l.298.002c1.682 0 3.238-.115 4.757-.35 1.806-.282 3.624-.74 5.403-1.362 1.77-.614 3.62-1.43 5.5-2.428l.38-.205c.003 0 .004.002.006.003.09.06.21.183.325.33.11.145.225.322.335.525.41.76.705 1.7.854 2.714.152 1.05.125 2.033-.083 2.92-.128.552-.332 1.05-.605 1.487-.382-.233-.79-.424-1.21-.57-.64-.228-1.343-.372-2.09-.43l-.762-.03c-.112 0-.2.002-.302.008-.458.028-.86.118-1.227.275-.46.196-.85.497-1.125.87-.316.42-.488.958-.468 1.472.014.525.223 1.053.576 1.448.387.443.868.66 1.202.763.198.064.403.105.643.13.047.006.093.01.146.014.056.003.118.006.146.006l.14.002h.12c.35-.005.67-.025.986-.06.7-.073 1.36-.227 1.96-.454.515-.193.994-.448 1.427-.76.12.163.226.335.32.515.238.462.39.98.455 1.534.124 1.09-.104 2.264-.646 3.304-.55 1.062-1.41 1.91-2.422 2.384-.51.243-1.073.396-1.675.455-.164.016-.33.023-.495.024-.143-.41-.322-.82-.535-1.22-.35-.664-.78-1.306-1.316-1.967-.123-.148-.25-.298-.378-.446l-.4-.435c-.34-.34-.677-.606-1.03-.81-.438-.254-.89-.41-1.34-.462-.526-.066-1.084.027-1.538.265-.518.266-.928.75-1.097 1.29-.163.507-.135 1.1.077 1.627.166.417.423.8.787 1.167.146.144.3.28.49.43l.48.34c1.423.94 2.774 1.54 4.13 1.827.15.032.3.06.45.083.076.556.057 1.096-.055 1.608-.135.618-.407 1.204-.807 1.743-.383.52-.874.986-1.46 1.392-.544.38-1.172.705-1.862.968-1.25.472-2.627.712-4.095.712h-.166c-1.477-.022-2.94-.294-4.35-.81-1.19-.432-2.325-1.036-3.37-1.796-.38-1.17-.738-2.348-1.096-3.522l-.13-.432c-.116-.38-.246-.812-.41-1.22-.17-.43-.364-.835-.58-1.204-.274-.46-.545-.815-.853-1.117-.2-.194-.402-.35-.62-.478-.196-.11-.503-.26-.95-.275-.187 0-.374.037-.538.106-.186.077-.364.206-.502.365-.21.245-.338.54-.394.908-.036.244-.038.488-.003.795.027.224.074.454.145.704.28.967.757 1.77 1.142 2.363.114.174.238.355.362.526l.374.5c.257.33.53.652.806.96.568.63 1.18 1.208 1.815 1.723l.24.187.045.035.09.27c.32.96.588 1.695.862 2.382.373.928.724 1.674 1.105 2.348.227.4.47.776.724 1.12.035.048.076.104.105.14l.306.385c.14.17.285.34.435.502.642.706 1.332 1.295 2.05 1.75.788.503 1.67.87 2.546 1.06.43.093.888.153 1.363.18.224.01.446.016.656.02h.015c-.02.15-.05.3-.093.444-.094.325-.25.64-.462.935-.386.537-.983 1.013-1.728 1.378-.66.323-1.42.563-2.264.715-.777.14-1.6.194-2.428.176-.837-.024-1.65-.13-2.42-.312-.834-.2-1.575-.484-2.202-.842.362-.61.607-1.25.732-1.9.024-.123.04-.245.055-.382l.024-.37c.008-.28-.017-.545-.074-.813-.128-.607-.443-1.135-.888-1.49-.252-.2-.55-.342-.86-.408-.334-.073-.688-.052-1 .057-.317.11-.61.315-.823.578-.19.23-.33.504-.42.818-.075.257-.113.524-.118.818-.003.273.015.524.053.765.08.505.257 1.006.513 1.45.236.413.55.804.936 1.162-.433.46-.94.838-1.476 1.1-.354.175-.72.304-1.088.386-.226.05-.463.084-.705.1l.085-13.517.064-11.428c0-.254.003-.523-.012-.788-.013-.283-.043-.58-.088-.883.174-.276.347-.58.53-.925.312-.598.6-1.237.88-1.96.498-1.293.89-2.645 1.16-4.017.137-.696.24-1.384.305-2.045.07-.715.094-1.408.075-2.06-.006-.168-.013-.348-.025-.52l-.005-.077c-.01-.145-.02-.292-.036-.435-.037-.35-.087-.697-.153-1.028-.146-.757-.36-1.414-.653-2.01-.17-.338-.37-.652-.594-.932-.276-.338-.566-.594-.888-.786-.208-.123-.413-.207-.62-.256C32.8.03 32.734.02 32.667.01c-.056-.006-.09-.01-.172-.01-.047 0-.077-.006-.214.013-.082.01-.15.024-.205.04-.498.128-.844.402-1.09.628-.257.24-.484.52-.697.862-.178.29-.33.595-.463.937-.227.586-.388 1.215-.49 1.92-.086.575-.128 1.18-.132 1.903v.12l.047.976c.007.105.016.212.027.317l.052.457c.147 1.1.39 2.25.74 3.52.292 1.058.64 2.136 1.063 3.296l.29.78c.05.148.1.302.143.456-.198.307-.39.57-.587.804-.206.246-.412.446-.612.595-.106.077-.204.135-.29.17-.038.016-.076.03-.137.045l-.115-.017-.01.024-.065-.006c-.046-.008-.09-.02-.138-.034-.094-.03-.19-.077-.285-.138-.19-.123-.377-.308-.54-.53-.31-.425-.546-.98-.703-1.652-.134-.563-.212-1.222-.232-1.952l-.01-1.09c-.007-.417-.024-.79-.05-1.137-.06-.75-.157-1.555-.452-2.38-.182-.492-.41-.89-.694-1.22-.31-.368-.743-.68-1.215-.875-.378-.158-.79-.263-1.3-.33-.354-.047-.726-.073-1.202-.085-.518-.01-1.025-.006-1.526-.003-.248.003-.494.005-.74.005h-.258c-.742 0-1.362-.015-1.953-.044-1.493-.072-2.967-.258-4.38-.555-2.746-.565-5.603-1.606-8.49-3.092-.346-.18-.677-.352-1.067-.567l-.118-.06c-.093-.048-.196-.087-.303-.118-.21-.06-.445-.076-.664-.047-.45.06-.77.266-.975.417-.21.16-.396.34-.584.568-.147.176-.284.37-.42.59-.22.36-.416.756-.6 1.214-.31.787-.532 1.64-.658 2.53-.125.91-.137 1.8-.036 2.644.118.982.39 1.868.803 2.636.11.21.244.422.394.632C.748 13.9.324 14.803.13 15.78c-.185.926-.178 1.89.022 2.867.196.946.557 1.832 1.07 2.635.527.822 1.22 1.537 2 2.07.802.547 1.736.92 2.7 1.075.26.042.53.07.807.083-.01.105-.018.21-.022.317-.04 1.017.18 2.025.63 2.913.424.848 1.047 1.61 1.852 2.27.704.574 1.53 1.058 2.46 1.436 1.668.676 3.545.976 5.48.893 1.86-.083 3.674-.51 5.388-1.273.398-.177.797-.375 1.19-.593-.223.6-.43 1.113-.64 1.588-.412.92-.8 1.624-1.22 2.212-.51.706-1.08 1.325-1.69 1.84-.652.547-1.354.963-2.085 1.236-.373.138-.767.245-1.17.316-.427.078-.854.11-1.252.137l-.367.027c-.12.012-.244.024-.39.055-.08.016-.174.04-.286.085-.113.048-.26.124-.378.264-.16.14-.252.477-.242.582-.002.087-.002.125 0 .164v.068c.022.546.132 1.063.327 1.537.19.475.472.92.835 1.326.33.368.717.697 1.155.98.756.49 1.628.853 2.666 1.11.883.216 1.823.334 2.795.35l.233.002c.87 0 1.73-.08 2.56-.242 1.012-.197 1.895-.49 2.7-.89.18-.09.355-.187.523-.288.175.194.357.375.543.54.373.327.778.61 1.205.842.768.42 1.642.668 2.538.725l.11 15.13c0 .146.12 1.825.265 1.828h.005c.15 0 .27-1.68.27-1.827l.11-15.127c.347-.018.676-.062 1.002-.134.47-.103.936-.268 1.39-.49.732-.36 1.39-.863 1.962-1.498.03.02.063.04.095.058.755.435 1.602.763 2.588 1 .86.207 1.766.325 2.694.352.92.018 1.84-.04 2.703-.196.98-.177 1.836-.448 2.615-.83.95-.466 1.7-1.07 2.228-1.794.304-.422.526-.874.662-1.344.07-.233.12-.48.15-.735.015-.122.025-.246.03-.383v-.13c.054-.29-.22-.703-.415-.76-.154-.08-.26-.103-.368-.123-.05-.01-.097-.015-.14-.02l-.126-.01c-.11-.006-.21-.008-.308-.01l-.084-.003c-.182-.004-.355-.008-.53-.02-.412-.02-.787-.07-1.15-.152-.73-.16-1.44-.456-2.105-.88-.618-.394-1.214-.906-1.773-1.523-.134-.148-.262-.3-.386-.45l-.28-.357c-.033-.042-.056-.072-.085-.114-.227-.31-.44-.64-.635-.987-.348-.617-.672-1.31-1.02-2.183-.118-.297-.23-.596-.34-.897.693.39 1.41.72 2.136.99 1.544.57 3.165.88 4.82.92.1.003.2.004.3.004 1.606 0 3.125-.26 4.517-.775.806-.298 1.546-.676 2.2-1.123.73-.497 1.344-1.077 1.83-1.724.53-.7.91-1.5 1.1-2.32.137-.59.18-1.217.13-1.864.09-.004.182-.01.273-.017.81-.07 1.576-.27 2.28-.597.706-.325 1.354-.77 1.924-1.326.542-.528 1.004-1.146 1.372-1.837.732-1.374 1.038-2.89.88-4.378zm-4.33-3.144c-.55.284-1.21.472-1.923.55-.254.03-.515.046-.8.05l-.116.002c-.082 0-.15-.003-.212-.01-.095-.01-.18-.026-.252-.05-.25-.076-.398-.22-.404-.397-.01-.18.15-.37.404-.478.157-.068.356-.11.578-.126.047-.003.107-.003.152-.004h.012l.635.022c.713.05 1.36.198 1.927.44zm-8.532 5.933c.12-.066.27-.1.43-.1.042 0 .088.002.135.008.22.022.463.106.702.24.223.127.454.306.684.532l.35.372c.11.126.224.256.335.388.475.575.854 1.125 1.156 1.684.036.066.07.132.104.198-.963-.268-1.97-.74-2.993-1.405l-.387-.267c-.11-.083-.22-.18-.317-.274-.195-.19-.338-.392-.415-.584-.144-.354-.065-.635.22-.792zm-13.637 7.33c-.068-.07-.135-.143-.2-.215-.258-.28-.508-.575-.743-.874l-.35-.464c-.114-.156-.218-.308-.323-.467-.48-.732-.797-1.378-.97-1.975-.102-.358-.14-.68-.105-.91.015-.104.05-.177.067-.187.036 0 .13.024.24.088.11.066.23.16.346.27.212.206.422.484.627.826.176.3.34.64.486 1.01.147.366.262.745.373 1.11l.15.486c.132.434.265.87.4 1.305zm-1.01 12.64l-.017.28c-.01.084-.023.18-.04.27-.084.447-.25.897-.496 1.34-.236-.235-.43-.482-.575-.74-.18-.307-.297-.64-.353-.993-.027-.166-.04-.344-.036-.534.002-.166.024-.33.063-.472.074-.26.218-.442.4-.504.05-.018.103-.026.16-.026.147 0 .305.06.435.164.202.16.35.416.414.726.032.15.047.323.043.488zM32.2 14.606c-.402-1.14-.725-2.194-.992-3.218-.32-1.215-.537-2.316-.667-3.404l-.04-.388c-.008-.088-.013-.175-.018-.26l-.034-.91.003-.11c.013-.655.058-1.218.142-1.723.093-.598.24-1.148.436-1.632.228-.557.522-1.01.85-1.307.174-.16.366-.274.54-.313l.054-.006h.004c.01.003.018.004.027.004l.012-.06.007.044.026-.043.003.067c.074.018.16.056.244.108.176.106.355.272.518.48.158.203.3.434.423.687.227.475.398 1.034.51 1.664.1.538.156 1.152.166 1.824.02 1.16-.112 2.398-.403 3.787-.272 1.282-.656 2.543-1.14 3.75-.178.44-.366.863-.562 1.26l-.106-.3zm-4.69 24.346c.01-.168.042-.332.09-.475.096-.285.275-.513.493-.624.096-.05.198-.078.297-.078.102 0 .196.03.277.085.165.11.286.357.325.666.01.08.017.165.018.255l-.007.27c-.013.174-.043.354-.09.532-.09.345-.246.673-.46.975-.116.16-.25.317-.4.467-.28-.51-.46-1.04-.525-1.553-.01-.083-.018-.166-.02-.25l-.003-.132c0-.054.002-.1.005-.136zm2.043 2.392c.31-.43.54-.92.67-1.42.066-.26.11-.522.127-.784l.003-.052c.003-.052.006-.106.006-.18 0-.045.002-.102 0-.155-.002-.134-.012-.27-.03-.41-.043-.312-.13-.598-.258-.85-.156-.31-.38-.57-.65-.75-.287-.197-.638-.31-1.032-.316-.315 0-.633.08-.92.23-.523.275-.94.78-1.14 1.388-.09.26-.14.53-.16.825-.005.078-.007.143-.007.194 0 .054 0 .1.002.146l.002.055c.002.12.015.237.033.393.097.737.357 1.466.773 2.172-.106.06-.213.118-.322.173-.68.34-1.472.598-2.348.768-.738.142-1.507.214-2.286.214l-.226-.002c-.87-.016-1.71-.123-2.49-.315-.874-.217-1.628-.53-2.245-.933-.7-.454-1.206-1.03-1.462-1.67-.107-.26-.176-.546-.206-.85.086-.01.18-.016.274-.022l.082-.005c.39-.024.903-.063 1.404-.153.486-.085.96-.214 1.41-.38.88-.325 1.72-.82 2.497-1.472.698-.586 1.346-1.288 1.926-2.086.62-.865 1.057-1.77 1.37-2.462.322-.728.64-1.537.992-2.546.104-.296.205-.593.304-.89.506-.39.992-.814 1.446-1.262.326-.32.645-.663.947-1.016.15-.176.296-.353.443-.538.058-.073.11-.14.162-.21l.256-.342c.296-.405.547-.79.77-1.18.264-.46.468-.89.623-1.312.142-.393.307-.924.314-1.546-.002-.253-.026-.59-.194-.953-.093-.2-.22-.37-.373-.502-.173-.15-.392-.26-.617-.305-.2-.04-.422-.037-.613 0-.16.032-.32.086-.49.167-.253.127-.487.292-.714.505-.343.323-.64.71-.938 1.218-.23.395-.43.825-.615 1.315-.084.218-.163.46-.23.67l-.98 3.194c-.124.39-.247.776-.373 1.16-.807.59-1.663 1.08-2.542 1.466-1.536.676-3.216 1.066-4.858 1.128-1.7.058-3.402-.217-4.847-.813-.786-.326-1.48-.736-2.06-1.218-.637-.527-1.12-1.124-1.438-1.776-.327-.66-.483-1.406-.448-2.16.006-.152.02-.307.044-.47.156-.023.31-.05.463-.084.85-.18 1.732-.498 2.616-.944.394-.2.783-.42 1.19-.678l.097-.063c.066-.04.13-.082.19-.12l.283-.193c.22-.154.413-.312.594-.484.46-.436.765-.894.937-1.4.107-.312.15-.645.127-.963-.027-.35-.136-.69-.315-.98-.34-.564-.952-.96-1.632-1.06-.563-.09-1.153 0-1.724.254-.457.203-.882.496-1.3.895-.156.15-.285.293-.415.437l-.07.08c-.153.172-.3.346-.445.526-.646.804-1.135 1.577-1.496 2.364-.12.258-.227.522-.318.785-.307 0-.61-.027-.896-.075-.714-.12-1.404-.4-1.997-.81-1.158-.796-2.02-2.147-2.31-3.615-.146-.728-.148-1.47-.007-2.15.128-.62.384-1.194.744-1.67.086.063.172.123.26.18.748.487 1.633.818 2.632.983.433.072.877.113 1.357.125l.21.003h.122c.133 0 .27-.012.412-.027.31-.04.588-.114.847-.227.307-.133.575-.316.8-.543.246-.25.433-.553.54-.878.113-.336.143-.697.09-1.046-.05-.336-.18-.666-.378-.954-.18-.262-.418-.496-.692-.677-.244-.163-.516-.29-.807-.375-.247-.075-.51-.123-.807-.145-.062-.005-.14-.008-.204-.01l-.05-.002-.197.002c-.092 0-.183.002-.272.007-.99.034-1.91.217-2.736.543-.34.134-.67.3-.988.498-.063-.093-.12-.19-.172-.287-.303-.56-.502-1.223-.594-1.97-.082-.685-.07-1.412.033-2.162.102-.738.284-1.443.542-2.094.137-.35.29-.66.453-.925.173-.282.37-.52.53-.64l.057-.04.034.018c.343.187.71.38 1.065.56 3.044 1.553 6.063 2.64 8.972 3.23 1.505.305 3.076.494 4.667.56.523.022 1.08.033 1.7.033.202 0 .403 0 .604-.002l.716-.01c.51-.007 1.014-.017 1.5-.007.638.013 1.36.053 1.867.262.24.1.423.225.574.4.15.165.28.395.388.68.182.49.3 1.096.368 1.913.03.343.046.69.057 1.037l.02 1.084c.012.377.04.756.09 1.16.053.416.122.794.213 1.156.227.9.555 1.63 1.005 2.234.286.383.618.695.985.928.215.134.44.24.667.31.122.038.248.067.378.087l.05.007c.05.006.1.01.158.015l.136.005c.023 0 .05 0 .08-.002.043-.003.094-.004.185-.018.092-.01.16-.026.227-.042.117-.03.237-.07.378-.13.206-.09.404-.21.61-.363.2-.152.387-.32.578-.524.003.14.003.283.004.43l.15 24.886c-.675-.056-1.31-.246-1.894-.564-.34-.185-.66-.41-.956-.67-.12-.105-.236-.22-.35-.34.27-.25.5-.508.696-.786zM26.52 26.46l.654-2.124c.068-.216.13-.398.205-.595.153-.407.326-.777.515-1.1.215-.372.445-.673.682-.894.12-.113.248-.205.366-.265.086-.04.154-.052.182-.052v.02c.026.055.056.177.055.34-.003.297-.082.66-.23 1.055-.248.667-.644 1.368-1.207 2.14l-.218.292c-.057.074-.114.15-.17.22-.13.16-.266.325-.405.486-.14.162-.283.322-.43.48zm-15.955-6.262l.04-.045c.124-.135.25-.273.367-.383.27-.255.557-.452.83-.57.212-.09.43-.14.626-.14.06 0 .12.005.18.014.21.035.392.145.48.296.09.15.1.34.025.55-.077.23-.257.48-.506.712-.117.11-.255.22-.41.327l-.116.075-.387.25c-.36.224-.715.422-1.053.59-.578.284-1.15.506-1.71.66.304-.616.71-1.23 1.236-1.873.13-.158.263-.313.4-.464zm-3.682-7.663v.194l.205.006c.155.013.294.038.413.074.227.067.408.186.502.326.08.115.1.243.06.36-.043.127-.156.235-.322.305-.092.04-.21.07-.333.086-.063.007-.126.013-.228.014l-.258-.004c-.176-.005-.366-.017-.546-.033-.182-.017-.36-.04-.54-.07-.61-.103-1.156-.284-1.642-.55.082-.037.164-.072.246-.103.622-.243 1.34-.38 2.132-.405.064-.003.13-.004.193-.005h.092l.026-.195zm28.33 5.687z" id="path-1" class="cls-2" fill-rule="evenodd"/></svg>