<svg xmlns="http://www.w3.org/2000/svg" preserveAspectRatio="xMidYMid" width="186" height="45" viewBox="0 0 186 45"><defs><style>.cls-2 { fill: #9aaab7; }</style></defs><path d="M183.575 41.52c.34.12.643.343.86.643.578.803.394 1.927-.41 2.504-.318.228-.685.337-1.05.337-.558 0-1.11-.26-1.46-.746-.457-.632-.44-1.464-.02-2.07h-18.17v-.772h19.07l3.15-2.26.452.625-2.422 1.74zm-.6.668h-.33l-.27.192c-.46.33-.563.97-.234 1.428.33.458.973.562 1.432.233.46-.328.564-.97.234-1.427-.192-.266-.503-.425-.832-.425zm-7.444-19.61l3.368-.342V3.06h-.445L168.5 24.7h-3.617L154.83 3.06h-.445v19.17l3.418.347V24.7h-9.51v-2.123l3.27-.346V2.615l-3.27-.494V-.005h8.32l10.152 21.89 10.102-21.89h8.172V2.17l-3.27.444V22.23l3.27.347V24.7h-9.51v-2.123zM146.437 44.47l-1.324-1.853h-1.158v1.852h-.936v-5.317h2.375c1.25 0 1.98.67 1.98 1.694 0 .873-.526 1.396-1.272 1.61l1.44 2.012h-1.104zm-.015-3.585c0-.57-.41-.88-1.103-.88h-1.363v1.784h1.37c.67 0 1.097-.35 1.097-.903zm-10.33 3.668c-1.385 0-2.268-.797-2.268-2.34v-3.06h.936v3.023c0 .987.51 1.52 1.347 1.52.83 0 1.34-.502 1.34-1.482v-3.06h.936v3.014c0 1.588-.897 2.385-2.29 2.385zm-8.214-.083h-.944v-4.45h-1.69v-.867h4.323v.866h-1.69v4.452zM99.448 22.577l3.268-.346V2.467l-3.268-.346V-.005h24.66v6.622h-2.376l-.445-4.052h-15.65v7.56h15.254v2.57H105.64v9.437h16.293l.446-4.052h2.377v6.62H99.448v-2.123zm.937 16.487c.982 0 1.576.342 2.086.828l-.6.69c-.427-.394-.883-.66-1.493-.66-1.02 0-1.758.836-1.758 1.892 0 1.04.738 1.89 1.757 1.89.655 0 1.074-.265 1.53-.69l.602.607c-.557.58-1.166.943-2.163.943-1.553 0-2.71-1.208-2.71-2.75 0-1.51 1.135-2.75 2.748-2.75zm-15.23 5.5c-1.667 0-2.763-1.186-2.763-2.75 0-1.49 1.142-2.75 2.748-2.75.93 0 1.5.258 2.048.722l-.594.706c-.41-.35-.814-.57-1.492-.57-.982 0-1.728.858-1.728 1.892 0 1.094.724 1.9 1.812 1.9.503 0 .96-.16 1.286-.404v-.995H85.11v-.813h2.268v2.233c-.525.448-1.28.828-2.222.828zM64.334 24.7H51.21v-2.123l3.268-.346V2.466L51.21 2.12V-.005h13.123C68.74-.005 78.2 1.573 78.2 12.25S68.937 24.7 64.332 24.7zm0-22.135H57.4v19.567h7.478c3.516 0 10.3-1.51 10.3-9.883 0-8.372-7.13-9.685-10.845-9.685zm-10.62 39.25c0 1.495-1.156 2.657-2.83 2.657h-1.987v-5.317h1.986c1.675 0 2.832 1.147 2.832 2.66zm-2.83-1.81h-1.05v3.616h1.05c1.118 0 1.85-.75 1.85-1.806 0-1.04-.732-1.81-1.85-1.81zm-10.438-.85h3.95v.836h-3.014v1.383h2.673v.836H41.38v1.427h3.054v.835h-3.99v-5.317zM33.47 44.51l-1.31-3.82-1.307 3.82h-.807l-1.858-5.355H29.2l1.272 3.942 1.31-3.957h.79l1.31 3.957 1.27-3.942h.983l-1.858 5.355h-.807zM2.364 22.577l3.268-.346V2.467L2.364 2.12V-.005h24.66v6.622H24.65l-.445-4.052H8.553v7.56h15.253v2.57H8.554v9.437h16.292l.445-4.052h2.38v6.62H2.363v-2.123zm.65 16.046c.56 0 1.112.258 1.463.746.456.63.438 1.462.018 2.07h18.17v.77H3.596l-3.15 2.262-.452-.627 2.423-1.738c-.34-.12-.643-.343-.86-.643-.578-.803-.394-1.927.41-2.505.318-.228.685-.337 1.048-.337zm-.83 2.39c.192.267.504.426.832.426h.33l.27-.193c.458-.33.563-.97.233-1.428-.33-.46-.973-.563-1.432-.234-.46.33-.564.97-.234 1.428zm60.833.8c0 1.497-1.157 2.66-2.832 2.66H58.2v-5.318h1.985c1.675 0 2.832 1.147 2.832 2.66zm-3.882 1.808h1.05c1.12 0 1.85-.75 1.85-1.806 0-1.04-.73-1.81-1.85-1.81h-1.05v3.617zm9.356.852h-.936v-5.317h.937v5.317zm8.497-1.64v-3.677h.92v5.317h-.783l-2.94-3.783v3.782h-.92v-5.317h.868l2.855 3.676zm32.26-3.768c1.636 0 2.778 1.238 2.778 2.75 0 1.496-1.157 2.75-2.793 2.75-1.637 0-2.78-1.24-2.78-2.75 0-1.497 1.158-2.75 2.794-2.75zm0 4.64c1.058 0 1.796-.842 1.796-1.89 0-1.034-.754-1.892-1.81-1.892-1.06 0-1.798.843-1.798 1.892 0 1.033.754 1.89 1.81 1.89zm8.115-1.526c0 .987.51 1.52 1.348 1.52.83 0 1.34-.502 1.34-1.482v-3.06h.936v3.014c0 1.588-.898 2.385-2.292 2.385-1.385 0-2.268-.797-2.268-2.34v-3.06h.936v3.023zm38.46-2.187h-3.014v1.383h2.672v.836h-2.672v1.427h3.053v.835h-3.988v-5.317h3.95v.836z" id="path-1" class="cls-2" fill-rule="evenodd"/></svg>