<svg xmlns="http://www.w3.org/2000/svg" preserveAspectRatio="xMidYMid" width="237" height="136" viewBox="0 0 237 136"><defs><style>.cls-2 { fill: #ffffff; }</style></defs><path d="M234.604 132.523c.337.12.635.343.85.642.57.8.39 1.922-.406 2.498-.314.227-.676.337-1.036.337-.552 0-1.098-.26-1.444-.745-.45-.63-.434-1.46-.018-2.065h-41.61v-.77h42.498l3.114-2.256.446.625-2.394 1.733zm-.594.667h-.326l-.265.192c-.455.328-.558.967-.232 1.424.326.457.96.56 1.413.233.455-.33.56-.97.232-1.426-.19-.266-.497-.424-.822-.424zm-27.067-21.55l3.326-.34V92.166h-.44l-9.835 21.59h-3.572l-9.932-21.59h-.44v19.127l3.377.345v2.118h-9.395v-2.12l3.23-.344v-19.57l-3.23-.494v-2.12h8.22l10.03 21.84 9.98-21.84h8.075v2.17l-3.23.443v19.57l3.23.346v2.118h-9.394v-2.12zm-25.387 19.358h-2.978v1.38h2.64v.833h-2.64v1.425h3.016v.833h-3.94v-5.304h3.902v.834zm-9.274 4.47l-1.308-1.848h-1.144v1.848h-.925v-5.304h2.347c1.233 0 1.955.667 1.955 1.69 0 .872-.52 1.394-1.256 1.606l1.422 2.008h-1.09zm-.015-3.576c0-.568-.406-.88-1.09-.88h-1.347v1.782h1.354c.662 0 1.083-.35 1.083-.902zm-10.206 3.66c-1.368 0-2.24-.796-2.24-2.334v-3.054h.924v3.016c0 .985.504 1.516 1.33 1.516.82 0 1.325-.5 1.325-1.478v-3.054h.924v3.008c0 1.584-.887 2.38-2.263 2.38zM157.496 28.82c-.722.707-1.542 1.277-2.437 1.69-.89.418-1.864.674-2.888.76-.115.012-.23.02-.346.024.065.824.01 1.622-.166 2.376-.24 1.044-.722 2.066-1.392 2.958-.616.824-1.396 1.564-2.318 2.196-.83.57-1.767 1.052-2.788 1.433-1.763.655-3.688.987-5.72.987-.128 0-.255 0-.382-.004-2.097-.05-4.15-.446-6.107-1.176-.92-.34-1.827-.764-2.706-1.26.14.384.282.765.433 1.143.44 1.113.85 1.997 1.29 2.784.247.442.517.865.805 1.258.037.054.066.092.108.145l.356.456c.157.19.32.384.49.57.707.787 1.462 1.44 2.244 1.942.84.54 1.74.92 2.666 1.122.46.103.936.167 1.457.195.222.013.44.02.672.024l.106.003c.126.003.253.006.392.013l.158.014c.056.005.114.012.18.024.134.026.27.053.465.158.248.072.595.598.527.97v.164c-.007.174-.02.332-.038.488-.04.326-.104.64-.19.938-.174.6-.455 1.175-.84 1.712-.668.923-1.617 1.693-2.822 2.288-.988.487-2.072.833-3.314 1.058-1.092.198-2.258.273-3.424.25-1.176-.035-2.324-.185-3.413-.447-1.248-.304-2.32-.722-3.277-1.277-.042-.024-.082-.048-.123-.074-.723.81-1.558 1.452-2.486 1.91-.574.283-1.166.493-1.76.624-.413.092-.83.148-1.27.17l-.138 19.288c0 .188-.154 2.33-.343 2.33h-.004c-.187-.005-.338-2.145-.338-2.332l-.14-19.29c-1.134-.073-2.24-.39-3.214-.925-.54-.295-1.054-.655-1.527-1.07-.235-.212-.465-.444-.686-.69-.213.128-.435.25-.662.365-1.02.513-2.138.885-3.42 1.136-1.05.206-2.142.31-3.244.31l-.295-.002c-1.232-.022-2.423-.172-3.54-.447-1.315-.326-2.42-.79-3.378-1.414-.554-.36-1.046-.78-1.463-1.25-.46-.515-.815-1.084-1.058-1.69-.247-.603-.386-1.263-.413-1.96v-.085c-.002-.05-.003-.097 0-.208-.012-.135.103-.563.305-.743.15-.18.336-.275.48-.337.14-.058.26-.088.363-.11.183-.038.34-.053.493-.068l.466-.035c.506-.033 1.046-.075 1.588-.174.51-.09 1.008-.227 1.48-.404.928-.347 1.816-.877 2.643-1.577.773-.654 1.493-1.444 2.142-2.345.53-.748 1.02-1.644 1.543-2.82.268-.605.53-1.26.81-2.024-.497.277-1.002.53-1.507.756-2.17.97-4.467 1.517-6.824 1.622-2.453.106-4.83-.277-6.946-1.138-1.175-.482-2.223-1.1-3.115-1.833-1.018-.84-1.807-1.812-2.343-2.893-.573-1.132-.85-2.416-.8-3.714.005-.135.014-.27.027-.403-.352-.017-.695-.053-1.022-.106-1.222-.2-2.405-.673-3.42-1.37-.99-.68-1.867-1.593-2.533-2.64-.653-1.023-1.11-2.153-1.36-3.36-.253-1.244-.26-2.474-.026-3.654.247-1.246.782-2.397 1.55-3.333-.19-.268-.358-.538-.5-.806-.525-.98-.868-2.11-1.018-3.362-.128-1.074-.112-2.208.046-3.37.16-1.136.44-2.22.835-3.225.232-.584.48-1.09.758-1.547.173-.282.346-.53.53-.754.24-.292.474-.522.74-.724.26-.192.667-.454 1.237-.532.277-.036.575-.016.84.06.136.04.267.09.384.15.083.042.116.06.15.08.494.273.913.494 1.35.722 3.66 1.894 7.28 3.222 10.756 3.943 1.792.38 3.66.616 5.552.707.75.038 1.535.057 2.474.057l.327-.002c.312 0 .624-.003.938-.006.634-.005 1.276-.01 1.933.003.603.015 1.074.05 1.525.108.644.086 1.166.22 1.647.42.598.25 1.145.648 1.54 1.118.36.42.648.928.88 1.555.372 1.052.495 2.08.57 3.035.034.443.055.917.065 1.45l.012 1.388c.026.93.125 1.77.294 2.49.2.856.5 1.564.89 2.104.208.285.444.52.685.677.12.077.24.136.36.175.06.02.118.034.176.044l.08.008.014-.03.147.02c.08-.02.126-.037.174-.056.11-.045.234-.12.368-.218.253-.19.515-.445.776-.76.25-.296.493-.632.744-1.024-.055-.195-.116-.39-.18-.58l-.368-.995c-.537-1.48-.977-2.853-1.347-4.203-.445-1.617-.752-3.086-.937-4.487l-.068-.582c-.014-.135-.025-.27-.034-.406l-.06-1.243V8.04c.006-.922.06-1.693.167-2.425.13-.9.333-1.702.62-2.45.172-.437.363-.827.588-1.195.27-.435.558-.795.882-1.1.313-.286.75-.635 1.382-.8.07-.02.155-.037.26-.05.173-.024.21-.015.27-.015.104 0 .148.004.218.013.086.01.17.023.245.042.264.062.524.17.787.325.407.245.775.572 1.125 1.002.286.357.54.758.752 1.19.372.758.643 1.595.828 2.56.083.423.147.864.192 1.312.02.18.033.368.046.554l.007.098c.014.22.024.45.03.664.026.83-.006 1.714-.095 2.626-.083.843-.213 1.72-.386 2.607-.345 1.748-.84 3.472-1.47 5.122-.356.92-.72 1.735-1.114 2.496-.232.442-.453.828-.672 1.18.057.386.094.764.11 1.125.02.34.018.68.016 1.005l-.08 14.57-.11 17.235c.308-.022.608-.065.894-.128.467-.104.93-.27 1.38-.493.678-.333 1.32-.815 1.87-1.4-.49-.458-.888-.956-1.188-1.484-.323-.564-.547-1.204-.648-1.848-.05-.307-.072-.627-.068-.975.007-.374.055-.715.148-1.043.115-.4.294-.75.533-1.043.27-.337.64-.6 1.043-.737.394-.14.842-.167 1.267-.074.393.084.77.266 1.09.522.562.45.96 1.124 1.123 1.898.073.34.104.68.094 1.034l-.03.474c-.02.174-.04.33-.07.49-.158.827-.47 1.64-.928 2.42.795.455 1.734.816 2.79 1.072.974.233 2.006.368 3.066.398 1.05.024 2.09-.045 3.076-.224 1.07-.194 2.033-.5 2.868-.91.944-.467 1.7-1.074 2.19-1.76.27-.375.465-.776.585-1.192.055-.185.095-.375.12-.566h-.02c-.265-.006-.546-.01-.83-.027-.603-.034-1.185-.11-1.728-.23-1.11-.242-2.227-.71-3.224-1.35-.91-.58-1.785-1.33-2.597-2.232-.19-.207-.372-.42-.55-.64l-.387-.492c-.037-.045-.09-.116-.133-.178-.32-.437-.63-.918-.917-1.426-.483-.86-.927-1.81-1.4-2.995-.347-.876-.685-1.812-1.093-3.035l-.113-.346-.058-.044c-.102-.08-.204-.157-.303-.238-.806-.658-1.58-1.396-2.3-2.197-.35-.392-.695-.805-1.02-1.225l-.474-.637c-.157-.218-.314-.448-.46-.67-.487-.756-1.09-1.78-1.446-3.013-.09-.32-.15-.612-.183-.896-.045-.39-.043-.703.004-1.014.072-.467.234-.845.5-1.158.174-.202.4-.366.636-.464.207-.088.444-.136.682-.136.566.02.955.21 1.203.35.274.164.53.363.785.61.39.386.733.84 1.08 1.426.274.47.52.986.734 1.536.208.52.373 1.07.518 1.554l.167.55c.453 1.498.907 2.998 1.386 4.49 1.327.97 2.763 1.74 4.272 2.292 1.785.657 3.64 1.003 5.51 1.03h.212c1.86 0 3.606-.304 5.19-.906.873-.336 1.668-.75 2.36-1.235.74-.516 1.362-1.11 1.847-1.772.507-.687.852-1.434 1.023-2.222.143-.652.166-1.34.07-2.05-.19-.03-.382-.065-.568-.106-1.72-.367-3.43-1.13-5.233-2.33l-.61-.435c-.24-.19-.435-.362-.618-.547-.462-.47-.788-.957-.997-1.488-.27-.672-.305-1.428-.1-2.073.215-.69.735-1.307 1.39-1.646.577-.303 1.283-.42 1.95-.337.57.068 1.143.266 1.697.59.447.26.875.597 1.306 1.032l.506.554c.164.188.323.38.478.57.68.84 1.224 1.66 1.667 2.506.27.51.497 1.033.678 1.556.21 0 .42-.01.628-.03.762-.076 1.477-.27 2.122-.58 1.282-.606 2.37-1.685 3.068-3.04.688-1.325.976-2.82.818-4.21-.08-.71-.275-1.37-.577-1.96-.117-.228-.252-.447-.404-.654-.55.397-1.155.722-1.806.968-.76.29-1.598.485-2.486.58-.4.043-.805.068-1.246.074H151.123c-.035 0-.114-.005-.185-.01-.067-.003-.125-.01-.185-.017-.304-.032-.564-.085-.814-.165-.425-.133-1.033-.41-1.524-.973-.447-.504-.712-1.178-.73-1.847-.025-.655.193-1.34.593-1.878.348-.475.843-.857 1.426-1.108.466-.2.974-.315 1.553-.35.13-.01.24-.01.383-.01l.964.038c.947.074 1.837.257 2.65.547.532.187 1.048.43 1.532.726.345-.556.603-1.192.765-1.894.264-1.133.298-2.386.104-3.725-.19-1.294-.563-2.49-1.083-3.46-.14-.26-.283-.485-.426-.67-.143-.187-.295-.344-.41-.42l-.006-.005-.484.262c-2.38 1.272-4.724 2.313-6.967 3.095-2.254.794-4.557 1.378-6.846 1.736-1.923.3-3.894.447-6.026.447l-.377-.002c-.593-.004-1.175-.016-1.742-.03-.39-.008-.773-.017-1.148-.022-.188 0-.374-.003-.557-.003-.573 0-1.312.014-1.944.13-.358.064-.665.163-.913.295-.246.133-.446.302-.61.518-.31.4-.54.98-.706 1.78-.122.6-.204 1.258-.257 2.072-.02.344-.034.684-.046 1.015l-.03 1.015c-.067 1.444-.29 2.713-.667 3.775-.407 1.155-1.013 2.095-1.753 2.717-.385.326-.816.57-1.247.7-.104.036-.217.062-.325.083l-.4.048-.084.002H122.45c-.088-.003-.18-.012-.266-.02-.34-.04-.676-.14-.952-.286-.25-.127-.422-.26-.548-.356-.126-.1-.224-.184-.277-.23l-.08-.072c-.298-.264-.327-.725-.066-1.027.245-.278.69-.324.983-.1l.085.066c.054.042.12.092.22.16.09.058.202.13.33.186.136.06.27.09.44.098l.106.002.075-.002.002.026V23v.027l.094-.032.145-.028c.06-.015.11-.027.16-.048.23-.084.46-.23.67-.427.482-.44.892-1.16 1.157-2.03.284-.904.433-1.998.445-3.254l-.008-.99c-.002-.357.003-.716.015-1.09.022-.627.07-1.462.225-2.362.09-.49.193-.904.33-1.302.183-.53.41-.976.69-1.363.325-.458.775-.863 1.265-1.14.438-.25.94-.43 1.533-.554.994-.2 1.96-.215 2.894-.228l1.126-.002h.395c.46 0 .92 0 1.385-.01 2.213-.03 4.185-.2 6.03-.518 2.094-.353 4.25-.924 6.408-1.698 2.165-.78 4.387-1.783 6.608-2.98l.52-.284c.04-.023.127-.07.154-.082.012-.013.198-.09.25-.107.09-.03.18-.057.274-.076.33-.07.735-.06 1.09.044.28.082.542.208.8.387.453.314.753.664.986.963.23.3.44.63.65 1.012.34.632.623 1.32.867 2.102.22.714.384 1.456.494 2.205.235 1.66.187 3.23-.144 4.674-.2.85-.5 1.638-.896 2.347-.127.223-.263.44-.406.644.327.408.606.843.834 1.298.43.853.704 1.795.808 2.798.198 1.9-.19 3.83-1.116 5.582-.466.88-1.052 1.668-1.74 2.34zm-44.597 21.188c.002.106.014.212.025.318.082.656.31 1.33.666 1.98.19-.19.36-.39.504-.595.273-.384.47-.802.585-1.242.058-.227.096-.456.112-.678l.01-.343c-.002-.115-.01-.223-.024-.325-.05-.394-.202-.71-.412-.85-.102-.07-.22-.107-.35-.107-.125 0-.255.033-.376.098-.277.143-.503.433-.623.797-.063.182-.102.39-.117.605-.003.047-.005.105-.006.173l.004.17zm4.835-25.892c-.26.195-.51.346-.772.462-.178.077-.33.13-.478.165-.085.022-.17.042-.29.055-.113.017-.178.02-.232.022l-.103.003-.17-.006c-.074-.005-.14-.012-.2-.02l-.065-.007c-.164-.026-.324-.062-.478-.112-.29-.09-.574-.223-.845-.394-.467-.297-.887-.695-1.25-1.184-.57-.77-.984-1.702-1.27-2.848-.117-.462-.204-.943-.27-1.473-.063-.517-.1-1-.116-1.48l-.025-1.382c-.015-.442-.035-.885-.073-1.323-.087-1.04-.235-1.815-.466-2.437-.137-.366-.302-.658-.49-.87-.19-.22-.42-.382-.726-.51-.643-.265-1.558-.316-2.367-.332-.615-.01-1.254 0-1.9.01l-.907.012c-.254.004-.51.004-.765.004-.787 0-1.49-.013-2.155-.042-2.015-.085-4.005-.325-5.913-.715-3.685-.752-7.51-2.136-11.367-4.116-.45-.232-.914-.477-1.35-.716l-.043-.022c-.017.012-.043.028-.072.05-.203.152-.452.456-.67.817-.208.338-.4.733-.577 1.178-.326.83-.557 1.73-.686 2.672-.132.956-.145 1.884-.04 2.755.114.954.367 1.8.75 2.513.067.124.14.246.217.367.4-.25.822-.464 1.25-.634 1.046-.415 2.212-.65 3.468-.694.112-.006.228-.008.344-.008l.248-.002.065.002c.082.003.18.007.258.013.376.03.71.09 1.022.186.37.11.714.27 1.024.478.345.23.648.53.875.863.25.368.415.79.48 1.218.066.444.028.904-.115 1.33-.136.416-.373.803-.686 1.12-.283.29-.624.523-1.014.692-.327.143-.678.24-1.073.29-.178.018-.353.033-.523.033h-.153l-.266-.003c-.608-.016-1.17-.068-1.72-.16-1.266-.21-2.388-.632-3.335-1.253-.113-.073-.222-.15-.33-.23-.456.607-.78 1.338-.943 2.13-.18.865-.176 1.812.007 2.74.368 1.872 1.462 3.596 2.928 4.61.75.522 1.625.88 2.53 1.032.363.062.745.095 1.134.096.116-.336.25-.672.402-1 .457-1.005 1.077-1.99 1.895-3.014.183-.23.37-.452.562-.67l.09-.103c.166-.184.33-.367.53-.56.528-.508 1.066-.88 1.644-1.14.723-.325 1.47-.44 2.184-.325.862.13 1.636.634 2.067 1.35.228.372.367.805.4 1.252.03.405-.025.83-.16 1.23-.217.644-.605 1.228-1.186 1.783-.23.22-.475.42-.753.617l-.357.244c-.075.05-.158.104-.24.156l-.124.08c-.517.328-1.01.61-1.51.865-1.12.568-2.235.974-3.314 1.204-.193.042-.39.078-.585.108-.03.208-.048.406-.056.6-.043.96.154 1.912.568 2.752.404.83 1.016 1.592 1.822 2.263.736.615 1.614 1.138 2.61 1.553 1.83.76 3.986 1.112 6.14 1.037 2.08-.08 4.21-.576 6.155-1.438 1.113-.49 2.197-1.12 3.22-1.867.16-.492.316-.986.47-1.48l1.244-4.072c.084-.268.185-.578.29-.856.234-.624.49-1.172.78-1.676.377-.648.755-1.14 1.19-1.552.286-.273.583-.483.903-.644.216-.104.417-.173.62-.212.243-.048.524-.054.778-.002.285.06.562.197.78.39.196.17.356.384.474.638.212.463.242.893.245 1.216-.01.792-.22 1.47-.4 1.97-.195.54-.453 1.085-.788 1.672-.282.497-.6.99-.974 1.506l-.324.437-.206.266c-.186.235-.37.46-.563.685-.382.45-.786.887-1.2 1.296-.574.57-1.19 1.11-1.83 1.61-.126.378-.254.756-.386 1.133-.447 1.287-.848 2.318-1.258 3.247-.395.882-.948 2.036-1.735 3.14-.734 1.016-1.555 1.91-2.44 2.66-.984.83-2.05 1.46-3.164 1.875-.568.212-1.17.376-1.785.485-.634.114-1.283.163-1.777.194l-.103.007c-.12.01-.24.017-.348.027.04.39.125.754.26 1.087.325.814.966 1.55 1.853 2.128.782.513 1.738.913 2.844 1.19.99.245 2.052.38 3.154.4l.287.004c.988 0 1.962-.092 2.896-.272 1.11-.217 2.113-.547 2.977-.98.138-.07.274-.142.408-.22-.527-.9-.856-1.83-.98-2.77-.02-.198-.038-.347-.04-.5l-.002-.07c-.002-.06-.004-.117-.003-.186 0-.065.003-.148.008-.247.024-.376.09-.72.203-1.05.255-.775.782-1.42 1.444-1.77.364-.19.767-.294 1.166-.294.5.01.943.15 1.308.402.34.23.625.563.823.957.163.322.273.686.327 1.083.023.177.035.352.038.524.002.068 0 .14 0 .198-.002.094-.006.162-.01.228l-.002.067c-.024.334-.08.668-.163 1-.164.635-.456 1.26-.847 1.81-.25.354-.54.684-.88 1 .142.156.29.3.44.436.374.33.782.62 1.213.854.738.406 1.544.647 2.398.72l-.188-31.727c0-.19 0-.37-.005-.55-.243.26-.48.474-.734.67zm-34.37-7.228c.614.338 1.306.57 2.08.7.226.038.453.07.684.09.227.02.468.036.69.042l.326.005c.13 0 .21-.01.29-.018.157-.02.305-.057.422-.108.21-.09.353-.227.406-.388.052-.15.026-.314-.073-.46-.12-.18-.35-.33-.635-.416-.152-.047-.327-.078-.524-.094l-.26-.01v-.247l-.033.248h-.115c-.082.002-.164.003-.245.007-1.005.033-1.913.207-2.702.516-.104.04-.208.084-.31.132zm6 11.846c.708-.196 1.434-.48 2.166-.843.427-.212.876-.464 1.332-.75l.492-.317c.062-.04.1-.066.145-.098.198-.138.372-.278.52-.417.316-.294.544-.616.642-.907.094-.27.082-.51-.032-.7-.112-.193-.34-.334-.61-.378-.074-.012-.15-.018-.226-.018-.25 0-.525.062-.793.18-.345.15-.708.4-1.05.726-.15.14-.308.316-.465.487l-.05.058c-.174.192-.343.39-.507.592-.667.82-1.18 1.602-1.566 2.387zm22.282 5.003c.188-.2.37-.404.547-.61.175-.204.348-.414.512-.62.07-.09.144-.185.216-.28l.276-.37c.713-.986 1.215-1.88 1.53-2.73.187-.502.287-.966.29-1.343.002-.21-.035-.365-.068-.434v-.027c-.036 0-.123.014-.23.068-.15.077-.313.194-.465.34-.3.28-.59.664-.865 1.137-.238.413-.458.885-.653 1.404-.095.253-.173.485-.26.76l-.83 2.707zm8.042-16.334c.614-1.54 1.1-3.147 1.445-4.78.368-1.77.537-3.35.512-4.83-.013-.857-.083-1.64-.21-2.325-.142-.803-.36-1.516-.647-2.122-.154-.322-.335-.616-.535-.876-.206-.264-.433-.476-.657-.612-.107-.065-.214-.114-.307-.136l-.004-.087-.033.055-.008-.057-.015.076c-.012 0-.024-.002-.035-.004h-.004l-.067.006c-.222.05-.465.197-.685.4-.416.38-.788.956-1.077 1.667-.247.617-.434 1.317-.553 2.08-.105.644-.163 1.362-.178 2.196l-.003.14.042 1.16c.007.11.014.22.024.332l.05.494c.166 1.388.44 2.792.846 4.34.338 1.306.748 2.65 1.256 4.105l.134.382c.248-.506.486-1.045.71-1.607zm5.755 31.887c-.083-.394-.27-.722-.525-.926-.164-.134-.365-.21-.55-.21-.072 0-.14.012-.203.035-.23.077-.413.31-.508.642-.05.18-.078.39-.08.6-.004.24.01.47.046.68.07.45.22.876.446 1.268.185.327.43.642.73.942.31-.564.522-1.14.628-1.71.022-.114.038-.235.05-.343l.022-.357c.005-.21-.015-.433-.056-.623zm.827-17.156l-.19-.618c-.14-.467-.286-.95-.473-1.417-.186-.473-.393-.906-.616-1.287-.26-.437-.525-.79-.794-1.053-.146-.142-.297-.26-.438-.344-.14-.08-.26-.112-.305-.112-.02.012-.066.105-.085.24-.044.293.003.702.132 1.158.22.76.623 1.585 1.23 2.52.133.2.265.395.41.594l.442.59c.3.382.616.758.94 1.117l.255.275c-.17-.555-.34-1.11-.508-1.664zm22.587-3.7c-.383-.71-.863-1.414-1.465-2.146-.14-.17-.283-.335-.426-.494l-.44-.476c-.29-.287-.584-.516-.867-.676-.303-.172-.61-.28-.89-.307-.06-.008-.118-.01-.172-.01-.202 0-.39.043-.542.126-.362.202-.463.56-.28 1.01.1.246.28.503.526.747.123.12.264.242.402.35l.49.338c1.3.85 2.573 1.45 3.794 1.793-.042-.085-.087-.17-.13-.253zm3.567-12.11l-.805-.027h-.016c-.056 0-.133.002-.192.006-.28.018-.534.074-.732.16-.323.14-.524.378-.512.61.008.224.194.408.512.506.09.03.198.05.32.062.077.01.163.013.267.013l.148-.002c.36-.006.692-.027 1.013-.063.905-.1 1.74-.34 2.437-.702-.718-.31-1.538-.5-2.44-.563zm-49.533 85.012c0 10.65-9.15 12.423-13.7 12.423H76.226v-2.12l3.23-.346v-19.72l-3.23-.344v-2.12H89.19c4.356 0 13.7 1.575 13.7 12.226zm-20.55 9.86h7.39c3.473 0 10.176-1.51 10.176-9.86s-7.045-9.662-10.715-9.662h-6.85v19.52zm-1.67 21.62c0 1.493-1.143 2.653-2.797 2.653H75.91v-5.306h1.963c1.654 0 2.798 1.145 2.798 2.653zm-3.835 1.804h1.038c1.106 0 1.828-.75 1.828-1.803 0-1.04-.72-1.804-1.827-1.804h-1.038v3.607zm-9.274-4.456h3.904v.834h-2.978v1.38h2.64v.833h-2.64v1.425h3.016v.833h-3.94v-5.304zm-6.89 5.343l-1.294-3.812-1.293 3.812h-.797l-1.835-5.343h1l1.257 3.933L59 130.15h.783l1.293 3.947 1.256-3.933h.97l-1.835 5.343h-.797zM22.05 111.64l3.23-.347V91.575l-3.23-.345v-2.12h24.366v6.606h-2.35l-.438-4.042H28.166v7.542h15.07v2.564h-15.07v9.415h16.097l.44-4.042h2.35v6.605H22.05v-2.12zm24.002 20.803v.77H3.554L.44 135.468l-.446-.625 2.394-1.734c-.337-.12-.635-.343-.85-.643-.57-.8-.39-1.922.406-2.498.314-.228.676-.337 1.035-.337.552 0 1.097.258 1.444.744.45.63.434 1.46.018 2.066h41.61zm-42.248-1.616c-.326-.457-.96-.562-1.414-.233-.453.328-.557.967-.23 1.424.19.266.497.425.82.425h.328l.265-.192c.454-.328.557-.966.23-1.423zm86.058 1.99c0 1.492-1.143 2.652-2.797 2.652h-1.963v-5.306h1.963c1.654 0 2.797 1.145 2.797 2.653zm-3.835 1.803h1.038c1.105 0 1.827-.75 1.827-1.803 0-1.04-.722-1.804-1.827-1.804h-1.038v3.607zm9.243.848h-.924v-5.303h.924v5.303zm8.395-1.636v-3.668h.91v5.304h-.775l-2.903-3.773v3.773h-.91v-5.304h.857l2.82 3.668zm8.056-3.76c.918 0 1.483.26 2.024.72l-.587.706c-.406-.35-.805-.568-1.474-.568-.97 0-1.707.856-1.707 1.886 0 1.092.714 1.895 1.79 1.895.496 0 .948-.158 1.27-.4v-.993h-1.345v-.81h2.242v2.226c-.52.448-1.264.827-2.196.827-1.647 0-2.73-1.183-2.73-2.744 0-1.485 1.128-2.743 2.715-2.743zm15.063 0c.97 0 1.557.343 2.06.828l-.594.69c-.422-.395-.873-.66-1.475-.66-1.007 0-1.737.833-1.737 1.886 0 1.038.73 1.887 1.737 1.887.647 0 1.06-.265 1.512-.69l.594.607c-.548.576-1.15.94-2.135.94-1.534 0-2.677-1.206-2.677-2.744 0-1.507 1.12-2.743 2.715-2.743zm8.755 0c1.617 0 2.745 1.237 2.745 2.744 0 1.493-1.143 2.744-2.76 2.744-1.617 0-2.745-1.235-2.745-2.744 0-1.492 1.143-2.743 2.76-2.743zm0 4.63c1.046 0 1.775-.84 1.775-1.886 0-1.03-.744-1.886-1.79-1.886-1.045 0-1.775.84-1.775 1.886 0 1.03.745 1.887 1.79 1.887zm8.02-1.522c0 .985.503 1.516 1.33 1.516.82 0 1.324-.5 1.324-1.478v-3.054h.925v3.008c0 1.584-.888 2.38-2.264 2.38-1.37 0-2.24-.796-2.24-2.334v-3.054h.924v3.016zm6.484-21.985l.44-4.042h2.35v6.605h-25.003v-2.12l3.228-.345V91.575l-3.23-.345v-2.12h24.366v6.606h-2.35l-.438-4.042h-15.462v7.542h15.07v2.564h-15.07v9.415h16.098zm5.572 19.833h-1.67v4.44h-.932v-4.44h-1.67v-.864h4.272v.864z" id="path-1" class="cls-2" fill-rule="evenodd"/></svg>