<svg xmlns="http://www.w3.org/2000/svg" preserveAspectRatio="xMidYMid" width="87" height="52" viewBox="0 0 87 52"><defs><style>.cls-2 { fill: #66b0e1; }</style></defs><path d="M87.5 44.237v.938h-4.188v-.938l1.483-.15V35.62H84.6l-4.386 9.555H78.62l-4.427-9.555h-.196v8.465l1.505.152v.938h-4.188v-.938l1.44-.152v-8.66l-1.44-.22v-.938h3.665l4.47 9.665 4.45-9.665h3.6v.96l-1.44.197v8.66l1.44.153zM60.84 13.603c-.328.322-.716.593-1.142.788-.426.198-.89.315-1.355.356-.096.007-.192.01-.288.013.046.404.03.822-.065 1.226-.115.5-.345.97-.65 1.373-.306.404-.682.745-1.092 1.025-.412.28-.858.502-1.32.674-.927.34-1.917.482-2.903.462-.987-.023-1.975-.21-2.91-.556-.545-.2-1.07-.457-1.57-.76.1.29.206.577.32.86.185.465.388.92.63 1.348.12.215.253.42.396.615.02.023.033.044.055.07l.06.077.113.144c.078.096.158.19.24.28.33.364.7.69 1.11.95.406.26.854.452 1.325.555.236.052.476.082.723.096.123.01.248.01.38.014.065.002.132.004.207.01.04.002.077.004.126.013.047.01.1.017.187.063.088.027.215.223.194.338v.1c-.004.076-.01.15-.018.22-.017.145-.047.29-.088.43-.082.283-.218.55-.388.786-.345.473-.82.814-1.318 1.058-.5.245-1.032.4-1.57.497-.537.096-1.083.132-1.628.117-.544-.015-1.09-.083-1.624-.21-.534-.13-1.06-.318-1.55-.6-.05-.028-.095-.057-.142-.086-.34.397-.757.73-1.23.963-.262.13-.538.228-.823.29-.232.05-.466.078-.705.084-.043 5.99-.067 24.666-.067 24.666 0 .026-.022.047-.047.047-.024 0-.045-.02-.045-.047 0 0-.322-18.868-.365-24.86-.556-.02-.823.027-1.316-.242-.257-.138-.497-.306-.716-.498-.138-.122-.267-.256-.387-.395-.128.08-.26.156-.395.223-.517.258-1.066.426-1.62.534-.556.107-1.12.154-1.685.144-.564-.01-1.13-.074-1.683-.21-.553-.136-1.1-.342-1.594-.663-.248-.16-.48-.35-.684-.577-.203-.226-.373-.488-.49-.775-.117-.287-.18-.595-.19-.9 0-.047-.003-.057 0-.133-.004-.044.04-.21.107-.27.068-.08.142-.117.2-.14.057-.025.107-.037.15-.046.09-.02.165-.026.24-.033l.21-.014c.27-.017.526-.04.778-.085.252-.044.498-.11.736-.2.476-.175.917-.443 1.312-.774.393-.332.747-.723 1.053-1.146.297-.415.542-.888.758-1.372.186-.418.35-.85.507-1.286-.322.194-.656.368-1 .52-1.024.456-2.133.718-3.252.768-1.118.048-2.253-.112-3.304-.537-.524-.214-1.026-.495-1.473-.86-.445-.365-.835-.817-1.1-1.348-.27-.528-.397-1.132-.374-1.722.004-.105.014-.21.026-.313-.202-.003-.405-.02-.606-.054-.57-.09-1.126-.31-1.604-.637-.48-.327-.882-.752-1.19-1.232-.308-.48-.524-1.014-.64-1.57-.113-.556-.126-1.137-.012-1.704.113-.566.363-1.117.743-1.568.013-.016.028-.03.04-.047-.107-.144-.204-.294-.288-.45-.268-.496-.413-1.036-.478-1.568-.064-.535-.05-1.066.023-1.585.072-.52.2-1.027.395-1.518.098-.247.212-.49.357-.724.072-.118.153-.234.246-.348.094-.113.2-.224.338-.328.136-.1.31-.2.54-.232.116-.014.242-.007.358.026.058.016.114.037.164.063.057.028.062.032.095.05.214.118.416.224.628.334 1.682.865 3.435 1.533 5.226 1.902.894.187 1.796.298 2.7.34.45.023.903.03 1.357.028.456 0 .912-.012 1.383-.002.236.006.476.018.724.05.247.034.506.087.764.194.258.107.512.28.698.502.19.22.315.47.405.71.174.488.232.96.27 1.423.016.23.025.46.03.687l.005.665c.012.41.053.83.145 1.218.092.39.238.76.45 1.052.106.145.23.268.362.354.065.042.134.076.2.097.035.013.068.02.1.026l.05.006.038.002c.03 0 .055-.003.054-.005l.033-.007c.03-.007.06-.018.093-.03.064-.028.134-.07.202-.12.138-.102.273-.235.397-.383.142-.17.274-.355.397-.548-.032-.114-.066-.227-.105-.336l-.18-.48c-.236-.65-.456-1.316-.646-2.004s-.35-1.398-.45-2.135c-.01-.092-.02-.185-.032-.278-.01-.094-.015-.19-.023-.285-.005-.048-.01-.097-.01-.143l-.006-.137-.004-.138-.002-.076v-.07c.002-.378.022-.76.08-1.145.055-.384.146-.77.292-1.15.074-.187.164-.373.274-.552.11-.178.242-.35.406-.502.164-.15.357-.288.616-.355.03-.008.066-.015.11-.02.047-.007.06-.006.087-.008.06 0 .08 0 .12.006.035.005.07.01.102.018.132.03.246.083.35.143.207.124.372.282.51.453.14.173.255.357.35.55.19.38.31.787.39 1.196.04.204.07.41.09.617.012.102.02.205.026.31.008.102.012.21.016.312.012.41-.006.83-.046 1.243-.04.415-.104.828-.185 1.24-.163.82-.396 1.635-.704 2.434-.154.4-.328.795-.532 1.182-.106.2-.218.4-.342.595.03.19.05.38.06.57.008.174.007.347.006.51l-.003.492-.007.972-.01 1.895-.02 3.59-.04 6.32-.014 2.065c.192-.006.388-.03.576-.07.24-.053.473-.136.693-.245.387-.19.733-.462 1.02-.79-.03-.024-.06-.048-.087-.074-.213-.196-.405-.425-.553-.685-.15-.258-.252-.548-.3-.845-.023-.15-.032-.297-.03-.447.002-.153.022-.31.067-.47.045-.156.12-.316.234-.456.115-.14.274-.255.452-.316.178-.062.37-.07.548-.03.178.037.34.118.476.226.274.217.435.532.5.84.035.158.048.31.044.47l-.004.1-.01.12c-.01.077-.018.148-.033.22-.084.444-.26.854-.494 1.224.027.017.055.035.085.052.427.247.905.42 1.396.538.493.117 1 .18 1.507.194.506.014 1.014-.02 1.51-.11.493-.088.976-.23 1.415-.446.438-.215.833-.506 1.102-.88.134-.186.237-.39.3-.608.03-.11.054-.22.067-.333.005-.028.007-.057.01-.085l-.14-.005c-.127-.003-.262-.005-.397-.013-.27-.014-.546-.048-.815-.107-.54-.117-1.058-.337-1.518-.63-.462-.293-.87-.655-1.23-1.05-.09-.098-.177-.2-.263-.303l-.125-.156-.06-.075-.06-.082c-.16-.217-.305-.443-.436-.673-.262-.463-.476-.94-.67-1.42-.192-.482-.362-.966-.525-1.45l-.065-.2c-.067-.05-.135-.102-.2-.156-.392-.316-.758-.665-1.097-1.04-.17-.186-.332-.38-.488-.58l-.115-.15-.11-.152c-.075-.102-.15-.21-.22-.316-.278-.43-.53-.888-.684-1.412-.035-.132-.065-.268-.083-.41-.016-.144-.023-.294.002-.454.023-.158.076-.336.213-.496.068-.078.16-.147.262-.19.102-.043.21-.058.31-.056.198.007.36.076.496.153.137.08.253.175.356.275.206.202.365.427.503.658.135.233.248.474.345.72.098.24.176.5.247.735.25.818.498 1.64.762 2.455.654.478 1.37.863 2.123 1.137.87.317 1.788.487 2.7.5.91.012 1.82-.128 2.65-.442.416-.158.81-.358 1.167-.605.355-.247.67-.54.92-.877.25-.335.426-.713.514-1.11.08-.364.082-.74.022-1.113-.12-.017-.237-.037-.354-.062-.905-.19-1.734-.6-2.485-1.1l-.145-.097-.066-.048-.08-.058c-.1-.078-.193-.16-.284-.25-.18-.184-.348-.404-.455-.675-.108-.266-.145-.6-.044-.912.097-.313.333-.577.612-.72.278-.146.59-.185.873-.15.286.034.546.135.775.268.23.132.428.297.605.475l.064.068.06.068c.04.042.075.08.115.126.078.09.154.18.227.27.296.363.567.754.793 1.18.135.258.253.528.346.81.134.002.268-.002.4-.014.373-.037.734-.132 1.064-.29.664-.31 1.2-.86 1.537-1.51.337-.646.487-1.39.407-2.086-.04-.347-.137-.68-.292-.98-.078-.15-.17-.293-.277-.423-.286.22-.605.393-.937.518-.38.144-.777.23-1.17.272-.198.02-.396.03-.592.034h-.154l-.087-.004c-.034-.002-.062-.005-.09-.01-.12-.01-.24-.034-.363-.073-.242-.075-.49-.213-.682-.43-.193-.216-.315-.51-.323-.81-.01-.3.09-.597.262-.826.17-.23.404-.39.64-.492.237-.1.48-.145.71-.16.06-.002.113-.004.178-.004l.143.003.16.006.157.01c.414.032.835.11 1.247.255.28.098.556.23.814.398.214-.307.364-.665.45-1.043.14-.59.14-1.223.053-1.83-.088-.604-.266-1.2-.534-1.696-.067-.123-.14-.238-.217-.337-.077-.1-.16-.183-.227-.228-.032-.023-.058-.033-.07-.037l-.027.014-.052.027-.21.113c-1.116.59-2.234 1.09-3.347 1.475-1.11.39-2.215.66-3.284.827-1.07.166-2.105.22-3.074.212-.484-.003-.952-.02-1.396-.025-.443-.006-.868-.004-1.23.062-.18.032-.342.082-.476.154-.134.07-.243.162-.334.28-.184.236-.293.57-.362.902-.07.336-.105.678-.127 1.01-.01.165-.017.33-.022.49l-.015.486c-.03.653-.13 1.253-.315 1.773-.184.518-.46.958-.81 1.25-.175.147-.367.255-.56.314-.05.017-.1.028-.146.038l-.073.01-.08.01h-.086c-.024.002-.016 0-.025 0h-.016c-.04 0-.08-.005-.12-.01-.16-.016-.308-.065-.417-.123-.11-.056-.188-.114-.248-.16-.057-.045-.102-.083-.127-.104l-.038-.033c-.095-.084-.105-.23-.02-.325.08-.09.216-.104.312-.03l.04.03c.026.02.06.045.11.08.05.032.112.07.18.1.07.03.15.05.253.057h.095l.027-.003.027-.002h.013l.01-.002.03-.006.042-.01c.028-.007.057-.014.086-.025.117-.042.243-.118.362-.228.24-.22.453-.575.59-1.025.143-.45.216-.992.22-1.595 0-.155 0-.313-.003-.476 0-.17.002-.34.008-.518.013-.353.038-.723.107-1.116.036-.197.083-.398.154-.606.074-.206.17-.42.318-.622.145-.202.346-.385.573-.512.228-.13.47-.204.707-.253.474-.094.93-.1 1.39-.106.458-.003.918.002 1.388-.005.94-.014 1.918-.078 2.93-.25 1.013-.17 2.056-.443 3.114-.82 1.057-.38 2.13-.86 3.205-1.436l.202-.108.05-.028s.054-.03.068-.036c.005-.003.07-.032.11-.047.038-.013.077-.024.117-.032.16-.036.33-.023.47.018.14.042.255.104.352.17.194.134.33.285.45.437.117.153.215.31.302.47.173.317.304.647.41.984.104.338.182.685.234 1.04.102.705.105 1.448-.068 2.194-.087.372-.222.744-.42 1.093-.072.13-.153.254-.242.373.174.205.326.43.447.67.207.41.33.853.378 1.3.094.9-.1 1.81-.526 2.608-.214.4-.488.77-.82 1.093zM39.273 23.846c0 .058.008.117.014.176.05.386.2.768.41 1.113.14-.124.264-.26.37-.406.138-.195.24-.41.3-.636.03-.113.05-.23.058-.346 0-.03.004-.05.004-.087 0-.037.002-.062 0-.09 0-.057-.004-.113-.01-.167-.03-.22-.12-.403-.253-.49-.13-.09-.31-.096-.47-.01-.163.082-.293.248-.36.448-.034.1-.054.212-.06.32-.003.024-.005.054-.005.09l.002.086zm2.38-12.506c-.102.076-.215.15-.347.207-.067.028-.136.054-.212.072-.037.008-.074.017-.124.023-.056.008-.083.01-.107.01-.057.003-.08 0-.123-.002-.038 0-.075-.006-.112-.01-.073-.012-.145-.028-.214-.05-.137-.042-.265-.104-.38-.176-.232-.146-.42-.335-.57-.537-.304-.408-.48-.867-.595-1.324-.06-.23-.1-.46-.128-.69-.03-.234-.048-.46-.055-.7l-.012-.66c-.007-.215-.017-.43-.035-.642-.036-.42-.1-.842-.233-1.2-.067-.176-.152-.333-.26-.453-.105-.12-.234-.208-.393-.275-.32-.13-.75-.16-1.186-.168-.44-.007-.897.007-1.36.01-.462.005-.93.003-1.402-.018-.944-.04-1.896-.15-2.837-.34-1.886-.382-3.718-1.075-5.46-1.962-.215-.11-.44-.227-.648-.34l-.07-.038c-.01 0-.058.017-.115.06-.116.086-.246.248-.354.424-.11.178-.204.377-.286.584-.164.413-.277.858-.34 1.308-.06.45-.073.907-.02 1.35.055.443.175.873.378 1.247.052.097.11.19.175.28.217-.142.446-.263.682-.355.532-.21 1.09-.306 1.634-.325.068-.003.136-.003.204-.004h.105c.035 0 .082.004.12.007.154.012.31.037.468.084.157.046.315.116.462.213.148.098.285.227.39.383.108.156.184.34.214.534.028.193.01.396-.052.582-.062.186-.17.355-.303.49-.133.135-.29.236-.452.305-.16.07-.326.11-.486.13-.08.01-.16.016-.237.016-.052.002-.068 0-.104 0h-.097c-.277-.008-.543-.03-.814-.075-.54-.09-1.084-.27-1.565-.584-.083-.053-.164-.113-.243-.175-.275.328-.463.73-.552 1.163-.09.44-.087.907.004 1.36.178.908.702 1.763 1.46 2.284.38.26.813.437 1.27.514.215.037.434.05.654.047.062-.188.134-.37.216-.548.238-.52.553-.988.9-1.42.087-.108.176-.213.268-.317.093-.103.18-.203.292-.31.22-.21.465-.393.76-.524.292-.13.635-.202.988-.146.35.05.71.255.915.59.102.166.162.358.176.548.013.19-.016.376-.072.542-.114.336-.32.596-.542.807-.112.105-.23.2-.35.284l-.09.06-.082.055c-.053.036-.116.075-.173.112-.232.147-.47.284-.717.408-.493.25-1.018.45-1.57.567-.12.026-.24.046-.363.063-.022.128-.037.257-.042.387-.022.475.074.95.287 1.377.21.428.53.808.91 1.123.38.316.822.568 1.29.762.94.387 1.983.545 3.015.506 1.034-.038 2.063-.28 3.016-.698.568-.25 1.107-.563 1.608-.93l.24-.748.48-1.558.12-.394c.04-.125.088-.27.138-.402.1-.268.22-.532.367-.786.148-.253.32-.5.552-.717.116-.11.248-.21.408-.29.08-.038.17-.07.27-.09.1-.02.212-.026.33-.002.115.024.23.08.32.16.092.08.157.174.2.266.087.19.106.37.108.535-.005.332-.085.626-.185.903-.103.277-.23.536-.373.783-.142.25-.298.484-.463.71l-.063.086-.063.085c-.04.055-.08.108-.126.164-.088.112-.177.22-.268.326-.183.212-.374.417-.573.613-.284.28-.586.542-.903.784-.064.192-.13.385-.196.577-.182.518-.377 1.036-.604 1.546-.23.51-.487 1.01-.826 1.483-.334.46-.717.883-1.158 1.254-.44.368-.945.677-1.493.878-.273.102-.556.177-.84.227-.285.05-.574.075-.847.092-.12.008-.246.015-.337.03.01.232.056.46.142.67.176.44.52.804.94 1.075.42.272.906.46 1.41.584.502.124 1.025.187 1.55.196.522.01 1.048-.032 1.56-.13.51-.1 1.012-.253 1.467-.48.105-.053.208-.11.308-.17-.26-.416-.453-.88-.52-1.385-.008-.075-.017-.15-.018-.227 0-.04-.003-.074-.003-.118 0-.03.002-.07.004-.113.01-.16.04-.318.092-.474.103-.31.32-.612.64-.78.16-.084.344-.132.534-.127.188.003.38.064.54.172.158.107.278.257.357.414.08.157.124.322.146.48.01.08.016.16.017.238v.112c0 .032-.005.08-.006.117-.01.153-.036.304-.074.453-.078.3-.214.58-.39.83-.146.202-.315.38-.498.54.095.107.196.21.303.305.188.164.39.307.608.424.41.224.866.347 1.335.368l-.015-2.062c-.01-1.908-.024-4.02-.038-6.32l-.02-3.59-.01-1.896c-.003-.32-.004-.646-.006-.973l-.003-.493c0-.168 0-.325-.01-.484l-.008-.077-.01.016c-.15.178-.315.352-.52.508zM24.885 7.962l.012.008c.354.232.774.378 1.22.453.11.02.223.034.337.044.113.01.232.018.342.02.026.002.06.002.09.003h.084c.047 0 .092-.003.137-.008.088-.01.17-.032.24-.062.14-.06.226-.153.26-.257.036-.103.02-.22-.05-.326-.07-.104-.2-.194-.37-.245-.086-.026-.18-.042-.278-.05l-.07-.004h-.086c-.058 0-.117 0-.176.003-.467.016-.925.094-1.342.256-.122.048-.24.103-.352.166zm2.93 5.86c.448-.098.888-.263 1.31-.472.224-.11.443-.233.655-.365.052-.033.102-.063.157-.1l.082-.054c.03-.02.05-.032.074-.05.094-.064.183-.134.263-.21.16-.147.285-.316.34-.48.06-.168.046-.32-.025-.437-.07-.12-.207-.21-.377-.238-.17-.028-.368.003-.56.087-.19.08-.377.215-.54.37-.082.075-.17.174-.256.267-.086.094-.17.19-.25.288-.32.39-.604.81-.814 1.258l-.06.136zm10.715 2.65c.023-.024.048-.045.07-.07.19-.18.368-.373.54-.57.085-.1.17-.202.25-.302l.123-.158.06-.078.057-.08c.308-.42.58-.87.756-1.336.086-.23.145-.47.147-.684 0-.104-.017-.2-.045-.26-.014-.03-.03-.05-.04-.06-.014-.01-.023-.014-.04-.02-.033-.008-.108.003-.19.043-.084.042-.173.104-.255.182-.166.154-.313.356-.438.57-.126.218-.233.45-.324.692-.046.123-.084.236-.126.37l-.12.387c-.14.456-.283.914-.425 1.37zm4.25-8.21c.302-.754.537-1.532.703-2.312.164-.782.262-1.563.25-2.34-.006-.38-.036-.767-.103-1.134-.066-.37-.17-.726-.323-1.047-.077-.16-.168-.31-.272-.443-.103-.132-.223-.245-.348-.322-.063-.038-.126-.065-.183-.08l-.04-.007c-.008-.003-.036-.002-.023-.003-.02 0-.057 0-.056.003l-.032.007c-.116.026-.252.11-.368.215-.237.215-.418.52-.55.842-.13.325-.22.672-.274 1.025-.058.352-.08.71-.088 1.067v.13l.002.138.003.137.008.13c.006.087.01.173.018.26l.028.265c.085.704.23 1.397.41 2.072.175.675.383 1.334.608 1.976l.158.444c.176-.332.333-.676.473-1.025zm2.784 15.212c-.045-.21-.15-.396-.296-.512-.145-.116-.33-.155-.478-.102-.147.05-.263.19-.32.387-.026.098-.04.207-.043.32-.002.115.005.232.024.346.037.228.115.447.23.647.125.217.29.41.483.58.19-.306.33-.64.394-.984.01-.058.02-.12.025-.174l.008-.08.003-.1c.003-.108-.006-.225-.03-.328zm.306-8.528c-.075-.245-.143-.467-.233-.69-.087-.22-.188-.433-.305-.632-.118-.196-.25-.38-.403-.528-.077-.073-.156-.137-.235-.182-.078-.045-.156-.07-.207-.07-.052 0-.064.008-.092.035-.026.03-.056.096-.067.182-.028.172.006.393.066.603.124.427.35.846.608 1.24.066.1.13.193.2.29l.108.144.11.14c.146.187.3.37.46.543.15.165.306.323.467.476-.164-.52-.322-1.038-.48-1.554zm10.988-1.498c-.2-.37-.448-.72-.72-1.05-.07-.08-.14-.162-.21-.24-.032-.037-.074-.08-.11-.12l-.054-.058-.05-.052c-.14-.137-.29-.257-.446-.345-.157-.09-.32-.146-.476-.162-.156-.017-.302.01-.414.07-.225.125-.3.36-.188.633.054.136.154.274.28.4.063.06.135.12.206.175l.053.04.066.046.124.082c.666.432 1.38.773 2.11.936-.052-.12-.11-.238-.172-.354zm1.626-5.866l-.13-.008-.125-.005-.144-.002c-.03 0-.073 0-.108.004-.146.01-.28.037-.392.086-.224.096-.326.26-.32.406.007.146.113.283.332.352.054.017.114.027.178.034.056.007.126.008.216.006.17-.003.335-.013.5-.03.524-.058 1.016-.21 1.42-.466-.428-.224-.923-.342-1.428-.378zM0 44.237l1.44-.152V35.36L0 35.205v-.938h10.863v2.923H9.816l-.196-1.788H2.727v3.338h6.718v1.134H2.727v4.167h7.176l.197-1.788h1.047v2.923H0v-.938zm36.042-4.56c0 4.714-4.08 5.498-6.108 5.498h-5.78v-.938l1.44-.152v-8.727l-1.44-.152v-.938h5.78c1.942 0 6.108.696 6.108 5.41zm-9.162 4.364h3.294c1.55 0 4.537-.666 4.537-4.362s-3.14-4.276-4.776-4.276H26.88v8.64zm32.023-6.85h-1.048l-.196-1.788h-6.894v3.338h6.72v1.134h-6.72v4.167h7.177l.196-1.788h1.046v2.923H48.04v-.938l1.44-.152V35.36l-1.44-.154v-.938h10.863v2.923z" id="path-1" class="cls-2" fill-rule="evenodd"/></svg>