<svg xmlns="http://www.w3.org/2000/svg" preserveAspectRatio="xMidYMid" width="147" height="35" viewBox="0 0 147 35"><defs><style>.cls-2 { fill: #9aaab7; }</style></defs><path d="M145.763 23.997c.174.062.328.176.44.33.294.412.2.99-.21 1.286-.163.117-.35.173-.536.173-.286 0-.568-.133-.747-.383-.233-.325-.224-.752-.01-1.063h-11.168v-.397h11.628l1.61-1.16.23.32-1.237.894zm-.307.343h-.17l-.136.098c-.234.17-.288.498-.12.734.17.235.497.288.73.12.236-.17.29-.5.12-.734-.097-.137-.256-.218-.424-.218zm-3.653-11.093l1.72-.175V3.224h-.228l-5.083 11.114h-1.847l-5.133-11.114h-.228v9.845l1.745.177v1.09h-4.856v-1.09l1.67-.178V2.995l-1.67-.254v-1.09h4.248l5.185 11.24 5.158-11.24h4.173v1.115l-1.67.23v10.072l1.67.177v1.09h-4.855v-1.09zm-13.12 9.964h-1.54v.71h1.363v.43h-1.364v.734h1.56v.428h-2.038v-2.73h2.018v.43zm-4.795 2.303l-.676-.952h-.59v.953h-.48v-2.73h1.213c.638 0 1.01.343 1.01.87 0 .448-.267.717-.648.826l.735 1.033h-.564zm-.008-1.84c0-.294-.21-.454-.563-.454h-.696v.916h.7c.342 0 .56-.18.56-.464zm-5.275 1.882c-.708 0-1.16-.41-1.16-1.2V22.78h.48v1.553c0 .507.26.78.687.78.424 0 .684-.258.684-.76V22.78h.48v1.55c0 .814-.46 1.223-1.17 1.223zm-4.195-.043h-.482v-2.285h-.863v-.445h2.208v.445h-.863v2.285zm-13.5-12.265l1.67-.178V2.92l-1.67-.178v-1.09h12.595v3.4h-1.214l-.226-2.082h-7.992v3.883h7.79v1.32h-7.79v4.845h8.32l.228-2.08h1.214v3.4H100.91v-1.09zm.22 10.27c-.22-.204-.452-.34-.763-.34-.52 0-.898.428-.898.97 0 .535.376.972.897.972.335 0 .548-.138.782-.356l.306.312c-.284.296-.595.484-1.104.484-.793 0-1.384-.62-1.384-1.412 0-.777.58-1.412 1.403-1.412.503 0 .806.175 1.066.425l-.307.356zm-8.536 2.043c-.852 0-1.412-.61-1.412-1.412 0-.765.584-1.412 1.404-1.412.474 0 .766.132 1.046.37l-.304.363c-.21-.18-.416-.294-.762-.294-.5 0-.882.44-.882.972 0 .56.37.975.925.975.256 0 .49-.082.656-.207v-.51h-.696v-.418h1.16v1.146c-.27.23-.654.426-1.136.426zm-5.603-1.99v1.942h-.47v-2.73h.444l1.458 1.888v-1.888h.47v2.73h-.4l-1.5-1.942zm-6.05-9.232h-6.7v-1.09l1.668-.18V2.92l-1.67-.176v-1.09h6.703c2.252 0 7.082.81 7.082 6.292 0 5.482-4.73 6.394-7.08 6.394zm0-11.368H77.4v10.05h3.82c1.795 0 5.26-.778 5.26-5.076 0-4.3-3.642-4.974-5.54-4.974zm-4.403 21.178c0 .768-.59 1.365-1.446 1.365h-1.013v-2.73h1.014c.856 0 1.447.588 1.447 1.365zm-1.982.928h.536c.573 0 .946-.386.946-.928 0-.535-.373-.93-.945-.93h-.535v1.858zm-4.794-2.294h2.02v.43h-1.54v.71h1.364v.428H70.24v.734h1.558v.428H69.76v-2.73zm-3.56 2.75l-.67-1.962-.667 1.962h-.413l-.948-2.75h.517l.648 2.025.67-2.032h.403l.67 2.032.65-2.025h.5l-.95 2.75h-.41zM46.237 13.247l1.67-.178V2.92l-1.67-.178v-1.09h12.594v3.4h-1.214L57.39 2.97H49.4v3.883h7.788v1.32h-7.79v4.845h8.32l.23-2.08h1.213v3.4H46.24v-1.09zm.48 9.262c.286 0 .568.132.747.382.233.325.224.752.01 1.063h11.17v.397h-11.63l-1.61 1.16-.23-.32 1.238-.894c-.174-.062-.33-.176-.44-.33-.295-.413-.2-.99.21-1.286.162-.117.35-.173.535-.173zm-.423 1.227c.098.137.257.218.425.218h.168l.137-.1c.235-.168.288-.497.12-.732-.17-.235-.497-.29-.73-.12-.235.17-.29.498-.12.734zm-9.703-14.49c.088.842-.084 1.697-.496 2.473-.207.39-.468.738-.773 1.036-.32.314-.686.566-1.084.75-.398.184-.83.297-1.285.336-.052.005-.103.008-.154.01.03.365.005.718-.073 1.052-.107.463-.32.915-.62 1.31-.273.365-.62.693-1.03.973-.37.252-.786.466-1.24.634-.783.29-1.64.438-2.543.438-.057 0-.113 0-.17-.002-.932-.022-1.846-.197-2.715-.52-.41-.15-.814-.338-1.205-.558.06.17.125.34.192.506.196.493.378.884.574 1.233.11.195.23.382.36.557.015.023.028.04.047.064l.158.202c.07.085.142.17.218.252.315.35.65.638.998.86.375.24.775.407 1.187.497.204.045.416.073.648.086.098.006.196.008.298.01l.047.002c.056 0 .113.003.174.006l.07.006c.025.002.05.006.08.01.06.012.12.024.207.07.112.032.266.265.236.43v.073c-.004.077-.01.147-.017.216-.02.143-.048.283-.086.414-.077.265-.202.52-.373.758-.296.41-.718.75-1.254 1.014-.44.215-.922.368-1.474.468-.485.088-1.004.12-1.522.11-.523-.015-1.034-.08-1.518-.197-.556-.135-1.032-.32-1.458-.566l-.054-.03c-.322.357-.693.642-1.106.844-.255.126-.518.22-.782.277-.184.04-.37.066-.565.076l-.062 8.54c0 .085-.068 1.033-.152 1.033h-.002c-.082-.003-.15-.95-.15-1.034l-.06-8.542c-.505-.032-.997-.173-1.43-.41-.24-.13-.47-.29-.68-.474-.104-.094-.206-.196-.305-.306-.094.058-.193.112-.294.163-.452.226-.95.39-1.52.503-.467.09-.952.136-1.442.136h-.13c-.55-.01-1.08-.077-1.576-.198-.584-.146-1.075-.35-1.502-.627-.246-.16-.465-.345-.65-.552-.204-.23-.363-.48-.47-.75-.11-.266-.172-.558-.184-.867v-.037c-.002-.022-.002-.043 0-.092-.006-.06.045-.25.135-.328.068-.08.15-.122.214-.15.063-.024.115-.038.16-.047.083-.017.153-.024.22-.03l.208-.016c.224-.016.465-.035.706-.078.226-.04.448-.1.658-.18.412-.153.808-.388 1.175-.697.345-.29.665-.64.954-1.04.236-.33.454-.727.686-1.248.12-.268.236-.558.36-.896-.22.124-.445.236-.67.335-.965.43-1.986.673-3.034.72-1.09.046-2.148-.124-3.09-.505-.52-.214-.987-.487-1.384-.812-.453-.37-.804-.802-1.043-1.28-.255-.502-.378-1.07-.356-1.646.002-.06.006-.12.012-.178-.156-.007-.31-.023-.454-.047-.544-.088-1.07-.298-1.522-.607-.44-.3-.83-.705-1.126-1.17-.29-.452-.493-.952-.603-1.486-.112-.55-.116-1.096-.012-1.62.11-.55.348-1.06.69-1.475-.085-.12-.16-.24-.223-.358C.302 6.64.15 6.138.083 5.584c-.057-.476-.05-.978.02-1.493.07-.502.196-.983.37-1.427.105-.26.215-.483.34-.685.075-.125.152-.234.235-.334.106-.13.21-.23.33-.32.114-.085.295-.2.548-.236.124-.016.256-.007.374.027.06.017.12.04.17.066l.067.036c.22.12.406.22.6.32 1.628.84 3.237 1.427 4.784 1.746.797.168 1.627.273 2.47.313.332.017.682.025 1.1.025h.145c.14 0 .277 0 .417-.003.282-.002.568-.004.86.002.268.005.477.02.678.047.285.037.518.097.73.186.268.11.51.287.686.494.16.186.288.41.39.69.167.465.222.92.255 1.343.016.196.026.406.03.642l.006.615c.01.412.055.784.13 1.102.09.378.222.692.396.93.092.127.197.23.304.3.054.035.108.06.16.078.027.01.053.016.08.02l.035.004.007-.014.065.01c.035-.01.056-.016.077-.025.048-.02.103-.053.163-.097.112-.083.23-.197.345-.336.11-.13.22-.28.33-.453-.024-.087-.05-.174-.08-.257l-.163-.44c-.24-.656-.434-1.264-.6-1.862-.196-.717-.333-1.367-.416-1.987l-.03-.257c-.007-.06-.012-.12-.016-.18l-.027-.55v-.07c.003-.407.027-.748.075-1.072.058-.398.148-.753.276-1.084.076-.194.16-.367.26-.53.12-.192.25-.352.393-.486.14-.127.335-.282.616-.355.03-.008.07-.016.115-.022.078-.01.095-.007.122-.007.046 0 .065.002.096.006.04.005.075.01.11.02.116.026.232.074.35.143.18.108.344.253.5.443.126.158.24.336.334.527.165.336.286.707.368 1.135.037.187.066.38.085.58.01.08.015.164.02.246l.004.043c.005.097.01.198.013.293.01.368-.003.76-.043 1.163-.037.373-.094.762-.17 1.154-.155.775-.375 1.538-.656 2.27-.157.407-.32.768-.495 1.104-.104.196-.202.367-.3.523.026.17.042.338.05.498.008.15.007.302.006.445l-.035 6.452-.047 7.632c.136-.01.27-.028.397-.056.208-.046.413-.12.613-.218.302-.148.587-.362.83-.62-.215-.203-.393-.424-.526-.658-.144-.25-.244-.533-.29-.818-.02-.136-.03-.278-.03-.432.004-.166.026-.316.067-.46.05-.18.13-.334.237-.464.12-.148.286-.264.465-.326.175-.06.374-.073.563-.032.175.038.342.118.484.23.25.2.428.5.5.842.033.15.046.3.042.458l-.013.21c-.008.077-.017.146-.03.216-.07.367-.21.727-.413 1.072.354.202.77.362 1.24.475.434.103.892.163 1.364.176.468.01.93-.02 1.37-.1.474-.086.903-.22 1.274-.403.42-.207.756-.475.974-.78.12-.165.207-.343.26-.527.024-.082.042-.166.053-.25h-.008c-.118-.003-.243-.006-.37-.013-.267-.014-.526-.048-.767-.1-.494-.108-.99-.315-1.434-.598-.404-.26-.793-.592-1.154-.99-.085-.092-.166-.187-.245-.284l-.17-.218c-.017-.02-.04-.05-.06-.078-.143-.194-.28-.407-.408-.632-.214-.38-.412-.802-.622-1.326-.155-.388-.305-.802-.487-1.344l-.05-.153-.025-.02-.135-.105c-.358-.29-.702-.618-1.022-.973-.156-.174-.308-.356-.453-.542l-.21-.283c-.07-.096-.14-.198-.205-.296-.217-.335-.485-.79-.644-1.335-.04-.14-.066-.27-.08-.396-.02-.173-.02-.31 0-.448.033-.207.105-.375.223-.513.08-.09.18-.162.284-.206.092-.04.198-.06.303-.06.252.01.425.093.535.155.123.073.237.16.35.27.173.17.326.372.48.632.122.208.232.436.327.68.09.23.165.473.23.688l.073.244c.202.663.404 1.327.617 1.988.59.43 1.228.77 1.9 1.015.793.29 1.617.443 2.45.455h.094c.827 0 1.603-.135 2.307-.4.39-.15.743-.334 1.05-.548.33-.23.606-.493.822-.785.225-.304.378-.635.455-.984.063-.29.073-.594.03-.908-.084-.013-.17-.03-.252-.047-.765-.163-1.526-.5-2.327-1.03l-.27-.194c-.108-.085-.195-.162-.276-.244-.206-.208-.35-.423-.443-.66-.12-.296-.137-.63-.045-.916.095-.306.326-.58.618-.73.256-.134.57-.186.867-.15.254.03.508.12.754.262.2.115.39.264.58.457l.226.245c.073.083.144.167.212.252.302.372.545.735.742 1.11.12.226.22.458.3.69.094 0 .188-.005.28-.014.34-.034.657-.12.943-.257.57-.268 1.055-.746 1.365-1.346.306-.587.434-1.25.364-1.865-.036-.314-.123-.606-.257-.867-.053-.102-.113-.2-.18-.29-.245.175-.514.32-.804.428-.338.128-.71.215-1.105.257-.177.02-.358.03-.554.033H32.49l-.083-.004-.082-.008c-.136-.014-.25-.037-.362-.073-.19-.058-.46-.18-.678-.43-.198-.223-.316-.52-.324-.818-.01-.29.086-.594.265-.83.154-.212.375-.38.634-.492.206-.088.432-.14.69-.155.058-.004.107-.005.17-.005l.43.018c.42.032.816.113 1.177.242.237.083.467.19.68.32.156-.245.27-.527.342-.838.116-.5.132-1.056.045-1.65-.084-.572-.25-1.102-.48-1.53-.062-.115-.127-.215-.19-.298-.064-.082-.132-.152-.183-.186 0 0-.002 0-.003-.002l-.216.116c-1.06.563-2.1 1.025-3.098 1.37-1.002.352-2.026.61-3.044.77-.855.133-1.732.197-2.68.197h-.168c-.263-.003-.522-.01-.774-.014-.174-.004-.344-.008-.51-.01l-.25-.002c-.253 0-.582.006-.863.058-.16.028-.297.072-.407.13-.11.06-.198.134-.272.23-.136.177-.24.434-.313.79-.055.263-.09.555-.114.916-.01.152-.015.303-.02.45l-.013.45c-.03.638-.13 1.2-.297 1.67-.18.512-.45.928-.78 1.204-.17.144-.362.25-.554.31-.046.015-.096.027-.145.036l-.177.022h-.103c-.04-.002-.08-.005-.12-.01-.15-.016-.3-.06-.423-.126-.11-.056-.187-.114-.243-.157-.056-.045-.1-.082-.124-.103l-.035-.03c-.132-.118-.146-.322-.03-.456.11-.123.307-.144.437-.044l.038.03c.024.017.054.04.098.07.04.025.09.058.147.082.06.026.12.04.195.043h.081l.002.01v-.01.01l.042-.013.064-.012c.026-.007.048-.012.07-.022.103-.036.206-.1.3-.188.213-.195.396-.514.513-.9.128-.4.194-.884.2-1.44l-.004-.438c0-.158 0-.317.007-.483.01-.277.03-.647.1-1.046.04-.217.086-.4.146-.576.08-.235.18-.433.306-.604.145-.203.345-.382.563-.505.194-.11.417-.19.68-.245.443-.09.872-.095 1.288-.1l.5-.002h.176c.204 0 .408 0 .616-.003.984-.015 1.86-.09 2.68-.23.932-.157 1.89-.41 2.85-.752.963-.344 1.95-.79 2.94-1.32l.23-.125.068-.036c.006-.007.09-.04.11-.048.042-.014.08-.026.123-.034.15-.032.328-.027.487.02.124.035.24.09.355.17.2.14.335.294.438.427.102.132.196.28.29.448.15.28.276.585.385.93.097.317.17.646.22.977.104.735.083 1.43-.064 2.07-.088.376-.222.725-.397 1.04-.057.098-.118.194-.18.284.144.18.27.373.37.575.19.376.313.794.36 1.238zm-21.1 12.892c0 .046.006.093.01.14.037.29.14.59.297.877.083-.084.16-.173.223-.264.122-.17.21-.355.26-.55.027-.1.043-.202.05-.3l.005-.152c0-.05-.004-.098-.01-.143-.022-.175-.09-.315-.184-.376-.045-.03-.098-.047-.155-.047-.057 0-.115.015-.17.044-.122.063-.222.19-.276.352-.028.08-.045.172-.05.267-.003.02-.004.047-.004.077l.002.075zm2.15-11.467c-.116.087-.228.154-.344.205-.08.034-.147.057-.213.073-.037.01-.076.02-.128.025-.05.008-.08.01-.104.01l-.045.002-.077-.003c-.03-.002-.06-.005-.088-.01l-.028-.002c-.073-.012-.144-.028-.213-.05-.127-.04-.254-.098-.375-.174-.207-.132-.393-.308-.554-.524-.253-.342-.438-.754-.565-1.262-.05-.204-.09-.417-.12-.652-.028-.228-.045-.442-.05-.655l-.012-.612c-.007-.196-.015-.392-.032-.586-.038-.46-.104-.804-.207-1.08-.06-.16-.134-.29-.218-.384-.085-.098-.187-.17-.323-.226-.286-.117-.692-.14-1.052-.147-.274-.005-.558 0-.845.004l-.404.006-.34.002c-.348 0-.662-.006-.957-.02-.896-.037-1.78-.143-2.63-.316-1.638-.333-3.34-.946-5.054-1.822-.2-.103-.407-.21-.6-.317l-.02-.01c-.008.005-.02.013-.032.023-.09.067-.2.2-.3.36-.09.15-.177.326-.255.523-.145.368-.248.766-.305 1.184-.058.423-.064.834-.018 1.22.05.422.164.796.334 1.112.03.054.062.108.096.162.18-.11.366-.206.557-.28.465-.185.983-.29 1.542-.31l.152-.002h.14c.035 0 .08.003.114.006.167.012.315.04.454.082.164.048.317.12.455.21.154.103.29.236.39.383.11.164.185.35.213.54.03.197.013.4-.05.59-.06.184-.167.355-.306.496-.126.128-.277.23-.45.306-.146.064-.302.106-.478.128-.08.01-.157.015-.232.015h-.188c-.27-.008-.52-.03-.764-.072-.563-.093-1.062-.28-1.483-.555-.05-.032-.098-.066-.146-.102-.202.27-.346.593-.42.943-.078.382-.077.802.005 1.213.163.83.65 1.592 1.3 2.04.335.232.724.39 1.126.458.163.03.333.043.506.044.05-.15.11-.298.178-.443.204-.444.48-.88.843-1.334.08-.102.165-.2.25-.297l.04-.046c.074-.082.147-.162.235-.247.235-.226.475-.39.732-.506.322-.143.654-.193.972-.143.383.057.727.28.92.598.1.165.16.356.176.554.014.18-.01.367-.07.544-.098.285-.27.544-.53.79-.1.097-.21.186-.333.273l-.16.108-.108.07-.054.034c-.23.145-.45.27-.672.383-.497.25-.993.43-1.473.533-.086.018-.173.034-.26.047-.013.092-.022.18-.025.266-.02.424.068.845.252 1.217.18.368.452.705.81 1.003.328.272.718.504 1.16.687.815.337 1.773.493 2.73.46.926-.035 1.873-.256 2.738-.637.495-.218.977-.496 1.432-.827l.21-.656.553-1.803c.037-.118.082-.255.13-.38.103-.275.216-.518.345-.74.168-.288.336-.506.53-.688.127-.12.26-.214.4-.285.097-.045.187-.076.277-.093.108-.022.233-.024.346 0 .127.025.25.086.348.17.087.076.158.172.21.284.095.206.108.396.11.54-.005.35-.097.65-.178.872-.087.24-.202.48-.35.74-.126.22-.268.44-.434.667l-.144.193-.09.117c-.084.105-.166.205-.25.305-.17.2-.35.392-.535.573-.255.253-.53.492-.814.712-.056.168-.113.336-.172.503-.198.57-.376 1.026-.558 1.437-.176.39-.422.902-.77 1.39-.328.45-.694.847-1.086 1.178-.44.368-.912.648-1.408.83-.252.095-.52.168-.794.216-.282.05-.57.072-.79.086l-.046.003c-.053.003-.106.007-.155.012.017.172.056.333.116.48.143.36.428.687.823.943.347.227.772.404 1.264.527.44.11.913.17 1.403.178h.128c.44 0 .872-.04 1.287-.12.494-.095.94-.242 1.324-.433.06-.03.12-.063.18-.098-.234-.398-.38-.81-.435-1.226-.01-.088-.017-.154-.02-.222v-.113c0-.028 0-.065.003-.11.01-.166.04-.318.09-.465.113-.342.348-.628.642-.782.162-.086.34-.13.52-.13.22.003.418.066.58.177.15.102.278.25.366.424.073.142.12.304.145.48.012.078.017.155.02.23 0 .03 0 .063-.002.09 0 .04-.002.07-.004.1v.03c-.01.148-.036.295-.073.442-.072.282-.202.56-.376.802-.11.157-.24.303-.392.443.064.07.13.134.197.194.165.146.346.274.538.378.328.18.686.286 1.066.32l-.084-14.05c0-.085 0-.165-.002-.245-.108.115-.214.21-.326.296zm-15.284-3.2c.273.15.58.252.925.31.1.017.2.03.304.04.1.01.208.016.307.018l.145.003c.057 0 .093-.004.128-.007.07-.01.136-.026.187-.05.094-.038.158-.1.18-.17.024-.066.012-.14-.032-.204-.053-.08-.155-.146-.282-.184-.067-.02-.144-.034-.232-.04l-.115-.006v-.11l-.015.11h-.052l-.108.004c-.447.014-.85.09-1.202.228-.046.018-.092.038-.138.06zm2.668 5.246c.315-.088.638-.214.963-.375.19-.094.39-.206.592-.332l.22-.14c.026-.02.044-.03.064-.044.088-.062.165-.124.23-.186.14-.13.243-.273.287-.402.04-.12.036-.226-.015-.31-.05-.085-.15-.148-.27-.167-.034-.006-.067-.008-.102-.008-.11 0-.233.027-.352.08-.154.065-.315.177-.468.32-.066.063-.137.14-.206.217l-.023.025c-.077.084-.152.172-.225.26-.296.365-.525.71-.696 1.06zm9.908 2.214c.084-.09.165-.18.244-.27.077-.09.154-.183.227-.275.032-.04.064-.082.096-.125l.124-.164c.317-.435.54-.83.68-1.208.084-.222.128-.427.13-.594 0-.093-.016-.162-.03-.192v-.012c-.017 0-.055.006-.104.03-.067.033-.138.085-.206.15-.134.124-.263.294-.384.503-.107.183-.204.393-.29.622-.043.11-.078.214-.116.336l-.37 1.198zM18.51 7.7c.273-.68.49-1.393.643-2.117.164-.783.238-1.483.228-2.137-.005-.38-.036-.727-.092-1.03-.064-.356-.16-.672-.29-.94-.067-.143-.148-.273-.237-.388-.09-.117-.19-.21-.29-.27-.048-.03-.096-.052-.137-.06l-.002-.04-.014.024-.004-.024-.006.033H18.288l-.03.002c-.098.023-.207.088-.304.177-.185.168-.35.423-.48.737-.11.274-.192.584-.245.922-.048.284-.074.602-.08.97l-.002.063.02.514c.002.05.005.098.01.147l.022.22c.074.614.196 1.235.376 1.92.15.58.333 1.174.558 1.82l.06.168c.11-.224.216-.462.317-.71zm2.56 14.12c-.037-.173-.12-.318-.234-.41-.073-.058-.162-.09-.245-.09-.03 0-.06.004-.09.014-.1.034-.183.138-.225.284-.022.08-.034.173-.036.266-.002.107.005.208.02.302.03.198.098.387.2.56.08.146.19.285.323.418.138-.25.232-.504.28-.757.01-.05.016-.104.022-.152l.01-.158c.002-.093-.007-.19-.026-.276zm.367-7.596l-.084-.273c-.062-.206-.127-.42-.21-.627-.083-.21-.175-.4-.274-.57-.116-.193-.235-.35-.354-.466-.066-.063-.133-.116-.195-.152-.06-.036-.114-.05-.135-.05-.01.006-.03.047-.038.107-.02.13.002.31.06.512.097.337.276.702.546 1.116.06.09.118.175.182.263l.197.262c.133.17.273.335.418.494l.113.12-.226-.736zm10.044-1.638c-.17-.315-.382-.626-.65-.95-.062-.075-.126-.15-.19-.22l-.195-.21c-.13-.127-.26-.23-.385-.3-.135-.076-.272-.123-.396-.136-.027-.003-.052-.004-.076-.004-.09 0-.174.02-.242.056-.16.09-.205.248-.124.447.044.108.124.222.234.33.055.053.117.107.18.154l.217.15c.577.376 1.144.643 1.687.794l-.06-.112zm1.588-5.362l-.358-.013h-.007l-.086.004c-.125.008-.237.032-.325.07-.144.062-.233.168-.228.27.004.1.087.18.228.225.04.012.088.02.142.027.034.004.073.005.12.005h.065c.16-.003.306-.012.45-.028.402-.045.772-.15 1.083-.31-.32-.138-.684-.222-1.085-.25zm48.22 16.924c0 .768-.59 1.365-1.446 1.365h-1.015v-2.73h1.015c.855 0 1.446.588 1.446 1.365zm-1.982.928h.536c.57 0 .945-.386.945-.928 0-.535-.374-.93-.945-.93h-.536v1.858zm4.777.437h-.478v-2.73h.478v2.73zm20.813-2.777c.836 0 1.42.635 1.42 1.412 0 .768-.592 1.412-1.427 1.412-.837 0-1.42-.636-1.42-1.412 0-.77.59-1.412 1.426-1.412zm0 2.383c.54 0 .918-.434.918-.972 0-.53-.385-.972-.925-.972-.542 0-.92.433-.92.972 0 .53.386.97.926.97zm4.145-.785c0 .507.26.78.69.78.422 0 .683-.258.683-.76V22.78h.478v1.55c0 .814-.457 1.223-1.17 1.223-.706 0-1.157-.41-1.157-1.2V22.78h.478v1.553z" id="path-1" class="cls-2" fill-rule="evenodd"/></svg>