<svg xmlns="http://www.w3.org/2000/svg" preserveAspectRatio="xMidYMid" width="387" height="220" viewBox="0 0 387 220"><defs><style>.cls-2 { fill: #66b0e1; }</style></defs><path d="M383.088 214.376c.55.195 1.037.554 1.386 1.038.934 1.296.637 3.11-.662 4.04-.512.37-1.103.545-1.69.545-.903 0-1.793-.42-2.36-1.205-.735-1.02-.707-2.362-.028-3.34h-67.946v-1.247h69.395l5.085-3.648.73 1.01-3.91 2.806zm-.97 1.078h-.533l-.433.31c-.74.53-.91 1.565-.377 2.304.532.74 1.568.908 2.31.377.74-.532.908-1.565.376-2.304-.31-.43-.81-.686-1.342-.686zm-44.198-34.86l5.43-.55v-30.95h-.717l-16.06 34.928h-5.832l-16.217-34.927h-.72v30.94l5.514.56v3.427h-15.34v-3.428l5.273-.56V148.38l-5.273-.798v-3.43H307.4l16.377 35.326 16.3-35.325h13.182v3.51l-5.274.718v31.657l5.273.56v3.427h-15.34v-3.428zm-41.455 31.314h-4.863v2.23h4.31v1.35h-4.31v2.304h4.925v1.348h-6.435v-8.58h6.373v1.348zm-15.144 7.232l-2.135-2.99h-1.867v2.99h-1.51v-8.58h3.83c2.016 0 3.194 1.08 3.194 2.733 0 1.41-.847 2.255-2.05 2.6l2.32 3.247h-1.78zm-.023-5.786c0-.92-.663-1.42-1.78-1.42h-2.2v2.88h2.212c1.08 0 1.767-.565 1.767-1.46zm-16.667 5.92c-2.235 0-3.66-1.286-3.66-3.774v-4.94h1.51v4.88c0 1.592.823 2.45 2.174 2.45 1.34 0 2.162-.81 2.162-2.39v-4.94h1.51v4.866c0 2.562-1.448 3.848-3.696 3.848zm-7.454-172.65c-1.18 1.146-2.518 2.067-3.98 2.736-1.455.675-3.043 1.09-4.715 1.23-.188.018-.377.03-.565.036.106 1.334.016 2.625-.27 3.844-.394 1.69-1.18 3.343-2.274 4.785-1.005 1.333-2.278 2.53-3.783 3.553-1.355.922-2.886 1.702-4.553 2.317-2.88 1.06-6.023 1.597-9.343 1.597-.206 0-.414 0-.62-.006-3.424-.082-6.78-.722-9.973-1.902-1.502-.552-2.984-1.236-4.42-2.04.227.622.46 1.24.706 1.85.72 1.8 1.39 3.23 2.11 4.503.4.714.842 1.398 1.312 2.035.06.086.107.147.176.234l.583.737c.256.31.522.623.798.924 1.158 1.274 2.39 2.33 3.667 3.14 1.373.876 2.842 1.488 4.354 1.817.752.166 1.528.27 2.38.316.362.02.72.03 1.098.04l.172.003c.205.005.412.01.64.022l.256.022c.092.008.186.02.293.04.22.042.442.086.76.255.405.116.97.967.86 1.567v.266c-.012.283-.034.538-.062.79-.063.526-.17 1.036-.31 1.516-.284.97-.743 1.902-1.372 2.77-1.09 1.494-2.64 2.74-4.61 3.7-1.61.79-3.38 1.35-5.41 1.713-1.783.32-3.686.44-5.59.405-1.92-.057-3.796-.3-5.573-.724-2.04-.492-3.792-1.168-5.354-2.065-.07-.04-.135-.078-.2-.12-1.18 1.31-2.545 2.35-4.06 3.09-.937.458-1.904.8-2.874 1.01-.674.148-1.356.24-2.073.277l-.227 31.198c0 .304-.25 3.768-.56 3.768h-.007c-.304-.006-.55-3.468-.55-3.77l-.227-31.204c-1.853-.12-3.66-.633-5.25-1.498-.884-.478-1.722-1.062-2.493-1.733-.385-.343-.76-.718-1.123-1.118-.347.208-.71.406-1.08.593-1.666.828-3.492 1.43-5.584 1.837-1.718.33-3.5.498-5.3.498l-.48-.002c-2.012-.035-3.956-.278-5.78-.722-2.148-.53-3.95-1.28-5.516-2.29-.906-.584-1.71-1.263-2.39-2.02-.75-.836-1.33-1.755-1.727-2.734-.404-.977-.63-2.044-.674-3.17l-.002-.14c-.003-.08-.005-.16 0-.337-.02-.22.168-.912.5-1.202.244-.29.547-.444.78-.544.232-.094.424-.143.594-.177.3-.063.556-.088.806-.112l.76-.055c.825-.054 1.706-.123 2.593-.283.83-.147 1.645-.366 2.417-.652 1.514-.562 2.965-1.42 4.315-2.55 1.26-1.06 2.437-2.337 3.496-3.794.868-1.21 1.67-2.66 2.52-4.562.44-.98.866-2.038 1.325-3.274-.812.45-1.635.858-2.46 1.222-3.545 1.572-7.295 2.455-11.145 2.624-4.005.17-7.887-.448-11.34-1.84-1.92-.78-3.63-1.78-5.087-2.966-1.664-1.357-2.953-2.93-3.83-4.68-.934-1.83-1.385-3.908-1.305-6.007.008-.218.024-.436.044-.652-.574-.026-1.133-.084-1.668-.17-1.997-.322-3.928-1.09-5.587-2.22-1.617-1.097-3.048-2.573-4.135-4.267-1.064-1.655-1.81-3.483-2.217-5.435-.413-2.012-.428-4.002-.044-5.91.404-2.017 1.278-3.88 2.532-5.393-.31-.433-.585-.87-.818-1.303-.856-1.583-1.416-3.412-1.66-5.438-.21-1.738-.185-3.572.075-5.45.26-1.84.718-3.595 1.362-5.22.38-.943.783-1.762 1.24-2.5.28-.458.564-.858.865-1.22.39-.472.773-.844 1.21-1.172.422-.31 1.087-.734 2.017-.86.452-.06.938-.026 1.37.098.223.064.437.144.628.24.135.07.19.098.244.13.808.442 1.492.8 2.205 1.17 5.976 3.062 11.887 5.21 17.564 6.377 2.926.612 5.975.997 9.067 1.144 1.223.062 2.506.092 4.04.092l.533-.002c.51 0 1.02-.005 1.532-.01 1.036-.007 2.084-.016 3.156.005.986.026 1.754.08 2.49.176 1.05.14 1.903.356 2.688.682.977.405 1.87 1.046 2.513 1.806.587.677 1.06 1.5 1.436 2.515.61 1.702.81 3.364.934 4.908.055.718.09 1.485.105 2.347l.02 2.246c.04 1.506.203 2.865.48 4.027.325 1.385.814 2.53 1.454 3.404.336.46.723.84 1.116 1.095.195.125.395.22.59.283.097.033.19.055.286.073l.133.013.022-.05.24.034c.127-.032.204-.06.282-.09.178-.075.38-.194.6-.354.413-.306.84-.72 1.268-1.227.407-.482.805-1.024 1.213-1.658-.088-.317-.187-.634-.294-.937l-.6-1.612c-.876-2.39-1.594-4.614-2.198-6.798-.726-2.617-1.227-4.992-1.53-7.258l-.11-.942c-.025-.218-.042-.437-.057-.657l-.097-2.01.002-.25c.007-1.49.094-2.737.27-3.922.214-1.455.545-2.753 1.015-3.962.28-.706.59-1.34.96-1.933.44-.704.91-1.287 1.44-1.778.51-.464 1.225-1.03 2.256-1.295.115-.032.253-.06.423-.08.282-.04.345-.025.442-.025.168 0 .24.006.356.02.14.02.274.037.4.07.43.1.854.272 1.284.524.666.395 1.266.924 1.836 1.62.467.577.88 1.225 1.23 1.925.606 1.225 1.05 2.58 1.35 4.143.136.683.242 1.395.314 2.12.033.294.055.597.076.898l.01.16c.024.355.04.725.05 1.072.042 1.344-.01 2.774-.155 4.248-.135 1.363-.347 2.782-.63 4.217-.563 2.83-1.37 5.618-2.402 8.288-.58 1.488-1.173 2.807-1.817 4.037-.38.716-.74 1.34-1.098 1.908.093.626.155 1.238.183 1.82.03.55.027 1.102.023 1.627l-.13 23.567-.177 27.88c.502-.036.992-.105 1.46-.208.76-.167 1.517-.436 2.25-.796 1.11-.54 2.158-1.32 3.054-2.267-.797-.74-1.45-1.546-1.938-2.4-.53-.913-.896-1.947-1.06-2.988-.08-.498-.117-1.015-.11-1.58.01-.604.09-1.155.24-1.685.188-.648.48-1.216.87-1.688.442-.544 1.047-.967 1.705-1.192.642-.224 1.375-.27 2.068-.12.64.14 1.256.432 1.778.846.92.728 1.573 1.82 1.837 3.07.12.553.17 1.1.153 1.675l-.048.764c-.032.283-.066.533-.115.79-.258 1.34-.765 2.655-1.515 3.916 1.298.738 2.83 1.322 4.555 1.736 1.59.377 3.276.596 5.006.644 1.717.038 3.416-.073 5.024-.362 1.745-.314 3.32-.81 4.684-1.475 1.54-.753 2.777-1.735 3.575-2.842.44-.608.76-1.258.956-1.93.09-.298.155-.606.196-.915l-.032-.002c-.434-.008-.892-.017-1.358-.042-.983-.052-1.933-.176-2.82-.37-1.813-.39-3.637-1.146-5.265-2.18-1.486-.943-2.913-2.157-4.24-3.613-.31-.336-.608-.682-.9-1.035l-.63-.797c-.06-.072-.146-.187-.218-.287-.523-.708-1.028-1.486-1.498-2.308-.787-1.39-1.513-2.93-2.285-4.844-.57-1.417-1.12-2.93-1.787-4.91l-.184-.56-.095-.07c-.165-.128-.332-.255-.494-.385-1.314-1.063-2.578-2.257-3.754-3.553-.573-.635-1.134-1.302-1.667-1.98l-.775-1.032c-.256-.353-.512-.725-.75-1.084-.795-1.223-1.78-2.88-2.362-4.873-.146-.516-.244-.99-.298-1.45-.073-.632-.07-1.136.007-1.64.117-.755.382-1.367.815-1.872.286-.328.654-.593 1.04-.752.338-.142.725-.22 1.113-.22.924.032 1.56.34 1.965.57.45.262.868.584 1.282.985.637.623 1.198 1.356 1.766 2.305.446.76.848 1.595 1.197 2.485.34.84.61 1.73.848 2.514l.27.89c.742 2.422 1.484 4.85 2.265 7.263 2.166 1.568 4.51 2.815 6.974 3.708 2.916 1.062 5.943 1.622 9 1.666h.344c3.038 0 5.89-.494 8.474-1.468 1.427-.543 2.725-1.214 3.854-1.997 1.21-.837 2.225-1.8 3.018-2.868.826-1.11 1.39-2.32 1.67-3.594.23-1.056.27-2.17.112-3.316-.31-.05-.623-.106-.927-.17-2.807-.596-5.6-1.83-8.544-3.77l-.997-.704c-.393-.306-.71-.587-1.01-.886-.754-.76-1.285-1.547-1.628-2.407-.44-1.087-.497-2.31-.16-3.352.35-1.117 1.198-2.115 2.27-2.664.94-.49 2.093-.682 3.184-.546.93.11 1.864.43 2.77.952.73.42 1.427.968 2.13 1.67l.828.898c.267.305.528.614.78.92 1.11 1.363 2 2.688 2.722 4.057.44.826.81 1.672 1.106 2.517.343 0 .686-.015 1.025-.048 1.245-.123 2.41-.438 3.464-.938 2.095-.98 3.874-2.727 5.013-4.918 1.122-2.143 1.593-4.563 1.336-6.812-.134-1.145-.45-2.212-.945-3.168-.19-.37-.41-.724-.66-1.058-.896.64-1.886 1.167-2.95 1.565-1.24.468-2.608.785-4.057.938-.654.07-1.317.11-2.037.12h-.25l-.286-.002h-.004c-.056 0-.185-.005-.3-.012-.11-.006-.206-.017-.303-.028-.497-.052-.92-.138-1.33-.268-.692-.215-1.685-.662-2.486-1.574-.73-.815-1.163-1.904-1.19-2.987-.042-1.06.313-2.168.967-3.037.57-.768 1.377-1.387 2.33-1.792.76-.322 1.59-.51 2.536-.567.214-.012.393-.017.626-.017l1.574.064c1.547.12 3 .416 4.326.885.87.303 1.713.697 2.502 1.174.566-.9.987-1.93 1.25-3.065.432-1.83.49-3.858.17-6.024-.307-2.092-.917-4.028-1.766-5.597-.226-.417-.462-.782-.695-1.082-.234-.302-.483-.556-.67-.68-.004-.002-.008-.003-.01-.006l-.79.423c-3.89 2.057-7.714 3.742-11.377 5.006-3.68 1.285-7.44 2.23-11.178 2.808-3.14.488-6.36.725-9.84.725l-.618-.004c-.968-.005-1.92-.025-2.845-.046-.638-.014-1.264-.028-1.876-.036-.307-.003-.61-.006-.91-.006-.934 0-2.142.024-3.174.21-.586.104-1.088.265-1.492.48-.402.214-.73.487-.998.836-.503.645-.88 1.586-1.15 2.88-.202.97-.335 2.034-.422 3.352-.034.555-.056 1.106-.075 1.64l-.047 1.643c-.112 2.336-.478 4.388-1.09 6.106-.666 1.867-1.656 3.387-2.865 4.395-.627.526-1.33.92-2.035 1.134-.17.055-.354.096-.532.13l-.654.08h-.135l-.133.002-.112-.003c-.146-.006-.294-.02-.437-.034-.553-.06-1.104-.226-1.555-.46-.405-.207-.688-.42-.894-.577-.206-.164-.366-.3-.452-.374l-.13-.115c-.487-.426-.535-1.172-.108-1.66.398-.452 1.124-.527 1.603-.162l.138.105c.088.068.198.148.36.258.146.095.33.214.54.302.22.095.44.144.717.158l.173.005.123-.003.005.04v-.04l.002.042.152-.052.235-.045c.094-.024.176-.044.258-.077.377-.135.753-.372 1.097-.69.786-.71 1.456-1.876 1.888-3.282.464-1.464.707-3.234.727-5.265l-.014-1.6c-.002-.577.006-1.158.026-1.762.038-1.014.114-2.365.37-3.82.144-.794.314-1.462.536-2.106.302-.858.67-1.58 1.127-2.205.532-.742 1.266-1.398 2.066-1.845.715-.404 1.535-.698 2.504-.897 1.623-.323 3.2-.345 4.726-.367l1.838-.002h.646c.748 0 1.5-.002 2.26-.014 3.615-.052 6.834-.327 9.846-.84 3.42-.57 6.94-1.495 10.465-2.747 3.534-1.26 7.162-2.883 10.79-4.82l.85-.46c.065-.036.206-.11.25-.132.02-.022.324-.144.406-.172.15-.05.295-.095.45-.126.54-.115 1.2-.1 1.782.07.456.134.883.338 1.305.627.738.508 1.23 1.074 1.61 1.56.373.482.72 1.017 1.06 1.635.555 1.022 1.017 2.134 1.416 3.4.358 1.155.628 2.355.807 3.566.384 2.684.305 5.227-.236 7.56-.323 1.373-.816 2.648-1.46 3.795-.208.363-.43.713-.664 1.042.535.66.99 1.364 1.36 2.1.706 1.38 1.152 2.904 1.322 4.525.324 3.072-.308 6.196-1.823 9.03-.76 1.425-1.717 2.7-2.84 3.787zM184.353 80.9c.003.17.022.34.04.514.135 1.06.507 2.15 1.087 3.203.31-.31.588-.632.825-.963.447-.623.77-1.3.956-2.01.097-.368.158-.74.185-1.098l.016-.555c-.003-.184-.013-.36-.037-.525-.08-.637-.33-1.148-.673-1.373-.166-.115-.36-.175-.572-.175-.204 0-.416.055-.615.16-.45.23-.82.7-1.016 1.288-.102.295-.167.632-.19.98-.005.075-.008.168-.01.28l.006.274zm7.896-41.884c-.426.315-.836.56-1.262.747-.292.125-.54.21-.783.268-.138.035-.28.07-.472.09-.187.027-.292.03-.38.035-.063.003-.12.005-.168.005l-.28-.01c-.12-.008-.225-.02-.327-.03l-.104-.014c-.268-.042-.53-.1-.78-.18-.472-.146-.938-.36-1.38-.64-.762-.48-1.447-1.122-2.038-1.913-.93-1.247-1.61-2.753-2.078-4.607-.188-.747-.33-1.525-.438-2.383-.104-.835-.165-1.616-.19-2.392l-.04-2.235c-.023-.716-.056-1.432-.118-2.14-.143-1.683-.385-2.937-.762-3.942-.225-.59-.494-1.065-.8-1.406-.313-.36-.688-.62-1.187-.825-1.05-.43-2.543-.513-3.865-.538-1.004-.02-2.048.002-3.1.016l-1.483.02c-.415.005-.832.006-1.25.006-1.284 0-2.435-.022-3.518-.07-3.29-.135-6.54-.524-9.655-1.155-6.017-1.215-12.264-3.455-18.562-6.657-.733-.373-1.493-.77-2.204-1.156l-.07-.036c-.03.02-.07.047-.118.083-.332.244-.74.737-1.096 1.32-.338.548-.654 1.188-.94 1.908-.533 1.344-.91 2.798-1.12 4.323-.216 1.547-.238 3.047-.068 4.457.188 1.542.602 2.91 1.227 4.065.11.2.228.398.355.593.657-.407 1.344-.75 2.045-1.026 1.706-.673 3.61-1.05 5.66-1.123.184-.01.373-.014.563-.016h.511c.133.007.292.013.42.022.616.047 1.16.146 1.67.3.602.177 1.165.438 1.67.773.567.373 1.062.856 1.43 1.395.41.595.68 1.276.784 1.97.11.718.047 1.463-.185 2.153-.224.672-.61 1.298-1.12 1.81-.463.47-1.02.846-1.656 1.12-.535.23-1.108.385-1.753.467-.29.03-.577.055-.853.055h-.25l-.436-.005c-.994-.025-1.91-.11-2.81-.257-2.066-.342-3.897-1.025-5.444-2.03-.182-.116-.36-.24-.537-.37-.745.98-1.275 2.164-1.54 3.444-.293 1.4-.288 2.932.012 4.434.6 3.028 2.386 5.815 4.78 7.456 1.226.844 2.653 1.42 4.13 1.67.595.1 1.22.153 1.854.155.188-.543.407-1.088.654-1.62.747-1.623 1.76-3.217 3.095-4.873.298-.372.604-.732.917-1.086l.15-.165c.268-.298.536-.593.86-.903.864-.824 1.743-1.428 2.687-1.847 1.182-.525 2.403-.71 3.568-.525 1.407.208 2.67 1.025 3.375 2.185.37.6.597 1.3.652 2.023.048.656-.042 1.343-.262 1.988-.355 1.043-.99 1.988-1.938 2.887-.374.355-.775.682-1.23 1l-.584.394c-.123.08-.258.168-.393.252l-.2.13c-.843.53-1.648.986-2.466 1.398-1.828.92-3.65 1.576-5.41 1.947-.316.07-.635.127-.955.175-.05.336-.08.656-.093.97-.072 1.554.25 3.093.926 4.452.66 1.344 1.66 2.575 2.976 3.662 1.2.993 2.634 1.84 4.26 2.51 2.99 1.23 6.51 1.798 10.027 1.677 3.396-.127 6.87-.932 10.05-2.326 1.82-.793 3.588-1.808 5.26-3.02.26-.795.515-1.593.768-2.395l2.03-6.585c.137-.433.302-.934.475-1.384.38-1.01.797-1.897 1.272-2.71.616-1.05 1.232-1.847 1.94-2.513.47-.44.955-.78 1.477-1.04.354-.17.682-.28 1.015-.345.395-.077.854-.086 1.27 0 .464.094.917.317 1.274.628.32.274.58.622.774 1.032.347.75.396 1.445.4 1.967-.015 1.282-.356 2.377-.65 3.188-.32.872-.742 1.755-1.29 2.705-.46.803-.98 1.6-1.59 2.434l-.53.708c-.106.14-.215.28-.334.43-.303.382-.605.746-.918 1.11-.626.728-1.286 1.434-1.96 2.096-.938.923-1.943 1.797-2.99 2.6-.206.615-.415 1.226-.63 1.837-.73 2.08-1.385 3.75-2.054 5.25-.645 1.428-1.55 3.295-2.833 5.08-1.2 1.644-2.542 3.092-3.984 4.302-1.61 1.344-3.347 2.365-5.168 3.034-.927.342-1.91.608-2.915.783-1.036.185-2.096.265-2.903.316l-.17.01c-.194.012-.388.024-.566.042.063.63.204 1.22.426 1.757.53 1.317 1.575 2.506 3.024 3.443 1.277.83 2.837 1.476 4.643 1.923 1.62.397 3.354.616 5.154.65l.468.004c1.61 0 3.202-.15 4.728-.44 1.814-.35 3.45-.884 4.86-1.584.227-.113.448-.23.667-.356-.862-1.456-1.4-2.96-1.6-4.48-.037-.322-.063-.563-.068-.81l-.004-.113c-.003-.095-.007-.19-.005-.3 0-.106.006-.24.015-.4.04-.61.148-1.168.33-1.703.417-1.252 1.278-2.295 2.36-2.86.594-.31 1.252-.477 1.903-.477.816.014 1.54.245 2.136.65.555.375 1.02.91 1.344 1.548.266.52.445 1.11.533 1.752.04.287.06.57.064.847.003.11 0 .226-.002.322 0 .15-.008.262-.014.37l-.005.107c-.037.54-.127 1.08-.265 1.616-.267 1.028-.745 2.04-1.383 2.928-.41.572-.882 1.106-1.44 1.62.236.25.478.485.723.703.61.534 1.276 1 1.98 1.38 1.204.657 2.52 1.048 3.914 1.166l-.308-51.323c-.002-.304-.002-.598-.008-.888-.396.417-.784.766-1.197 1.08zm-56.127-11.692c1.005.547 2.133.92 3.4 1.134.367.06.737.11 1.115.144.37.033.764.058 1.128.068l.532.008c.21-.002.342-.014.47-.03.26-.03.5-.09.69-.174.344-.145.578-.366.664-.626.084-.243.04-.508-.12-.746-.195-.288-.57-.533-1.038-.67-.247-.076-.533-.126-.855-.153l-.424-.017v-.4l-.055.402h-.187c-.134.003-.268.005-.4.01-1.64.054-3.124.335-4.412.835-.17.065-.338.137-.507.214zm9.798 19.162c1.158-.317 2.342-.775 3.54-1.363.698-.345 1.43-.753 2.176-1.214l.803-.516c.1-.064.164-.106.236-.158.324-.223.61-.45.852-.675.514-.474.887-.995 1.047-1.466.152-.436.134-.826-.052-1.134-.184-.312-.556-.54-.996-.61-.12-.02-.244-.03-.37-.03-.408 0-.856.1-1.295.292-.564.24-1.157.647-1.716 1.173-.242.226-.503.512-.76.79l-.083.092c-.28.31-.558.63-.825.957-1.09 1.327-1.93 2.593-2.557 3.862zm36.387 8.094c.306-.325.605-.654.893-.987.286-.33.568-.67.836-1.004.116-.145.236-.3.352-.453l.45-.6c1.166-1.595 1.984-3.04 2.502-4.415.303-.81.467-1.563.473-2.173.002-.34-.06-.59-.113-.702l-.002-.044c-.057 0-.198.023-.376.11-.245.122-.51.312-.757.546-.49.456-.965 1.076-1.412 1.84-.39.67-.748 1.434-1.067 2.273-.156.408-.283.783-.423 1.228l-1.356 4.38zm13.132-26.423c1-2.488 1.794-5.09 2.36-7.734.6-2.863.874-5.417.835-7.81-.022-1.387-.137-2.652-.343-3.76-.232-1.3-.588-2.454-1.058-3.434-.25-.522-.547-1-.874-1.42-.336-.426-.707-.768-1.072-.987-.174-.107-.35-.186-.5-.222l-.007-.14-.054.09-.015-.092-.024.123c-.018 0-.037 0-.056-.004l-.006-.002-.11.012c-.364.08-.76.318-1.12.644-.68.617-1.287 1.55-1.758 2.7-.404.998-.71 2.13-.903 3.365-.173 1.042-.267 2.203-.292 3.552l-.004.226.07 1.876c.01.178.02.357.04.537l.082.8c.27 2.245.717 4.515 1.38 7.02.552 2.112 1.22 4.285 2.05 6.64l.22.618c.404-.817.793-1.688 1.16-2.598zm9.395 51.58c-.134-.637-.438-1.167-.856-1.497-.27-.216-.597-.34-.9-.34-.118 0-.23.02-.33.056-.377.127-.676.505-.83 1.04-.082.294-.128.63-.132.97-.007.392.02.76.075 1.103.115.725.36 1.413.73 2.05.3.527.7 1.037 1.19 1.522.507-.913.853-1.84 1.026-2.764.035-.186.062-.383.082-.557l.035-.575c.01-.34-.024-.7-.092-1.007zm1.35-27.75l-.307-1c-.23-.756-.467-1.537-.774-2.294-.303-.763-.64-1.463-1.006-2.08-.422-.705-.858-1.278-1.296-1.702-.24-.23-.486-.422-.716-.555-.228-.132-.422-.183-.498-.183-.034.02-.108.17-.138.39-.073.473.005 1.135.215 1.873.36 1.23 1.017 2.563 2.007 4.074.22.326.434.64.668.962l.725.956c.487.616 1.005 1.225 1.536 1.805.138.15.276.298.416.445l-.83-2.69zm36.885-5.984c-.625-1.153-1.408-2.29-2.392-3.473-.23-.273-.462-.54-.695-.8l-.72-.77c-.474-.463-.952-.834-1.414-1.092-.495-.28-.998-.452-1.454-.498-.097-.012-.19-.017-.28-.017-.33 0-.638.07-.886.206-.59.324-.754.904-.456 1.632.16.397.456.812.858 1.206.2.195.43.392.657.565l.8.55c2.12 1.372 4.2 2.346 6.194 2.898-.07-.135-.14-.272-.214-.407zm5.826-19.59l-1.315-.045h-.024c-.09.002-.217.004-.314.01-.46.03-.87.12-1.195.26-.528.224-.855.61-.836.984.014.364.32.662.837.82.148.05.324.082.522.102.125.016.266.02.436.02l.242-.003c.588-.008 1.13-.042 1.654-.1 1.477-.162 2.84-.55 3.98-1.136-1.173-.5-2.512-.807-3.986-.91zm-80.884 137.514c0 17.23-14.94 20.095-22.37 20.095h-21.173v-3.43l5.272-.557v-31.897l-5.273-.558v-3.43h21.17c7.112 0 22.372 2.548 22.372 19.777zm-33.556 15.948h12.065c5.673 0 16.618-2.44 16.618-15.948 0-13.51-11.505-15.63-17.497-15.63h-11.184v31.578zm-2.728 34.975c0 2.415-1.867 4.29-4.568 4.29h-3.205v-8.58h3.205c2.7 0 4.568 1.85 4.568 4.29zm-6.263 2.917h1.695c1.805 0 2.984-1.214 2.984-2.917 0-1.68-1.18-2.918-2.984-2.918h-1.695v5.835zm-15.144-7.207h6.375v1.348h-4.863v2.23h4.31v1.35h-4.31v2.304h4.924v1.348h-6.435v-8.58zm-11.25 8.64l-2.114-6.165-2.11 6.166h-1.303l-2.997-8.64h1.634l2.05 6.36 2.113-6.385h1.277l2.112 6.386 2.05-6.36h1.585l-2.996 8.64h-1.3zm-63.064-38.607l5.274-.558V148.14l-5.274-.56v-3.43h39.788v10.687h-3.836l-.718-6.54H45.993v12.2H70.6v4.148H45.993v15.23h26.285l.72-6.538h3.834v10.685H36.006v-3.43zM75.2 214.246v1.245H5.803L.72 219.14l-.73-1.01 3.91-2.806c-.55-.195-1.038-.554-1.387-1.04-.934-1.295-.637-3.108.662-4.04.512-.367 1.103-.544 1.69-.544.903 0 1.793.418 2.36 1.205.735 1.02.707 2.36.028 3.34H75.2zM6.21 211.63c-.533-.738-1.568-.907-2.31-.375-.74.53-.908 1.565-.376 2.304.31.43.812.686 1.343.686H5.4l.432-.31c.74-.532.91-1.566.378-2.305zm140.525 3.22c0 2.415-1.867 4.29-4.568 4.29h-3.206v-8.58h3.205c2.7 0 4.567 1.85 4.567 4.29zm-6.263 2.917h1.695c1.804 0 2.984-1.214 2.984-2.917 0-1.68-1.18-2.918-2.985-2.918h-1.696v5.835zm15.095 1.373h-1.512v-8.58h1.51v8.58zm13.706-2.648v-5.932h1.485v8.58h-1.263l-4.74-6.105v6.105h-1.487v-8.58h1.4l4.606 5.932zm13.154-6.08c1.498 0 2.42.417 3.303 1.165l-.957 1.14c-.663-.564-1.314-.92-2.407-.92-1.586 0-2.79 1.386-2.79 3.053 0 1.765 1.168 3.064 2.924 3.064.81 0 1.547-.257 2.075-.65v-1.605h-2.2v-1.312h3.66v3.603c-.846.724-2.062 1.337-3.585 1.337-2.69 0-4.458-1.912-4.458-4.437 0-2.403 1.842-4.437 4.433-4.437zm24.595 0c1.585 0 2.543.553 3.366 1.337l-.97 1.114c-.688-.637-1.424-1.066-2.407-1.066-1.645 0-2.837 1.348-2.837 3.052 0 1.68 1.192 3.052 2.837 3.052 1.057 0 1.732-.43 2.47-1.116l.97.98c-.897.933-1.88 1.52-3.49 1.52-2.504 0-4.37-1.948-4.37-4.436 0-2.44 1.83-4.437 4.432-4.437zm14.297 0c2.64 0 4.483 2 4.483 4.438 0 2.415-1.867 4.437-4.507 4.437-2.64 0-4.483-1.998-4.483-4.437 0-2.414 1.866-4.437 4.507-4.437zm0 7.49c1.707 0 2.898-1.36 2.898-3.052 0-1.667-1.216-3.052-2.922-3.052-1.708 0-2.9 1.36-2.9 3.052 0 1.667 1.217 3.052 2.924 3.052zm13.094-2.463c0 1.592.822 2.45 2.173 2.45 1.337 0 2.16-.81 2.16-2.39v-4.94h1.51v4.866c0 2.562-1.447 3.848-3.695 3.848-2.235 0-3.66-1.286-3.66-3.774v-4.94h1.51v4.88zm10.59-35.565l.718-6.538h3.835v10.685H208.73v-3.43l5.274-.557V148.14l-5.274-.56v-3.43h39.788v10.687h-3.835l-.72-6.54H218.72v12.2h24.607v4.148H218.72v15.23h26.285zm9.098 32.082h-2.726v7.183h-1.523v-7.183h-2.726v-1.397h6.974v1.397z" id="path-1" class="cls-2" fill-rule="evenodd"/></svg>