<svg xmlns="http://www.w3.org/2000/svg" preserveAspectRatio="xMidYMid" width="194" height="110" viewBox="0 0 194 110"><defs><style>.cls-2 { fill: #66b0e1; }</style></defs><path d="M192.04 107.188c.274.097.52.277.694.52.468.647.32 1.554-.332 2.02-.257.183-.553.272-.847.272-.453 0-.9-.21-1.183-.603-.37-.51-.355-1.18-.015-1.67h-34.06v-.623h34.787l2.55-1.824.364.505-1.96 1.403zm-.487.54h-.267l-.217.154c-.373.266-.457.783-.19 1.152.266.37.785.454 1.157.188.37-.265.456-.782.19-1.152-.157-.215-.408-.343-.674-.343zm-22.157-17.43l2.723-.277V74.55h-.36l-8.05 17.463h-2.925l-8.13-17.462h-.36v15.47l2.763.28v1.713h-7.69v-1.713l2.644-.28V74.19l-2.644-.4v-1.714h6.73l8.21 17.662 8.17-17.662h6.608v1.754l-2.643.36v15.828l2.643.28v1.713h-7.69v-1.713zm-20.78 15.656h-2.438v1.116h2.16v.674h-2.16v1.152h2.468v.674h-3.225v-4.29h3.196v.674zm-7.592 3.616l-1.07-1.496h-.937v1.496h-.757v-4.29h1.92c1.01 0 1.6.54 1.6 1.367 0 .705-.423 1.127-1.027 1.3l1.164 1.623h-.893zm-.012-2.893c0-.46-.333-.71-.892-.71h-1.103v1.44h1.11c.54 0 .885-.282.885-.73zm-8.355 2.96c-1.12 0-1.835-.643-1.835-1.887v-2.47h.758v2.44c0 .796.412 1.225 1.09 1.225.67 0 1.083-.405 1.083-1.195v-2.47h.757v2.433c0 1.28-.726 1.924-1.853 1.924zm-3.737-86.325c-.59.573-1.262 1.033-1.995 1.368-.73.337-1.525.544-2.364.615-.093.01-.188.014-.282.018.053.667.008 1.312-.136 1.922-.197.845-.59 1.67-1.14 2.392-.504.667-1.142 1.266-1.897 1.777-.68.46-1.446.85-2.282 1.16-1.443.53-3.02.797-4.683.797-.104 0-.208 0-.312-.002-1.716-.04-3.398-.36-5-.95-.752-.277-1.495-.62-2.214-1.02.113.31.23.618.353.924.36.9.697 1.615 1.058 2.252.2.356.422.698.658 1.017.03.044.053.075.088.118l.292.368c.13.156.262.312.4.462.58.637 1.198 1.165 1.838 1.57.69.44 1.425.744 2.183.91.376.082.766.134 1.193.157.18.01.36.015.55.02l.086.002c.103.002.207.004.32.01l.13.012c.045.003.092.01.146.018.11.02.222.043.382.128.203.058.486.483.43.784v.133c-.005.14-.016.27-.03.395-.032.263-.085.518-.156.758-.142.485-.372.95-.687 1.385-.547.748-1.324 1.37-2.31 1.852-.81.394-1.696.674-2.713.856-.894.16-1.848.22-2.802.202-.963-.028-1.903-.15-2.794-.362-1.023-.246-1.9-.584-2.684-1.033l-.1-.06c-.592.656-1.276 1.175-2.035 1.545-.47.23-.956.4-1.442.505-.338.074-.68.12-1.04.138l-.113 15.6c0 .152-.126 1.884-.28 1.884h-.004c-.15-.004-.275-1.735-.275-1.886l-.113-15.6c-.93-.06-1.836-.317-2.632-.75-.443-.238-.863-.53-1.25-.866-.193-.17-.38-.358-.562-.558-.175.104-.357.203-.542.296-.835.414-1.75.716-2.8.92-.86.164-1.753.248-2.655.248h-.24c-1.01-.02-1.984-.14-2.9-.362-1.075-.265-1.98-.64-2.763-1.145-.454-.292-.857-.632-1.198-1.01-.377-.418-.668-.878-.867-1.367-.202-.49-.316-1.022-.338-1.585v-.07c-.002-.04-.003-.078 0-.168-.01-.11.083-.455.25-.6.122-.145.274-.223.39-.273.117-.047.213-.07.298-.09.15-.03.28-.043.405-.054l.38-.03c.414-.025.856-.06 1.3-.14.417-.074.825-.183 1.212-.326.76-.28 1.486-.71 2.163-1.275.633-.53 1.222-1.168 1.753-1.897.435-.606.837-1.33 1.264-2.28.22-.49.433-1.02.664-1.638-.408.224-.82.43-1.234.61-1.777.787-3.657 1.23-5.587 1.313-2.008.086-3.954-.224-5.685-.92-.962-.39-1.82-.89-2.55-1.483-.834-.68-1.48-1.465-1.92-2.34-.468-.915-.694-1.954-.654-3.003.004-.11.012-.218.022-.327-.287-.013-.568-.042-.836-.085-1-.16-1.97-.545-2.8-1.11-.81-.548-1.528-1.287-2.073-2.134-.534-.826-.908-1.74-1.11-2.716-.21-1.006-.216-2-.024-2.955.202-1.01.64-1.94 1.27-2.697-.157-.217-.294-.436-.41-.652-.43-.79-.71-1.705-.833-2.718-.105-.87-.093-1.786.038-2.726.13-.92.36-1.797.683-2.61.19-.47.393-.88.622-1.25.14-.228.283-.428.434-.61.195-.235.387-.42.606-.585.212-.154.545-.366 1.01-.43.228-.03.472-.012.69.05.11.032.218.072.314.12.067.034.094.05.122.065.405.22.747.4 1.105.584 2.996 1.53 5.96 2.605 8.805 3.19 1.466.305 2.995.497 4.544.57.614.03 1.257.046 2.026.046h.267c.256 0 .51-.003.768-.006.52-.004 1.045-.008 1.582.003.494.012.88.04 1.248.088.527.07.954.178 1.348.34.49.203.938.524 1.26.904.295.34.532.75.72 1.257.306.852.406 1.684.47 2.456.026.358.044.742.05 1.172l.012 1.124c.02.753.1 1.432.24 2.013.163.693.408 1.265.73 1.702.168.23.362.42.56.548.097.062.197.11.295.142.05.016.096.027.143.036l.067.007.01-.025.12.017c.065-.016.103-.03.143-.046.09-.036.19-.096.3-.176.208-.153.422-.36.636-.613.205-.24.404-.513.61-.83-.046-.158-.096-.316-.15-.468l-.3-.807c-.44-1.196-.8-2.307-1.102-3.4-.364-1.307-.615-2.495-.767-3.628l-.056-.47c-.01-.11-.02-.22-.027-.33l-.05-1.004.002-.125c.004-.745.047-1.37.136-1.96.108-.73.274-1.377.51-1.982.14-.353.296-.67.48-.967.22-.352.457-.643.722-.888.256-.232.615-.515 1.132-.648.057-.016.126-.03.21-.04.143-.02.175-.013.224-.013.084 0 .12.003.178.01.07.01.138.02.2.035.216.05.428.136.644.263.334.197.635.462.92.81.235.29.442.613.617.962.304.613.526 1.29.678 2.072.067.34.12.696.156 1.06.018.146.03.298.04.448l.005.08c.01.178.02.363.025.536.02.672-.006 1.387-.078 2.124-.068.682-.174 1.39-.316 2.11-.282 1.413-.687 2.807-1.204 4.142-.29.744-.59 1.404-.912 2.02-.19.356-.37.67-.55.953.047.312.078.618.092.91.015.274.013.55.01.813l-.065 11.784-.088 13.94c.25-.018.496-.053.73-.104.382-.084.76-.218 1.13-.398.555-.27 1.08-.66 1.53-1.134-.4-.37-.727-.772-.972-1.2-.265-.455-.448-.972-.53-1.493-.04-.248-.06-.507-.056-.788.005-.303.045-.578.12-.843.095-.325.242-.61.437-.845.22-.272.524-.484.853-.596.322-.113.69-.136 1.037-.06.32.068.63.215.89.422.462.364.79.91.92 1.535.06.276.087.55.08.837l-.026.383c-.016.14-.033.267-.057.395-.13.67-.384 1.327-.76 1.958.65.37 1.42.66 2.284.868.798.19 1.643.298 2.51.322.86.02 1.712-.037 2.518-.18.875-.158 1.665-.406 2.35-.738.77-.377 1.39-.868 1.79-1.422.22-.304.382-.63.48-.965.044-.15.077-.303.097-.458h-.016c-.218-.004-.448-.01-.68-.022-.495-.026-.97-.088-1.415-.185-.91-.196-1.823-.573-2.64-1.09-.745-.47-1.46-1.078-2.126-1.806-.157-.168-.305-.342-.452-.518l-.316-.4c-.03-.035-.073-.092-.11-.142-.26-.354-.514-.743-.75-1.154-.394-.695-.758-1.464-1.145-2.422-.285-.708-.56-1.465-.895-2.454l-.093-.28-.048-.037c-.083-.063-.166-.127-.247-.192-.66-.532-1.293-1.13-1.883-1.776-.287-.32-.57-.652-.836-.992l-.387-.515c-.13-.177-.258-.363-.377-.542-.4-.61-.893-1.44-1.184-2.437-.075-.258-.124-.495-.15-.724-.037-.317-.036-.57.003-.82.058-.38.19-.685.408-.938.144-.164.33-.296.523-.375.17-.072.363-.11.557-.11.464.016.782.17.985.284.226.133.435.293.643.494.32.312.6.678.885 1.152.224.38.426.798.6 1.243.17.42.306.863.425 1.256l.137.445c.37 1.212.743 2.426 1.134 3.633 1.085.783 2.26 1.407 3.495 1.853 1.462.53 2.98.81 4.51.833h.175c1.522 0 2.95-.247 4.247-.734.715-.272 1.366-.607 1.932-1 .605-.417 1.114-.898 1.51-1.433.416-.555.698-1.16.838-1.796.117-.528.136-1.085.057-1.66-.156-.023-.312-.05-.465-.084-1.407-.298-2.808-.914-4.283-1.884l-.5-.354c-.197-.152-.356-.293-.505-.443-.38-.38-.645-.773-.817-1.203-.22-.544-.25-1.154-.08-1.676.175-.56.6-1.057 1.138-1.332.47-.246 1.05-.34 1.596-.273.465.054.933.214 1.387.475.366.21.716.484 1.07.835l.413.45c.134.15.265.306.39.46.557.68 1.003 1.343 1.366 2.027.22.414.406.836.554 1.26.172-.002.344-.01.514-.025.624-.06 1.21-.22 1.737-.47 1.05-.49 1.942-1.362 2.513-2.458.562-1.072.8-2.28.67-3.406-.067-.573-.226-1.106-.473-1.584-.096-.185-.207-.362-.33-.53-.45.322-.947.584-1.48.784-.622.233-1.307.392-2.034.47-.327.033-.66.054-1.02.058h-.273c-.028 0-.093-.004-.15-.007-.056-.004-.104-.01-.153-.015-.248-.026-.46-.07-.665-.134-.347-.106-.845-.33-1.247-.786-.365-.408-.583-.952-.597-1.493-.02-.53.16-1.084.486-1.52.286-.382.69-.692 1.168-.894.382-.162.798-.255 1.272-.284.107-.007.197-.01.313-.01l.79.033c.774.06 1.502.208 2.167.443.437.15.86.348 1.255.586.283-.45.495-.964.627-1.532.215-.915.243-1.928.084-3.012-.154-1.046-.46-2.014-.886-2.798-.113-.21-.23-.392-.348-.542-.118-.15-.242-.278-.337-.34-.002 0-.003-.002-.005-.003l-.395.212c-1.95 1.027-3.867 1.87-5.703 2.502-1.846.642-3.73 1.114-5.604 1.404-1.575.243-3.188.36-4.933.36h-.31c-.485-.003-.962-.014-1.426-.024-.32-.007-.633-.014-.94-.018-.154 0-.306-.003-.456-.003-.468 0-1.073.013-1.59.106-.294.052-.546.133-.748.24-.202.107-.366.243-.5.418-.253.323-.442.793-.577 1.44-.1.484-.168 1.017-.212 1.676-.017.278-.028.553-.037.82l-.024.822c-.056 1.168-.24 2.193-.547 3.052-.333.935-.83 1.695-1.435 2.198-.315.264-.668.46-1.02.567-.086.028-.178.048-.267.065l-.328.04h-.191c-.073-.003-.147-.01-.22-.017-.276-.03-.552-.113-.778-.23-.203-.103-.345-.21-.448-.29-.104-.08-.184-.148-.227-.185l-.064-.057c-.244-.214-.27-.587-.054-.83.2-.227.563-.265.804-.082l.07.053c.043.033.098.073.18.128.073.047.165.107.27.15.11.05.22.073.36.08l.086.003.062-.002.002.02v-.02.02l.077-.025.118-.022c.05-.01.09-.02.13-.038.19-.067.378-.186.55-.344.395-.356.73-.94.947-1.642.233-.732.355-1.617.365-2.632l-.007-.8c-.002-.29.002-.58.012-.88.02-.51.057-1.184.186-1.912.072-.397.157-.73.268-1.053.152-.43.337-.79.566-1.103.267-.37.635-.698 1.036-.92.36-.204.77-.35 1.255-.45.814-.162 1.605-.173 2.37-.184h1.245c.375 0 .75-.002 1.133-.008 1.812-.026 3.426-.163 4.936-.42 1.715-.285 3.48-.747 5.247-1.373 1.77-.632 3.59-1.443 5.408-2.412l.425-.23.127-.066c.01-.01.162-.072.203-.086.076-.025.148-.047.225-.062.27-.058.602-.05.894.035.227.065.442.167.653.312.37.254.616.537.807.78.187.24.36.51.53.818.28.51.51 1.067.71 1.7.18.577.317 1.178.406 1.783.193 1.342.153 2.614-.118 3.78-.162.686-.41 1.324-.733 1.897-.103.182-.215.357-.332.52.268.33.496.683.682 1.05.353.69.577 1.453.662 2.264.163 1.536-.154 3.097-.914 4.515-.38.71-.86 1.348-1.423 1.892zM92.415 40.45c0 .085.01.17.02.257.067.53.254 1.075.545 1.602.156-.156.294-.318.413-.483.224-.312.386-.65.48-1.006.048-.182.078-.367.092-.547l.008-.278c-.002-.092-.008-.18-.02-.262-.04-.32-.165-.574-.337-.687-.083-.058-.18-.087-.286-.087-.103 0-.21.026-.31.08-.225.114-.41.348-.508.642-.05.148-.084.317-.096.49-.002.038-.004.085-.004.14l.003.138zm3.958-20.942c-.213.158-.42.28-.632.373-.146.064-.27.106-.392.136-.07.017-.14.033-.236.043-.094.014-.147.015-.19.017l-.085.003-.14-.005c-.06-.004-.113-.01-.164-.016l-.052-.007c-.134-.02-.265-.05-.39-.09-.237-.073-.47-.18-.693-.32-.38-.24-.725-.56-1.02-.956-.467-.624-.808-1.377-1.042-2.304-.095-.373-.167-.763-.22-1.192-.052-.416-.083-.806-.096-1.195L91 12.878c-.012-.358-.03-.717-.06-1.07-.07-.842-.192-1.47-.382-1.972-.112-.295-.247-.532-.4-.702-.157-.18-.346-.31-.596-.413-.526-.214-1.274-.256-1.937-.268-.504-.01-1.027 0-1.555.008l-.743.01c-.208.002-.417.003-.626.003-.643 0-1.22-.01-1.763-.034-1.65-.07-3.278-.264-4.84-.58-3.016-.607-6.147-1.727-9.305-3.328-.367-.187-.748-.386-1.104-.58l-.036-.017-.06.04c-.165.124-.37.37-.548.662-.17.273-.328.593-.47.954-.268.672-.458 1.4-.563 2.162-.107.773-.118 1.523-.033 2.228.094.77.302 1.454.615 2.032.055.1.114.2.178.297.33-.204.673-.376 1.025-.514.855-.337 1.81-.526 2.837-.562.092-.005.187-.006.282-.007h.256l.212.01c.308.025.58.074.836.15.302.09.584.22.838.388.284.186.532.428.717.698.205.297.34.637.392.984.056.36.024.732-.093 1.077-.112.336-.305.65-.562.905-.23.234-.51.422-.83.56-.267.115-.555.192-.878.232-.145.016-.29.028-.428.028h-.125l-.22-.003c-.498-.012-.958-.055-1.408-.128-1.036-.172-1.954-.513-2.73-1.015-.09-.06-.18-.12-.27-.186-.372.49-.638 1.08-.77 1.72-.148.7-.145 1.467.005 2.218.3 1.514 1.196 2.908 2.396 3.728.615.422 1.33.71 2.07.835.3.05.612.078.93.078.095-.27.205-.543.33-.81.373-.81.88-1.608 1.55-2.436.15-.186.303-.366.46-.543l.075-.083c.135-.15.27-.297.432-.452.432-.412.873-.714 1.346-.923.593-.263 1.205-.356 1.79-.263.704.103 1.338.512 1.69 1.09.187.302.3.652.328 1.013.024.328-.02.672-.13.994-.18.522-.497.994-.973 1.443-.186.178-.387.34-.615.5l-.293.197c-.06.04-.13.084-.197.126l-.1.065c-.423.265-.826.493-1.236.7-.918.46-1.83.787-2.713.973-.16.034-.32.063-.48.088-.024.168-.04.328-.046.484-.034.778.127 1.547.466 2.227.33.67.83 1.286 1.492 1.83.602.497 1.32.92 2.136 1.255 1.498.615 3.263.9 5.026.84 1.703-.065 3.445-.467 5.038-1.165.912-.396 1.8-.904 2.637-1.51.13-.397.258-.796.385-1.197l1.018-3.293c.068-.217.15-.467.238-.692.19-.504.4-.948.637-1.355.31-.525.618-.924.973-1.256.236-.22.48-.39.74-.52.178-.085.342-.14.51-.173.197-.038.427-.043.635 0 .234.047.46.16.64.314.16.137.29.31.388.516.174.375.198.722.2.984-.007.64-.178 1.188-.325 1.594-.16.436-.372.877-.647 1.352-.23.4-.49.8-.797 1.217l-.266.355c-.054.07-.108.14-.168.215-.152.19-.304.373-.46.555-.314.364-.645.717-.983 1.048-.47.46-.974.898-1.5 1.3-.102.307-.207.613-.315.918-.366 1.042-.694 1.876-1.03 2.627-.322.714-.776 1.647-1.42 2.54-.6.822-1.274 1.546-1.997 2.15-.806.673-1.677 1.183-2.59 1.517-.464.172-.957.305-1.46.393-.52.092-1.05.132-1.456.157l-.085.006c-.1.006-.196.012-.285.02.03.315.102.61.213.88.266.658.79 1.253 1.516 1.72.64.416 1.423.74 2.328.963.81.198 1.68.308 2.583.325l.235.002c.807 0 1.605-.075 2.37-.22.91-.175 1.73-.442 2.436-.792.113-.056.224-.115.334-.178-.432-.728-.7-1.48-.802-2.24-.018-.16-.032-.282-.034-.405v-.056c-.003-.05-.005-.096-.004-.152 0-.053.003-.12.007-.2.02-.305.074-.584.166-.85.208-.627.64-1.15 1.182-1.43.298-.156.628-.24.955-.24.41.008.772.123 1.07.326.28.187.512.455.674.773.133.26.223.556.267.877.02.143.03.284.033.423v.16c-.002.076-.005.132-.008.185l-.003.054c-.018.27-.063.54-.133.808-.135.515-.374 1.02-.694 1.465-.205.285-.442.552-.72.808.116.126.238.243.36.352.306.267.64.5.993.69.603.33 1.263.524 1.96.583l-.153-25.662c0-.15 0-.297-.004-.443-.2.21-.393.383-.6.54zm-28.135-5.846c.503.274 1.07.46 1.703.567.186.03.37.054.56.07.186.018.384.03.566.035l.267.004c.105-.002.17-.008.236-.015.128-.016.25-.047.345-.088.172-.072.29-.183.332-.313.042-.122.02-.254-.06-.373-.098-.143-.286-.265-.52-.334-.124-.038-.267-.063-.43-.076l-.21-.008v-.2l-.028.2h-.096c-.067.002-.134.003-.2.006-.823.027-1.567.167-2.212.417-.085.032-.17.07-.254.107zm4.91 9.58c.58-.157 1.175-.386 1.775-.68.35-.173.717-.377 1.09-.608l.403-.257c.05-.032.083-.053.12-.08.162-.11.304-.223.427-.336.257-.237.444-.497.524-.733.077-.218.067-.413-.026-.567-.09-.156-.278-.27-.498-.305-.06-.01-.122-.015-.186-.015-.204 0-.43.05-.65.146-.282.12-.58.323-.86.587-.12.113-.25.255-.38.394l-.04.046c-.142.156-.28.316-.415.48-.545.663-.966 1.296-1.28 1.93zm18.24 4.048c.155-.163.304-.327.45-.493.142-.166.284-.335.418-.502l.176-.226.226-.3c.584-.8.995-1.52 1.254-2.21.152-.405.234-.78.237-1.086 0-.17-.03-.294-.058-.35v-.022c-.03 0-.1.012-.19.055-.122.06-.254.156-.38.273-.244.228-.482.538-.706.92-.196.335-.375.717-.535 1.137-.077.203-.14.39-.21.614l-.68 2.19zm6.584-13.212c.502-1.244.9-2.545 1.183-3.867.3-1.43.44-2.707.42-3.903-.012-.694-.07-1.327-.173-1.88-.116-.65-.294-1.227-.53-1.718-.126-.26-.274-.5-.438-.71-.17-.213-.355-.384-.538-.494-.087-.053-.175-.092-.25-.11l-.004-.07-.028.044-.007-.046-.012.06h-.03l-.002-.002-.055.006c-.182.04-.38.16-.56.322-.34.308-.646.774-.883 1.35-.202.5-.355 1.065-.452 1.683-.087.52-.134 1.1-.146 1.775l-.003.113.035.94c.004.09.01.178.02.27l.04.4c.135 1.12.36 2.256.692 3.51.277 1.055.612 2.14 1.028 3.318l.11.31c.202-.41.398-.845.582-1.3zm4.71 25.79c-.067-.318-.22-.583-.43-.748-.134-.108-.298-.17-.45-.17-.06 0-.115.01-.165.028-.19.064-.34.253-.416.52-.04.147-.063.315-.065.486-.004.195.01.38.037.55.058.363.18.708.366 1.026.15.264.35.52.597.76.254-.455.427-.92.514-1.38.017-.094.03-.192.04-.28l.018-.287c.005-.17-.012-.35-.046-.504zm.677-13.875l-.155-.5c-.115-.377-.234-.768-.388-1.146-.152-.382-.32-.732-.504-1.04-.212-.353-.43-.64-.65-.85-.12-.117-.244-.213-.36-.28-.113-.066-.21-.09-.248-.09-.018.01-.055.085-.07.194-.036.238.003.57.108.937.18.616.51 1.282 1.006 2.037.11.164.217.32.334.482l.363.478c.245.308.504.612.77.903l.208.222-.416-1.347zm18.49-2.99c-.314-.578-.707-1.146-1.2-1.738-.115-.137-.232-.27-.348-.4l-.36-.384c-.24-.232-.48-.417-.71-.546-.248-.14-.5-.226-.73-.25-.047-.005-.095-.007-.14-.007-.164 0-.32.035-.443.102-.297.162-.38.452-.23.816.08.198.23.406.43.603.1.096.216.195.33.282l.402.274c1.062.686 2.105 1.173 3.104 1.45-.034-.07-.07-.137-.107-.204zm2.92-9.796l-.66-.023h-.012c-.046 0-.11.002-.158.005-.23.014-.436.06-.598.128-.265.113-.43.306-.42.493.007.183.16.332.42.41.074.026.162.042.26.052.064.008.135.01.22.01h.12c.296-.006.567-.023.83-.052.74-.08 1.424-.276 1.995-.568-.587-.25-1.26-.403-1.998-.455zM84.222 81.964c0 8.614-7.49 10.047-11.214 10.047H62.394v-1.713l2.644-.28V74.07l-2.645-.28v-1.714H73.01c3.563 0 11.213 1.273 11.213 9.888zm-16.82 7.974h6.047c2.843 0 8.33-1.22 8.33-7.974 0-6.755-5.767-7.815-8.77-7.815H67.4v15.788zm-1.37 17.487c0 1.207-.935 2.145-2.29 2.145H62.14v-4.29h1.606c1.354 0 2.29.925 2.29 2.145zm-3.138 1.46h.85c.904 0 1.495-.608 1.495-1.46 0-.84-.59-1.46-1.496-1.46h-.85v2.92zm-7.592-3.605h3.195v.674H56.06v1.116h2.16v.674h-2.16v1.152h2.47v.674h-3.227v-4.29zm-5.64 4.32l-1.06-3.082-1.058 3.083h-.653l-1.502-4.32h.82l1.027 3.18 1.06-3.192h.64l1.058 3.193 1.028-3.18h.794l-1.502 4.32h-.653zM18.05 90.297l2.643-.28V74.07l-2.643-.28v-1.714h19.945v5.343h-1.923l-.36-3.27H23.056v6.1H35.39v2.072H23.057v7.616h13.176l.36-3.27h1.923v5.343H18.05v-1.714zm19.647 16.827v.622H2.91L.36 109.57l-.365-.506 1.96-1.402c-.276-.098-.52-.277-.695-.52-.468-.647-.32-1.554.33-2.02.258-.184.555-.272.85-.272.45 0 .898.21 1.182.602.368.51.354 1.18.014 1.67h34.06zm-34.583-1.307c-.267-.37-.786-.454-1.157-.19-.37.267-.456.784-.19 1.153.156.214.408.343.674.343h.268l.217-.155c.37-.266.455-.783.19-1.152zm70.444 1.61c0 1.206-.936 2.144-2.29 2.144H69.66v-4.29h1.608c1.354 0 2.29.925 2.29 2.145zm-3.14 1.458h.85c.905 0 1.496-.607 1.496-1.46 0-.84-.59-1.458-1.496-1.458h-.85v2.918zm7.567.686h-.757v-4.29h.757v4.29zm6.87-1.324v-2.966h.746v4.29h-.633l-2.376-3.052v3.052h-.744v-4.29h.702l2.308 2.966zm6.596-3.04c.752 0 1.214.21 1.657.583l-.48.568c-.333-.28-.66-.46-1.207-.46-.794 0-1.397.693-1.397 1.527 0 .883.584 1.532 1.465 1.532.406 0 .776-.128 1.04-.325v-.803h-1.102v-.656h1.835v1.802c-.424.36-1.033.668-1.797.668-1.348 0-2.235-.957-2.235-2.22 0-1.2.924-2.218 2.223-2.218zm12.33 0c.795 0 1.275.277 1.687.67l-.487.556c-.344-.318-.713-.533-1.206-.533-.825 0-1.422.673-1.422 1.525 0 .84.597 1.526 1.422 1.526.53 0 .868-.213 1.237-.557l.488.49c-.45.466-.942.76-1.75.76-1.254 0-2.19-.974-2.19-2.218 0-1.22.917-2.22 2.222-2.22zm7.167 0c1.324 0 2.247 1 2.247 2.22 0 1.206-.936 2.218-2.26 2.218-1.323 0-2.247-1-2.247-2.22 0-1.206.936-2.218 2.26-2.218zm0 3.745c.856 0 1.453-.68 1.453-1.525 0-.834-.61-1.526-1.465-1.526-.856 0-1.453.68-1.453 1.525 0 .833.61 1.526 1.465 1.526zm6.564-1.23c0 .796.413 1.225 1.09 1.225.67 0 1.084-.405 1.084-1.195v-2.47h.757v2.433c0 1.28-.725 1.924-1.852 1.924-1.12 0-1.834-.643-1.834-1.887v-2.47h.757v2.44zm5.31-17.782l.36-3.27h1.922v5.343h-20.466v-1.714l2.643-.28V74.07l-2.644-.28v-1.714h19.945v5.343h-1.922l-.36-3.27h-12.656v6.1h12.336v2.072h-12.336v7.616h13.177zm4.56 16.04h-1.366v3.592h-.764v-3.59h-1.366v-.7h3.496v.7z" id="path-1" class="cls-2" fill-rule="evenodd"/></svg>