<svg xmlns="http://www.w3.org/2000/svg" preserveAspectRatio="xMidYMid" width="238" height="136" viewBox="0 0 238 136"><defs><style>.cls-2 { fill: #ffffff; filter: url(#drop-shadow-1); }</style><filter id="drop-shadow-1" filterUnits="userSpaceOnUse"><feOffset in="SourceAlpha"/><feGaussianBlur result="dropShadow" stdDeviation="4"/><feFlood flood-color="#000" flood-opacity=".3"/><feComposite operator="in" in2="dropShadow"/><feComposite in="SourceGraphic" result="dropShadow"/></filter></defs><path d="M250.604 147.786c.337.12.635.34.85.64.57.798.39 1.915-.406 2.49-.314.225-.676.334-1.036.334-.552 0-1.098-.258-1.444-.742-.45-.63-.434-1.455-.018-2.058h-41.61v-.767h42.498l3.114-2.247.446.622-2.394 1.728zm-.594.664h-.326l-.265.19c-.455.328-.558.965-.232 1.42.326.455.96.56 1.413.232.455-.327.56-.964.232-1.42-.19-.264-.497-.422-.822-.422zm-27.067-21.47l3.326-.34v-19.062h-.44l-9.835 21.512h-3.572l-9.932-21.512h-.44v19.057l3.377.344v2.11h-9.395v-2.11l3.23-.345v-19.5l-3.23-.49v-2.112h8.22l10.03 21.758 9.98-21.757h8.075v2.16l-3.23.443v19.5l3.23.343v2.11h-9.394v-2.11zm-25.387 19.286h-2.978v1.374h2.64v.83h-2.64v1.42h3.016v.83h-3.94v-5.284h3.902v.83zm-9.274 4.454l-1.308-1.842h-1.144v1.842h-.925v-5.284h2.347c1.233 0 1.955.664 1.955 1.683 0 .868-.52 1.388-1.256 1.6l1.422 2h-1.09zm-.015-3.563c0-.566-.406-.876-1.09-.876h-1.347v1.776h1.354c.662 0 1.083-.348 1.083-.9zm-10.206 3.646c-1.368 0-2.24-.792-2.24-2.325v-3.042h.924v3.005c0 .982.504 1.51 1.33 1.51.82 0 1.325-.498 1.325-1.472v-3.042h.924v2.997c0 1.578-.887 2.37-2.263 2.37zm-4.565-106.34c-.722.706-1.542 1.273-2.437 1.686-.89.414-1.864.67-2.888.756-.115.01-.23.018-.346.022.065.822.01 1.617-.166 2.368-.24 1.04-.722 2.06-1.392 2.947-.616.82-1.396 1.558-2.318 2.188-.83.57-1.767 1.05-2.788 1.43-1.763.652-3.688.982-5.72.982-.128 0-.255 0-.382-.004-2.097-.05-4.15-.444-6.107-1.17-.92-.34-1.827-.762-2.706-1.257.14.384.282.763.433 1.14.44 1.11.85 1.99 1.29 2.774.247.44.517.86.805 1.253.037.053.066.09.108.144l.356.455c.157.19.32.383.49.57.707.783 1.462 1.434 2.244 1.933.84.54 1.74.916 2.666 1.12.46.102.936.165 1.457.193.222.015.44.02.672.026l.106.002c.126.003.253.006.392.014l.158.013c.056.006.114.013.18.025.134.026.27.053.465.157.248.072.595.595.527.966v.164c-.007.174-.02.33-.038.486-.04.325-.104.64-.19.934-.174.597-.455 1.17-.84 1.707-.668.92-1.617 1.687-2.822 2.28-.988.484-2.072.83-3.314 1.053-1.092.197-2.258.272-3.424.25-1.176-.035-2.324-.185-3.413-.446-1.248-.302-2.32-.72-3.277-1.272l-.123-.073c-.723.807-1.558 1.447-2.486 1.903-.574.282-1.166.49-1.76.622-.413.09-.83.147-1.27.17l-.138 19.216c0 .187-.154 2.32-.343 2.32h-.004c-.187-.003-.338-2.136-.338-2.322l-.14-19.22c-1.134-.072-2.24-.388-3.214-.92-.54-.295-1.054-.655-1.527-1.068-.235-.21-.465-.442-.686-.688-.213.128-.435.25-.662.365-1.02.51-2.138.88-3.42 1.13-1.05.205-2.142.31-3.244.31l-.295-.003c-1.232-.022-2.423-.17-3.54-.445-1.315-.326-2.42-.787-3.378-1.41-.554-.36-1.046-.778-1.463-1.244-.46-.514-.815-1.08-1.058-1.683-.247-.602-.386-1.26-.413-1.953v-.086c-.002-.05-.003-.098 0-.208-.012-.134.103-.56.305-.74.15-.178.336-.273.48-.335.14-.057.26-.087.363-.108.183-.04.34-.055.493-.07l.466-.034c.506-.033 1.046-.075 1.588-.174.51-.092 1.008-.227 1.48-.403.928-.346 1.816-.874 2.643-1.57.773-.653 1.493-1.44 2.142-2.337.53-.746 1.02-1.64 1.543-2.81.268-.603.53-1.255.81-2.017-.497.277-1.002.53-1.507.753-2.17.968-4.467 1.512-6.825 1.617-2.45.105-4.83-.277-6.944-1.135-1.175-.48-2.223-1.095-3.115-1.826-1.018-.836-1.807-1.805-2.343-2.882-.573-1.128-.85-2.407-.8-3.7.005-.134.014-.27.027-.402-.352-.017-.695-.052-1.022-.106-1.222-.197-2.405-.67-3.42-1.366-.99-.676-1.867-1.585-2.533-2.63-.653-1.018-1.11-2.144-1.36-3.346-.253-1.24-.26-2.465-.026-3.64.247-1.243.782-2.39 1.55-3.322-.19-.266-.358-.536-.5-.803-.525-.975-.868-2.102-1.018-3.35-.128-1.07-.112-2.2.046-3.357.16-1.132.44-2.213.835-3.213.232-.582.48-1.086.758-1.542.173-.28.346-.527.53-.75.24-.29.474-.52.74-.722.26-.19.667-.45 1.237-.53.277-.035.575-.015.84.06.136.04.267.09.384.15.083.042.116.06.15.08.494.272.913.492 1.35.72 3.66 1.886 7.28 3.21 10.756 3.928 1.792.377 3.66.614 5.552.704.75.038 1.535.056 2.474.056h.327c.312 0 .624-.004.938-.006.634-.005 1.276-.01 1.933.002.603.016 1.074.05 1.525.11.644.084 1.166.217 1.647.418.6.25 1.145.645 1.54 1.112.36.418.648.925.88 1.55.372 1.048.495 2.072.57 3.023.034.44.055.914.065 1.444l.013 1.385c.025.928.124 1.764.293 2.48.2.853.5 1.56.89 2.097.208.284.444.518.685.674.12.078.24.137.36.175.06.02.118.035.176.046l.08.008.014-.03.147.02c.08-.02.126-.036.174-.055.11-.047.234-.12.368-.22.253-.187.515-.442.776-.754.25-.297.493-.63.744-1.022-.055-.195-.116-.39-.18-.577l-.368-.993c-.537-1.472-.977-2.842-1.347-4.186-.445-1.612-.752-3.075-.937-4.47l-.068-.58c-.014-.136-.025-.27-.034-.406l-.06-1.238v-.154c.006-.918.06-1.686.167-2.416.13-.897.333-1.696.62-2.44.172-.436.363-.825.588-1.19.27-.435.558-.794.882-1.096.313-.286.75-.634 1.382-.798.07-.02.155-.037.26-.05.173-.024.21-.015.27-.015.104 0 .148.004.218.013.086.01.17.023.245.042.264.062.524.168.787.324.407.243.775.57 1.125.998.286.356.54.755.752 1.186.372.754.643 1.59.828 2.552.083.42.147.86.192 1.305.02.182.033.368.046.554l.007.096c.014.22.024.448.03.66.026.83-.006 1.71-.095 2.618-.083.84-.213 1.713-.386 2.597-.345 1.744-.84 3.46-1.47 5.106-.356.916-.72 1.728-1.114 2.486-.232.44-.453.825-.672 1.175.057.385.094.762.11 1.122.02.336.018.677.016 1l-.08 14.516-.11 17.172c.308-.022.608-.065.894-.128.467-.103.93-.268 1.38-.49.678-.333 1.32-.813 1.87-1.397-.49-.455-.888-.95-1.188-1.477-.323-.562-.547-1.2-.648-1.84-.05-.307-.072-.626-.068-.973.007-.373.055-.712.148-1.038.115-.4.294-.75.533-1.04.27-.335.64-.595 1.043-.733.394-.14.842-.167 1.267-.074.393.085.77.266 1.09.52.562.45.96 1.12 1.123 1.892.073.34.104.677.094 1.03l-.03.472c-.02.174-.04.33-.07.487-.158.825-.47 1.634-.928 2.41.795.455 1.734.815 2.79 1.07.974.232 2.006.367 3.066.397 1.05.023 2.09-.046 3.076-.223 1.07-.194 2.033-.5 2.868-.91.944-.462 1.7-1.067 2.19-1.75.27-.374.465-.775.585-1.188.055-.184.095-.374.12-.564h-.02c-.265-.006-.546-.012-.83-.027-.603-.033-1.185-.11-1.728-.23-1.11-.24-2.227-.705-3.224-1.342-.91-.58-1.785-1.328-2.597-2.225-.19-.207-.372-.42-.55-.637l-.387-.49c-.037-.045-.09-.115-.133-.177-.32-.436-.63-.915-.917-1.422-.483-.855-.927-1.803-1.4-2.982-.347-.873-.685-1.805-1.093-3.024l-.113-.345-.058-.045c-.102-.078-.204-.157-.303-.237-.806-.655-1.58-1.39-2.3-2.188-.35-.392-.695-.802-1.02-1.22l-.474-.636c-.157-.217-.314-.446-.46-.667-.487-.754-1.09-1.774-1.446-3.002-.09-.318-.15-.61-.183-.893-.045-.39-.043-.7.004-1.01.072-.466.234-.843.5-1.154.174-.202.4-.365.636-.462.207-.088.444-.136.682-.136.566.02.955.21 1.203.35.274.162.53.36.785.608.39.383.733.835 1.08 1.42.274.468.52.982.734 1.53.208.517.373 1.064.518 1.55l.166.546c.454 1.492.908 2.987 1.387 4.474 1.327.965 2.763 1.734 4.272 2.284 1.785.654 3.64.998 5.51 1.026h.212c1.86 0 3.606-.304 5.19-.904.873-.334 1.668-.748 2.36-1.23.74-.515 1.362-1.108 1.847-1.766.507-.684.852-1.43 1.023-2.214.143-.65.166-1.336.07-2.043-.19-.028-.382-.063-.568-.104-1.72-.366-3.43-1.125-5.233-2.32l-.61-.435c-.24-.187-.435-.36-.618-.545-.462-.467-.788-.952-.997-1.482-.27-.67-.305-1.422-.1-2.065.215-.688.735-1.302 1.39-1.64.577-.303 1.283-.42 1.95-.337.57.07 1.143.266 1.697.588.447.26.875.596 1.306 1.03l.506.552c.164.187.323.378.478.567.68.84 1.224 1.655 1.667 2.498.27.51.497 1.03.678 1.55.21 0 .42-.01.628-.03.762-.075 1.477-.27 2.122-.577 1.282-.604 2.37-1.68 3.068-3.03.688-1.32.976-2.81.818-4.195-.08-.705-.275-1.362-.577-1.95-.117-.23-.252-.447-.404-.653-.55.395-1.155.72-1.806.964-.76.288-1.598.483-2.486.578-.4.043-.805.068-1.246.073H167.123c-.035 0-.114-.004-.185-.008-.067-.004-.125-.01-.185-.018-.304-.033-.564-.086-.814-.166-.425-.132-1.033-.408-1.524-.97-.447-.5-.712-1.172-.73-1.84-.025-.652.193-1.335.593-1.87.348-.473.843-.854 1.426-1.104.466-.2.974-.314 1.553-.35.13-.007.24-.01.383-.01l.964.04c.947.073 1.837.255 2.65.544.532.187 1.048.43 1.532.723.345-.554.603-1.188.765-1.887.264-1.128.298-2.376.104-3.71-.19-1.29-.563-2.482-1.083-3.448-.14-.257-.283-.482-.426-.667-.143-.186-.295-.343-.41-.42-.002 0-.004 0-.006-.003l-.484.26c-2.38 1.268-4.724 2.305-6.967 3.084-2.254.792-4.557 1.373-6.846 1.73-1.923.3-3.894.445-6.026.445h-.377c-.593-.004-1.175-.017-1.742-.03-.39-.008-.773-.017-1.148-.022-.188-.002-.374-.004-.557-.004-.573 0-1.312.015-1.944.13-.358.064-.665.163-.913.294-.246.133-.446.3-.61.517-.31.397-.54.976-.706 1.774-.122.595-.204 1.25-.257 2.062-.02.343-.034.682-.046 1.01l-.03 1.013c-.067 1.44-.29 2.702-.667 3.76-.407 1.15-1.013 2.088-1.753 2.708-.385.325-.816.566-1.247.7-.104.033-.217.06-.325.08l-.4.048-.084.002H138.45c-.088-.004-.18-.012-.266-.02-.34-.04-.676-.14-.952-.285-.25-.127-.422-.258-.548-.355-.126-.1-.224-.184-.277-.23l-.08-.07c-.298-.263-.327-.723-.066-1.024.245-.278.69-.324.983-.1l.085.065c.054.042.12.09.22.16.09.057.202.13.33.184.136.06.27.09.44.098l.106.003.075-.002.002.025v-.024.026l.094-.032.145-.028c.06-.014.11-.027.16-.047.23-.083.46-.23.67-.424.482-.438.892-1.156 1.157-2.022.284-.9.433-1.99.445-3.242l-.008-.986c-.002-.356.003-.713.015-1.085.022-.625.07-1.457.225-2.354.09-.488.193-.9.33-1.296.183-.528.41-.973.69-1.358.325-.456.775-.86 1.265-1.136.438-.25.94-.43 1.533-.552.994-.2 1.96-.213 2.894-.226l1.126-.002h.395c.46 0 .92 0 1.385-.01 2.213-.03 4.185-.2 6.03-.516 2.094-.352 4.25-.92 6.408-1.692 2.165-.777 4.387-1.776 6.608-2.97l.52-.282c.04-.022.127-.07.154-.08.012-.015.198-.09.25-.108.09-.03.18-.058.274-.077.33-.07.735-.06 1.09.043.28.083.542.208.8.386.453.313.753.662.986.96.23.298.44.628.65 1.008.34.63.623 1.315.867 2.094.22.712.384 1.45.494 2.197.235 1.654.187 3.22-.144 4.657-.2.845-.5 1.63-.896 2.337-.127.223-.263.44-.406.642.327.405.606.838.834 1.292.43.85.704 1.788.808 2.787.198 1.89-.188 3.815-1.116 5.56-.466.878-1.052 1.663-1.74 2.334zm-44.597 21.11c.002.106.014.212.025.318.082.654.31 1.326.666 1.974.19-.19.36-.39.504-.593.273-.383.47-.8.585-1.238.058-.226.096-.454.112-.675l.01-.342c-.002-.114-.01-.222-.024-.324-.05-.39-.202-.706-.412-.844-.102-.072-.22-.108-.35-.108-.125 0-.255.033-.376.098-.277.142-.503.43-.623.793-.063.18-.102.39-.117.602-.003.047-.005.105-.006.173l.004.17zm4.835-25.796c-.26.194-.51.345-.772.46-.178.077-.33.13-.478.165-.085.022-.17.042-.29.054-.113.018-.178.02-.232.023h-.103l-.17-.004c-.074-.005-.14-.012-.2-.02l-.065-.007c-.164-.027-.324-.063-.478-.112-.29-.09-.574-.223-.845-.394-.467-.295-.887-.69-1.25-1.178-.57-.77-.984-1.696-1.27-2.838-.117-.46-.204-.94-.27-1.468-.063-.514-.1-.995-.116-1.474l-.025-1.377c-.015-.44-.035-.883-.073-1.318-.087-1.037-.235-1.81-.466-2.43-.137-.363-.302-.655-.49-.865-.19-.22-.42-.38-.726-.508-.643-.266-1.558-.317-2.367-.332-.615-.012-1.254 0-1.9.01l-.907.012c-.254.003-.51.004-.765.004-.787 0-1.49-.014-2.155-.043-2.015-.083-4.005-.322-5.913-.71-3.685-.75-7.51-2.13-11.367-4.1-.45-.23-.914-.476-1.35-.714l-.043-.022c-.017.012-.043.028-.072.05-.203.15-.452.455-.67.814-.208.337-.4.73-.577 1.175-.326.827-.557 1.723-.686 2.662-.132.953-.145 1.876-.04 2.745.114.95.367 1.792.75 2.504.067.123.14.245.217.365.4-.25.822-.463 1.25-.633 1.046-.414 2.212-.648 3.468-.692.112-.006.228-.008.344-.008l.248-.002.065.002c.082.003.18.007.258.013.376.03.71.09 1.022.185.37.11.714.27 1.024.476.345.23.648.53.875.86.25.367.415.786.48 1.213.066.443.028.902-.115 1.327-.136.414-.373.8-.686 1.115-.283.29-.624.52-1.014.69-.327.142-.678.237-1.073.287-.178.02-.353.034-.523.034h-.153l-.266-.003c-.608-.015-1.17-.068-1.72-.158-1.266-.21-2.388-.63-3.335-1.25-.113-.072-.222-.148-.33-.23-.456.606-.78 1.335-.943 2.123-.18.862-.176 1.806.007 2.73.368 1.866 1.462 3.583 2.928 4.593.75.52 1.625.877 2.53 1.03.363.06.745.094 1.134.095.116-.334.25-.67.402-.997.457-1 1.077-1.982 1.895-3.002.183-.23.37-.45.562-.67l.09-.1c.166-.184.33-.366.53-.557.528-.508 1.066-.88 1.644-1.138.723-.324 1.47-.438 2.184-.324.862.13 1.636.632 2.067 1.346.228.37.367.8.4 1.246.03.404-.025.828-.16 1.225-.217.642-.605 1.224-1.186 1.778-.23.218-.475.42-.753.614l-.357.244c-.075.05-.158.104-.24.156l-.124.08c-.517.326-1.01.607-1.51.86-1.12.568-2.235.972-3.314 1.2-.193.042-.39.078-.585.108-.03.207-.048.404-.056.597-.043.958.153 1.906.568 2.743.404.828 1.016 1.586 1.822 2.255.736.613 1.614 1.134 2.61 1.547 1.83.758 3.986 1.108 6.14 1.033 2.08-.078 4.21-.574 6.155-1.433 1.113-.488 2.197-1.114 3.22-1.86.16-.49.316-.98.47-1.475l1.244-4.056c.084-.267.185-.576.29-.853.234-.62.49-1.167.78-1.668.377-.647.755-1.137 1.19-1.547.286-.272.583-.48.903-.642.216-.103.417-.172.62-.21.243-.05.524-.055.778-.003.285.06.562.197.78.388.196.17.356.383.474.636.212.462.242.89.245 1.21-.01.79-.22 1.465-.4 1.965-.195.536-.453 1.08-.788 1.665-.282.494-.6.985-.974 1.5l-.325.435c-.065.086-.13.173-.204.265-.186.235-.37.46-.563.684-.382.447-.786.882-1.2 1.29-.574.568-1.19 1.106-1.83 1.602-.126.378-.254.754-.386 1.13-.447 1.283-.848 2.31-1.258 3.235-.395.88-.948 2.03-1.735 3.127-.734 1.014-1.555 1.906-2.44 2.65-.984.83-2.05 1.458-3.164 1.87-.568.21-1.17.374-1.785.483-.634.114-1.283.163-1.777.194l-.103.007c-.12.008-.24.016-.348.027.04.387.125.75.26 1.082.325.81.966 1.544 1.853 2.12.782.512 1.738.91 2.844 1.185.99.246 2.052.38 3.154.4l.287.004c.988 0 1.962-.092 2.896-.27 1.11-.217 2.113-.545 2.977-.976.138-.07.274-.142.408-.22-.527-.896-.856-1.823-.98-2.76-.02-.197-.038-.346-.04-.498l-.002-.07c-.002-.058-.004-.116-.003-.185 0-.065.003-.148.008-.246.024-.377.09-.72.203-1.05.255-.77.782-1.413 1.444-1.76.364-.192.767-.295 1.166-.295.5.01.943.15 1.308.4.34.23.625.562.823.954.163.32.273.683.327 1.078.023.177.035.35.038.522.002.068 0 .14 0 .198-.002.093-.006.16-.01.227l-.002.067c-.024.332-.08.665-.163.995-.164.634-.456 1.257-.847 1.804-.25.354-.54.682-.88.998.142.155.29.3.44.434.374.33.782.615 1.213.85.738.404 1.544.645 2.398.717l-.188-31.612c0-.187 0-.368-.005-.547-.243.258-.48.473-.734.667zm-34.37-7.2c.614.336 1.306.566 2.08.697.226.037.453.068.684.09.227.02.468.035.69.04l.326.006c.13 0 .21-.01.29-.018.157-.02.305-.057.422-.108.21-.09.353-.225.406-.386.052-.15.026-.313-.073-.46-.12-.176-.35-.327-.635-.412-.152-.046-.327-.077-.524-.094l-.26-.01v-.246l-.033.248h-.115c-.082.002-.164.002-.245.006-1.005.033-1.913.206-2.702.514-.104.04-.208.084-.31.132zm6 11.8c.708-.194 1.434-.476 2.166-.838.427-.214.876-.465 1.332-.75l.492-.316c.062-.04.1-.066.145-.098.198-.137.372-.276.52-.415.316-.292.544-.613.642-.903.094-.268.082-.51-.032-.698-.112-.193-.34-.334-.61-.377-.074-.013-.15-.018-.226-.018-.25 0-.525.06-.793.18-.345.147-.708.398-1.05.722-.15.14-.308.315-.465.486l-.05.057c-.174.19-.343.39-.507.59-.667.817-1.18 1.597-1.566 2.378zm22.282 4.986c.188-.2.37-.402.547-.607.175-.204.348-.413.512-.62.07-.088.144-.182.216-.277l.276-.37c.713-.983 1.215-1.873 1.53-2.72.187-.5.287-.963.29-1.34.002-.207-.035-.362-.068-.43v-.027c-.036 0-.123.014-.23.067-.15.076-.313.192-.465.337-.3.28-.59.662-.865 1.134-.238.412-.458.883-.653 1.4-.095.25-.173.482-.26.757l-.83 2.696zm8.042-16.274c.614-1.534 1.1-3.137 1.445-4.765.368-1.763.537-3.336.512-4.81-.013-.854-.083-1.634-.21-2.317-.142-.8-.36-1.51-.647-2.114-.154-.32-.335-.615-.535-.874-.206-.262-.433-.473-.657-.608-.107-.066-.214-.114-.307-.137l-.004-.086-.033.054-.008-.057-.015.076c-.012 0-.024 0-.035-.003h-.004l-.067.006c-.222.05-.465.196-.685.397-.416.38-.788.954-1.077 1.662-.247.615-.434 1.313-.553 2.073-.105.642-.163 1.357-.178 2.188l-.003.14.042 1.155c.007.11.014.22.024.332l.05.493c.166 1.383.44 2.78.846 4.324.338 1.3.748 2.638 1.256 4.088l.134.38c.248-.502.486-1.04.71-1.6zm5.755 31.77c-.083-.394-.27-.72-.525-.924-.164-.133-.365-.208-.55-.208-.072 0-.14.01-.203.034-.23.078-.413.31-.508.64-.05.18-.078.39-.08.598-.004.24.01.468.046.68.07.446.22.87.446 1.26.185.327.43.64.73.94.31-.563.522-1.135.628-1.703.022-.115.038-.236.05-.343l.022-.355c.005-.21-.015-.432-.056-.62zm.827-17.094l-.19-.615c-.14-.465-.286-.946-.473-1.412-.186-.47-.393-.9-.616-1.28-.26-.436-.525-.79-.794-1.05-.146-.142-.297-.26-.438-.343-.14-.08-.26-.112-.305-.112-.02.013-.066.105-.085.24-.044.292.003.7.132 1.154.22.758.623 1.58 1.23 2.51.133.2.265.394.41.592l.442.588c.3.38.616.754.94 1.112l.255.274c-.17-.553-.34-1.106-.508-1.658zm22.587-3.685c-.383-.71-.863-1.41-1.465-2.138-.14-.17-.283-.334-.426-.493l-.44-.475c-.29-.286-.584-.514-.867-.673-.303-.172-.61-.278-.89-.306-.06-.008-.118-.01-.172-.01-.202 0-.39.042-.542.126-.362.2-.463.557-.28 1.005.1.245.28.5.526.743.123.12.264.242.402.348l.49.338c1.3.846 2.573 1.446 3.794 1.786-.042-.084-.087-.168-.13-.25zm3.567-12.065l-.805-.028h-.016c-.056 0-.133.002-.192.006-.28.018-.534.074-.732.16-.323.138-.524.376-.512.606.008.223.194.407.512.505.09.03.198.05.32.063.077.01.163.012.267.012l.148-.002c.36-.006.692-.027 1.013-.063.905-.1 1.74-.34 2.437-.7-.718-.308-1.538-.496-2.44-.56zm-49.533 84.698c0 10.612-9.15 12.377-13.7 12.377H92.226v-2.112l3.23-.344v-19.646l-3.23-.343v-2.112h12.966c4.356 0 13.7 1.568 13.7 12.18zm-20.55 9.823h7.39c3.473 0 10.176-1.502 10.176-9.823 0-8.32-7.045-9.626-10.715-9.626h-6.85v19.45zm-1.67 21.542c0 1.487-1.142 2.643-2.797 2.643H91.91v-5.284h1.963c1.655 0 2.798 1.14 2.798 2.642zm-3.835 1.797h1.038c1.106 0 1.828-.748 1.828-1.797 0-1.034-.72-1.797-1.827-1.797h-1.038v3.595zm-9.274-4.44h3.904v.83h-2.978v1.375h2.64v.83h-2.64v1.42h3.016v.83h-3.94v-5.284zm-6.89 5.323l-1.294-3.797-1.293 3.798h-.797l-1.835-5.322h1l1.257 3.918L75 145.42h.783l1.293 3.934 1.256-3.918h.97l-1.835 5.322h-.797zm-38.62-23.78l3.23-.344V106.99l-3.23-.345v-2.112h24.366v6.582h-2.35l-.438-4.028H44.166v7.514h15.07v2.555h-15.07v9.38h16.097l.44-4.026h2.35v6.58H38.05v-2.112zm24.002 20.728v.767H19.554l-3.114 2.247-.446-.622 2.394-1.728c-.337-.12-.635-.34-.85-.64-.57-.798-.39-1.915.406-2.49.314-.225.676-.334 1.035-.334.552 0 1.097.258 1.444.742.45.63.434 1.455.018 2.058h41.61zm-42.248-1.61c-.326-.455-.96-.56-1.414-.232-.453.327-.557.964-.23 1.42.19.264.497.422.82.422h.328l.265-.19c.454-.33.557-.965.23-1.42zm86.058 1.982c0 1.487-1.143 2.643-2.797 2.643h-1.963v-5.284h1.963c1.654 0 2.797 1.14 2.797 2.642zm-3.835 1.797h1.038c1.105 0 1.827-.748 1.827-1.797 0-1.034-.722-1.797-1.827-1.797h-1.038v3.595zm9.243.845h-.924v-5.284h.924v5.284zm8.395-1.63v-3.654h.91v5.284h-.775l-2.903-3.76v3.76h-.91v-5.284h.857l2.82 3.654zm8.056-3.745c.918 0 1.483.257 2.024.717l-.587.702c-.406-.347-.805-.566-1.474-.566-.97 0-1.707.853-1.707 1.88 0 1.087.714 1.888 1.79 1.888.496 0 .948-.16 1.27-.4v-.99h-1.345v-.807h2.242v2.218c-.52.446-1.264.823-2.196.823-1.647 0-2.73-1.177-2.73-2.732 0-1.48 1.128-2.733 2.715-2.733zm15.063 0c.97 0 1.557.34 2.06.823l-.594.687c-.422-.392-.873-.657-1.475-.657-1.007 0-1.737.83-1.737 1.88 0 1.034.73 1.88 1.737 1.88.647 0 1.06-.264 1.512-.687l.594.605c-.548.574-1.15.936-2.135.936-1.534 0-2.677-1.2-2.677-2.732 0-1.502 1.12-2.733 2.715-2.733zm8.755 0c1.617 0 2.745 1.23 2.745 2.733 0 1.487-1.143 2.733-2.76 2.733-1.617 0-2.745-1.23-2.745-2.732 0-1.487 1.143-2.733 2.76-2.733zm0 4.613c1.046 0 1.775-.838 1.775-1.88 0-1.027-.744-1.88-1.79-1.88-1.045 0-1.775.84-1.775 1.88 0 1.027.745 1.88 1.79 1.88zm8.02-1.517c0 .982.503 1.51 1.33 1.51.82 0 1.324-.498 1.324-1.472v-3.042h.925v2.997c0 1.578-.888 2.37-2.264 2.37-1.37 0-2.24-.792-2.24-2.325v-3.042h.924v3.005zm6.484-21.904l.44-4.027h2.35v6.58h-25.003v-2.112l3.228-.344V106.99l-3.23-.345v-2.112h24.366v6.582h-2.35l-.438-4.028h-15.462v7.514h15.07v2.555h-15.07v9.38h16.098zm5.572 19.76h-1.67v4.424h-.932v-4.424h-1.67v-.86h4.272v.86z" id="path-1" class="cls-2" fill-rule="evenodd"/></svg>